<svg xmlns="http://www.w3.org/2000/svg" viewBox="0 0 200 200"><defs><style>.cls-1{fill:red;}.cls-2{fill:#0fa;}.cls-3{fill:#f7d394;}</style></defs><title>iconos landing</title><g id="Color"><path class="cls-1" d="M184.23,62.59a3,3,0,0,0-.31,0,3.06,3.06,0,0,0-2.13-1.32,113.81,113.81,0,0,0-14.51-6.09c-1.24-.42-2.49-.81-3.75-1.19a14.2,14.2,0,0,0-4.15-.94,3.69,3.69,0,0,0-1.18.22c-.64-1.66-2-3-3.15-4.37-.42-.5-.83-1-1.25-1.52a2.27,2.27,0,0,0-.7-1.5L151,44a2.44,2.44,0,0,0-2-.7,17.15,17.15,0,0,0-5.72-1.45,2,2,0,0,0-1.27.34c-3.44-.25-7.25,1.27-9.95,3a19.7,19.7,0,0,0-8.71,11.38,23.29,23.29,0,0,0-.65,3.39,26.69,26.69,0,0,0-2.06,15.3,2.2,2.2,0,0,0-.26.56,9.28,9.28,0,0,0,.12,6.8,5.5,5.5,0,0,0,5,3.15c5.42-.1,5-7,5.38-10.83.23-2.19.35-4.43.72-6.6a5.69,5.69,0,0,1,2.36-4.1,8,8,0,0,1,9.07-.4,2,2,0,0,0,.61.27q.67,10.71.55,21.45A2.55,2.55,0,0,0,147.34,88a8.36,8.36,0,0,1,4.74.48,3,3,0,0,0,2.27.11A6.2,6.2,0,0,0,157,89.78c6.7,1.44,13.47,2.51,20.27,3.35a2.05,2.05,0,0,0,1.42-.44,3.39,3.39,0,0,0,1.31.44c2.56.33,4.4-2,4.77-4.3.41-2.59.46-5.27.67-7.88q.61-7.94,1.25-15.86A2.53,2.53,0,0,0,184.23,62.59Z"/><path class="cls-2" d="M119.37,58.69a1.52,1.52,0,0,0-.16-.42.24.24,0,0,0-.06-.09c-.06-.08-.12-.17-.19-.25a1.36,1.36,0,0,0-.36-.27,1.5,1.5,0,0,0-.69-.17,1.25,1.25,0,0,0-.62.19.82.82,0,0,0-.45-.12,1,1,0,0,0-.7.29,1,1,0,0,0-.3.71,2.63,2.63,0,0,0,.06.48,1.05,1.05,0,0,0,.06.24,2.13,2.13,0,0,0,.49.81,1.83,1.83,0,0,0,1.72.49,1.57,1.57,0,0,0,.77-.44,2.65,2.65,0,0,0,.21-.26l.06-.09a1.52,1.52,0,0,0,.16-.42A1.56,1.56,0,0,0,119.37,58.69Z"/><path class="cls-2" d="M102,56.21a1.45,1.45,0,0,0-.32-.55l0-.06-.22-.17,0,0a1.43,1.43,0,0,0-.64-.18l-.21,0-.21,0a1.41,1.41,0,0,0-.54.32.89.89,0,0,0-.22.3.71.71,0,0,0-.18.12l-.15.2a1,1,0,0,0-.14.5l0,.45v.16a1.75,1.75,0,0,0,0,.33,1.12,1.12,0,0,0,.11.25s0,0,0,.05a1.24,1.24,0,0,0,.68.51,2.54,2.54,0,0,0,.29,0h0a1.33,1.33,0,0,0,.34,0,1.66,1.66,0,0,0,.53-.27,2.8,2.8,0,0,0,.5-.41,2,2,0,0,0,.41-.73,1.52,1.52,0,0,0,0-.21.75.75,0,0,0,0-.21A1,1,0,0,0,102,56.21Z"/><path class="cls-2" d="M109.23,66.35a1.13,1.13,0,0,0-.06-.31,2.12,2.12,0,0,0-.43-.74,2,2,0,0,0-.32-.26,1.27,1.27,0,0,0-.39-.18,2,2,0,0,0-.34,0h-.1A1.39,1.39,0,0,0,107,65a1.5,1.5,0,0,0-.36.35.91.91,0,0,0-.3.11l-.09,0a.93.93,0,0,0-.35.36,1,1,0,0,0-.14.51,4.43,4.43,0,0,0,.12.88l.09.27s0,.1,0,.14a2,2,0,0,0,.19.39v0h0a1.3,1.3,0,0,0,.15.2.75.75,0,0,0,.32.21.85.85,0,0,0,.38.09,1,1,0,0,0,.61-.22s0,0,0,0h0a1.45,1.45,0,0,0,.85-.31,1.63,1.63,0,0,0,.46-.52,1.88,1.88,0,0,0,.22-.8A1.15,1.15,0,0,0,109.23,66.35Z"/><path class="cls-2" d="M102.76,83.79c-.17-1.36-.34-2.73-.56-4.08A2.75,2.75,0,0,0,100,77.25a6.62,6.62,0,0,0-3.92.74,4.77,4.77,0,0,0-2.57,3.11,1,1,0,0,0,.63,1.2,2.06,2.06,0,0,0-.2.82,2.39,2.39,0,0,0,.59,1.5c.17.21.38.38.56.58a.94.94,0,0,1,.27.48,6.79,6.79,0,0,0,.4,1.23,1.8,1.8,0,0,0,1.61,1,6.84,6.84,0,0,0,2-.52c.59-.18,1.19-.34,1.76-.57a2.64,2.64,0,0,0,1.44-1.16A3,3,0,0,0,102.76,83.79Z"/><path class="cls-2" d="M91.34,68.06a4.46,4.46,0,0,0-1.5-.81,6.05,6.05,0,0,0-3.24-.16,1,1,0,0,0-.68.68,2,2,0,0,0-1.13,1.92,2.73,2.73,0,0,0,.62,1.41,5.28,5.28,0,0,0,1,1.08,2.34,2.34,0,0,0,2.83-.06,11.1,11.1,0,0,0,1.16-1,13,13,0,0,0,1-1A1.46,1.46,0,0,0,91.34,68.06Z"/><path class="cls-2" d="M83.12,59.27a2.31,2.31,0,0,0-2.27-.44A4,4,0,0,0,79,60.47a1,1,0,0,0,.36,1.37,1,1,0,0,0,1.07-.05A2.19,2.19,0,0,0,82.21,63a1.68,1.68,0,0,0,1.25-.6,2.28,2.28,0,0,0,.5-1.27A2.36,2.36,0,0,0,83.12,59.27Z"/><path class="cls-2" d="M67,64.41a3.9,3.9,0,0,0-1.79-2,1,1,0,0,0-1.37.36,1.06,1.06,0,0,0-.11.45,2.26,2.26,0,0,0-.76,1.05,2.17,2.17,0,0,0,3.13,2.57A2.08,2.08,0,0,0,67,64.41Z"/><path class="cls-2" d="M71.65,73.74A6.6,6.6,0,0,1,70.14,71a1,1,0,1,0-1.93.53v0a7.56,7.56,0,0,0-3.42,1,3.56,3.56,0,0,0-1.72,3.14,3.39,3.39,0,0,0,2.33,2.81,4.13,4.13,0,0,0,3.88-.14A7.14,7.14,0,0,0,71.81,75,1,1,0,0,0,71.65,73.74Z"/><path class="cls-2" d="M83.52,91.33l-.54-.2c.08-.19.16-.37.25-.55a1.64,1.64,0,0,0,1.78.24,1.58,1.58,0,0,0,.61-2c-.3-.8-.7-1.57-1.05-2.35A1,1,0,0,0,83.44,86a11.11,11.11,0,0,0-2,.65A1,1,0,0,0,80.18,86a3,3,0,0,0-1.86,2.65A12.32,12.32,0,0,0,77,90a3.83,3.83,0,0,0-.68,1l0,.06a.8.8,0,0,0-.07.2,3.49,3.49,0,0,0-.21.86,1,1,0,0,0,.46.84,3.51,3.51,0,0,0,1.35,3.53,5.22,5.22,0,0,0,5,.42,4.65,4.65,0,0,0,2.22-1.47,2.63,2.63,0,0,0,.4-2.53A3,3,0,0,0,83.52,91.33Z"/><path class="cls-2" d="M68.72,110.85c-.26-.75-1-1.07-1.33-1.76a2.24,2.24,0,0,1-.11-.81,2.47,2.47,0,0,0-.17-.78l0,0a1.49,1.49,0,0,0,.25-2.16c-.8-1.21-2-2.45-3.61-2.29a1.14,1.14,0,0,0-.84.5c-1.22.18-2.23,1.66-2.87,2.57a8.66,8.66,0,0,0-1.71,3.84,3.27,3.27,0,0,0,.28,1.8A10.3,10.3,0,0,0,60,113.33a3.69,3.69,0,0,1,.65,1.49,3.23,3.23,0,0,0,.71,1.77c1,1,2.57.57,3.68.09a6.58,6.58,0,0,0,2.76-2.25A4.2,4.2,0,0,0,68.72,110.85Z"/><path class="cls-2" d="M55.22,130.89a1,1,0,0,0-1.31-1.43l-.29.19a1.19,1.19,0,0,0-.2-.19c.69-.61,1.37-1.23,2-1.89a1,1,0,0,0-.34-1.64,2.73,2.73,0,0,0-2.89-2.87c-1.9.06-3.24,1.46-4.55,2.66-.67.61-1.55.56-2.34.92a7.36,7.36,0,0,0-2.12,1.64,5.59,5.59,0,0,0-1.79,5.06A.88.88,0,0,0,42,134a.91.91,0,0,0,.49,1.06,1.07,1.07,0,0,0,1.27,1.16l.1,0c0,.05,0,.1,0,.15a1,1,0,0,0,1.6.76h0a.92.92,0,0,0,.44.24,1.06,1.06,0,0,0,1.63.35h0a.88.88,0,0,0,.29.06,12.44,12.44,0,0,0,1.83-.06,3,3,0,0,0,1.77-.52,1.11,1.11,0,0,0,.07-1.52,7.1,7.1,0,0,1,1.66-.75c1.59.45,2.62-1.09,2.72-2.49A1.67,1.67,0,0,0,55.22,130.89Z"/><path class="cls-2" d="M32.35,99.72A3.39,3.39,0,0,0,29.41,98a4.89,4.89,0,0,0-3.48,1.12.79.79,0,0,0-.17.2c-.43.1-.86.21-1.26.33a.9.9,0,0,0-.68.76,3.29,3.29,0,0,0-1,.29,1,1,0,0,0-.45,1.13,3.93,3.93,0,0,0,1.05,2.1,1.1,1.1,0,0,0,.25,1.22c-.11,0-.22-.09-.33-.12a1.66,1.66,0,0,0-2.25,1.48s0,.06,0,.09c-.94-.07-1.14,1.11-.68,1.7a6.31,6.31,0,0,0,.92.94,1.17,1.17,0,0,0-.12,1.13,2.57,2.57,0,0,0-1.3.28,2,2,0,0,0-.77,2.93,6.91,6.91,0,0,0,2.94,2c1,.5,2.37,1.17,3.54.77a1.85,1.85,0,0,0,1.13-1.09.13.13,0,0,0,0-.06,1,1,0,0,0,.64-.67,2.64,2.64,0,0,0-.08-1.53,2.7,2.7,0,0,0,1.56-.34,1,1,0,0,0,1.09-.2,1.68,1.68,0,0,0,.53-1.72,1.6,1.6,0,0,0,.31-.37A1,1,0,0,0,30.5,109l-.27-.13a1.63,1.63,0,0,0-.72-1.67,5.46,5.46,0,0,0-.77-.47.89.89,0,0,0,.16-.25c.09-.23.2-.46.31-.69a.78.78,0,0,0,.21.09A2.29,2.29,0,0,0,32,104.61a4.94,4.94,0,0,0,.24-3A2,2,0,0,0,32.35,99.72Z"/><path class="cls-2" d="M47.06,87.72a6,6,0,0,0-.63-.06,5.39,5.39,0,0,0,.47-.6A2.25,2.25,0,0,0,47.2,86a1,1,0,0,0-.28-.7.93.93,0,0,0,.25-.92,1,1,0,0,0-1.23-.7A21.72,21.72,0,0,1,42,84.79a1.41,1.41,0,0,0-1,.65l-.54.76c-.36.54-.7,1.1-1,1.67s-.56,1-.82,1.6a7.52,7.52,0,0,0-.73,2c-.25,1.54,1,2.46,2.33,2.74a6.59,6.59,0,0,0,4-.31,1.53,1.53,0,0,0,.94-1.71c-.16-.68-.75-.89-1.13-1.38l0,0a.21.21,0,0,1,0-.06c0-.06,0-.13.07-.19s.22.17.33.26c1.05.87,2.62,1.35,3.72.26A1.92,1.92,0,0,0,47.06,87.72Z"/><path class="cls-2" d="M11.25,100.49a1,1,0,0,0-.05-.67,5.36,5.36,0,0,0-.06-.69.81.81,0,0,0-.47-.61,4.14,4.14,0,0,0-1.84-1.6,2.55,2.55,0,0,0-2-.22,3.74,3.74,0,0,0-1.48,1.1A25.28,25.28,0,0,0,3,100.72a1,1,0,0,0,0,1,.94.94,0,0,0-.35.2,2.13,2.13,0,0,0-.4,2.41s0,.08,0,.12a2.54,2.54,0,0,0,.42,1.61,3.43,3.43,0,0,0,3.5,1,6.3,6.3,0,0,0,3-1.67,5.35,5.35,0,0,0,.94-1.07c.16-.09.32-.19.48-.27a1,1,0,0,0,.36-1.37c-.05-.07-.11-.12-.16-.18a6.77,6.77,0,0,0,.42-1.75A1.8,1.8,0,0,0,11.25,100.49Z"/><path class="cls-2" d="M26.43,84.15a2.56,2.56,0,0,0-.59-1l0,0a.76.76,0,0,0-.1-.15.75.75,0,0,0-.07-.12l0-.08a2.12,2.12,0,0,1-.1-.36l0,0v-.15a2.58,2.58,0,0,0-.28-1.13,1.59,1.59,0,0,0-.82-.67,2,2,0,0,0-1.21-.7,2.33,2.33,0,0,0-1.74.38A3.72,3.72,0,0,0,20,83.2a3.8,3.8,0,0,0,.18,1.64A2.06,2.06,0,0,0,21.7,86a8.09,8.09,0,0,0,3.53.07A1.53,1.53,0,0,0,26.43,84.15Z"/><path class="cls-2" d="M44.24,70.91c-.05-.35-.1-.7-.16-1.06a.94.94,0,0,0-.46-.59,1,1,0,0,0-.77-.1.94.94,0,0,0-.59.46.5.5,0,0,0,0,.13,1.51,1.51,0,0,0-.82.16,2.34,2.34,0,0,0-.74.73l-.06.09h-.15a1.39,1.39,0,0,0-.93.36,1.7,1.7,0,0,0-.5,1.06,2.11,2.11,0,0,0,.16,1.42,1.74,1.74,0,0,0,1.07.8,2.5,2.5,0,0,0,1.61-.24.82.82,0,0,0,.25.12,1,1,0,0,0,1.23-.7,4.53,4.53,0,0,0,.19-1.11,1.54,1.54,0,0,0,0-.3,1,1,0,0,0,.58-.45A1.11,1.11,0,0,0,44.24,70.91Z"/><path class="cls-3" d="M58.32,77c-.07-.64-.18-1.27-.22-1.92a18.19,18.19,0,0,1,.15-3.76,1,1,0,0,0-.7-1.23,1,1,0,0,0-1.23.7A20.9,20.9,0,0,0,56.11,73a.26.26,0,0,0,0,.09c-.3,1.26-.67,2.52-.92,3.79a2,2,0,0,0,.5,2,1.53,1.53,0,0,0,2.08,0A2.06,2.06,0,0,0,58.32,77Z"/><path class="cls-3" d="M66.94,47.78a6.54,6.54,0,0,0-.12-4.1,1,1,0,0,0-1.93,0,5.14,5.14,0,0,1-2.15,2.37L62.42,46a3,3,0,0,0,1.31-1.36,2,2,0,0,0-1.58-2.88,11.38,11.38,0,0,0-2,0h-.25l-.22-.11a3.1,3.1,0,0,1,1-.41c.77-.13,1.5.32,2.3.15a1.78,1.78,0,0,0,1.49-1.83,2.36,2.36,0,0,0-1.72-1.86,5.18,5.18,0,0,0-4.94,1,1,1,0,0,0,0,1.41,1,1,0,0,0,.28.19l-.54.36c-.29.19-.58.38-.88.55a.91.91,0,0,0-.57-.72,1,1,0,0,0-1.25.4l-.27.57c-.59-.45-1.76-.12-1.65.77a11.33,11.33,0,0,0,1.55,5.25,4.85,4.85,0,0,0,4.41,2.19,5.79,5.79,0,0,0,.8-.13,10.17,10.17,0,0,0,2,.44c1.63.17,3.63,0,4.72-1.37A1.1,1.1,0,0,0,66.94,47.78Zm-10-4.5a1.15,1.15,0,0,0,.38.46,1,1,0,0,0,0,.58c-.47-.19-.94-.4-1.4-.6a.57.57,0,0,1,.08-.13A4.79,4.79,0,0,0,57,43.28Z"/><path class="cls-3" d="M44.87,58.56a1.7,1.7,0,0,0-.45-.83,1.48,1.48,0,0,0-.74-.41v0a1,1,0,0,0-2,0,18.6,18.6,0,0,1,0,2.24,2.45,2.45,0,0,1,0,.27v.08a4.52,4.52,0,0,1-.11.53,4.44,4.44,0,0,1-.15.52l0,.13a2.56,2.56,0,0,1-.11.24,1,1,0,0,0,.08,1.11,1,1,0,0,0,1,.36,3.85,3.85,0,0,0,2.21-2.48A3.1,3.1,0,0,0,44.87,58.56Z"/><path class="cls-3" d="M40.57,54.87a1,1,0,0,0-1.23-.7,5.53,5.53,0,0,0-.79.24.94.94,0,0,0-.46-1,1,1,0,0,0-1.37.36l-2.19,4.43h0a1.63,1.63,0,0,0-.11.23,1,1,0,0,0,.1.77,1,1,0,0,0,.48.41,1,1,0,0,0,1.24-.41l.34-.68A6.49,6.49,0,0,1,37,58l0,0,0,0h0l0,0,.07-.08c.07-.08.14-.17.22-.25s.32-.32.5-.47l.11-.09.27-.19c.19-.13.39-.24.59-.35l.28-.13.14-.06a5.6,5.6,0,0,1,.7-.2A1,1,0,0,0,40.57,54.87Z"/><path class="cls-3" d="M37,58l0,0,0,0Z"/><path class="cls-3" d="M84.62,42.89l-5.29.49a1,1,0,0,0,0,2l5.29-.49a1,1,0,0,0,1-1A1,1,0,0,0,84.62,42.89Z"/><path class="cls-3" d="M84.57,48.65a37.63,37.63,0,0,0-7.9-1.91,1,1,0,0,0-1,1,1,1,0,0,0,1,1A34.58,34.58,0,0,1,84,50.58a1,1,0,0,0,1.23-.7A1,1,0,0,0,84.57,48.65Z"/><path class="cls-3" d="M78.22,51.53a2.35,2.35,0,0,0-1.87-.93l-.1-.09a15.69,15.69,0,0,0-1.81-1.19,1,1,0,0,0-1.37.36h0a.89.89,0,0,0-.51.85,1.79,1.79,0,0,0,.54,1.25,2,2,0,0,0,1.05.46l1.27.21c.06.06.12.11.18.18l.05.06v0a1.08,1.08,0,0,0,.18.24,1.7,1.7,0,0,0,.58.52,1.36,1.36,0,0,0,1.73-.33A1.44,1.44,0,0,0,78.22,51.53Z"/><path class="cls-3" d="M75.68,52.73l0,0C75.73,52.84,75.73,52.78,75.68,52.73Z"/><path class="cls-3" d="M110.52,107.67a3.67,3.67,0,0,0-2.74.21s-.07.07-.1.09a1.53,1.53,0,0,0-1.09.48c-.76.79-.49,1.89-.25,2.84a22,22,0,0,0,.91,2.74,1,1,0,0,0,1.23.7l.12,0a1,1,0,0,0,1,.23l.15,0a.93.93,0,0,0,.71-.11.89.89,0,0,0,.31-.3,4.21,4.21,0,0,0,1.26-.82,3.83,3.83,0,0,0,1-2.26A3.51,3.51,0,0,0,110.52,107.67Z"/></g><g id="Capa_1" data-name="Capa 1"><path d="M146.62,116.42c-.19-.1-.4-.18-.6-.27a5.66,5.66,0,0,1-.82-.4c-1.77-1.82-2.33-5-3-7.56l0-.1-.19-.35c-.31-.61-.53-1.26-.85-1.86s-.66-1.2-1-1.79a21.46,21.46,0,0,1-1-1.91l-.08-.2a5.89,5.89,0,0,0-3.5-2,31.33,31.33,0,0,0-10.31-.72c-1.78.25-3.71.61-5.21-1.29a2.84,2.84,0,0,0-1.81-.71,3,3,0,0,1-2-.77c.15-.62.33-1.22.44-1.85,0-.16-.07-.33-.1-.53s0-.54-.06-.81a1.16,1.16,0,0,0,0-.18l-.06-.11a.69.69,0,0,0-.11-.13,1.26,1.26,0,0,0-1.53.07A10.61,10.61,0,0,0,113,94.76a2.1,2.1,0,0,1-2.52.9,4.64,4.64,0,0,0-3.17.3c-1.66.61-3.3,1.21-4.29-1.42-.43-1.13-1.44-.79-2.3-.42s-1,1.12-.87,2a3.88,3.88,0,0,0,1.06,2.41,1.37,1.37,0,0,1-.11,2.26,5.26,5.26,0,0,0-.62.71c-1,1.27-1,2.56,0,3.43h0a7.21,7.21,0,0,0,.72.51,9.87,9.87,0,0,0,1.19.3c.62.06,1.24,0,1.86,0a1.55,1.55,0,0,1,1.59,1.89c-.22,2.18,0,4.39-.15,6.51-.39,4.76-.23,9.61-1.62,14.25-.69,2.29.64,3.81,2.68,3.43,1.87-.35,2.85-1.58,3-3.94a23.34,23.34,0,0,1,1-6.67c.17-.48.36-1,.9-.82a1,1,0,0,1,.57,1,23.21,23.21,0,0,1-.51,6.05c-.09.49-.18,1-.25,1.46a2.53,2.53,0,0,0,.24,1.9,3.65,3.65,0,0,0,1.63,1c.34.12.7.22,1.06.31,1.47,0,2.54-1.31,2.88-3.42a31.36,31.36,0,0,0,.28-4.54c0-.85,0-2.07.55-2.35,1.42-.72,2.52-2.28,4.15-2.4a19.63,19.63,0,0,0,6.58-1.21c.65-.28,1.25,0,1.25.83,0,2.26.54,4.54-.21,6.77-.5,1.49-1,3-1.38,4.51a1.83,1.83,0,0,0,.78,2.32,4.64,4.64,0,0,0,2.81.74l0,0,.6-.06h.09a3.94,3.94,0,0,0,.93-.61,3.24,3.24,0,0,0,.69-1.21h0c.05-.12.09-.26.14-.39l.12-.45a8,8,0,0,0,.21-2.11c0-.59-.1-1.18-.1-1.77a7.75,7.75,0,0,1,.36-3.12,6.41,6.41,0,0,1,1.88,4.79c0,.61,0,1.11.06,1.56a1.63,1.63,0,0,1,.08.7c.06.15.12.29.17.44a3.67,3.67,0,0,1,.14.87c.43.65,1.32.55,3.29.31,1.67-.21,2-.62,1.64-2.58,0-.1,0-.2-.05-.3a26.51,26.51,0,0,1-.68-3.64c-.23-1.15-.49-2.29-.83-3.41a25.06,25.06,0,0,1-.7-9.49,1.52,1.52,0,0,1,.8-1.52c.19,1.65,1.33,2.67,1.66,4.28a3.79,3.79,0,0,0,4.12,2.82c.44-.08.88-.2,1-.79A1.16,1.16,0,0,0,146.62,116.42Zm-42.35-12.35a3.6,3.6,0,0,1-.65,0c-.75-.07-1.68.21-2-1a2.82,2.82,0,0,1,1.58-2.85,6.42,6.42,0,0,0,2.61-1.7,5.75,5.75,0,0,1,3.51-1.76A1.62,1.62,0,0,1,111.23,98c.56,1.58,1,1.82,2.48,1.2a6.85,6.85,0,0,1,3.38-.52,1,1,0,0,1,1,.73c-.44.62-1.12.3-1.67.39-2,.35-2.73,1.42-2.41,3.81a15.11,15.11,0,0,1,.15,2.51,2.11,2.11,0,0,1-.48,1.43,7.79,7.79,0,0,0-5-1.16,1.17,1.17,0,0,1-1.28-.73C106.72,104.1,105.54,104,104.27,104.07Zm8.44,7.7c-.11,1.38-1.85,3.06-3.07,3s-2.5-2-2.45-3.87,1.11-3.12,2.72-3.07S112.86,109.88,112.71,111.77ZM133,129.86c0,.76-.39,1.44-1.25,1.38s-1.11-.78-1.16-1.72c-.08-1.7.49-3.29.55-5a34.51,34.51,0,0,1,.53-3.71c1-.09,1.51.4,1.59,1.5A55.49,55.49,0,0,1,133,129.86Zm7.33-1.54a3.34,3.34,0,0,1-.24,2.87.65.65,0,0,1-1,.19,2.84,2.84,0,0,1-.95-2.61,10.84,10.84,0,0,0-4.74-9.27,32,32,0,0,1-3.06-2.77c-1.76-1.75-1.91-3.81-1.18-6.16.14-.47.32-.93.42-1.42a.83.83,0,0,0-.36-.85c-.33-.24-.54,0-.69.32s-.43.88-.63,1.33a9.11,9.11,0,0,0-.33,5.44c.23,1.23-.15,1.62-1.09,1.9a14.6,14.6,0,0,1-6.85.37c-1.27-.22-1.53-.53-1.26-2a18.06,18.06,0,0,1,1.28-4.28,2.86,2.86,0,0,0,.12-2.89c-.52,1.83-1.61,2.71-2,4.23a56.85,56.85,0,0,0-2,13.89,6.2,6.2,0,0,1-.58,2.67,1.22,1.22,0,0,1-1.43.84c-.73-.17-.86-.82-.82-1.54.09-1.51.17-3,.3-4.53a14,14,0,0,0-.07-4c-.35-1.66-1-2-2.4-1.37s-1.83,1.86-2.1,3.28c-.32,1.64-.49,3.32-.71,5a4.68,4.68,0,0,1-.52,1.91c-.25.4-.57.82-1.06.72s-.61-.68-.58-1.17c.19-4.19.41-8.39.62-12.53.75-.23,1.23.29,1.77.4,1.77.37,3.59.35,4.75-1.48a14.23,14.23,0,0,0,2.65-6.79c.1-1.51.35-3,.42-4.52s1.59-2.52,2.54-1.3c1.59,2,3.71,2.44,5.7,3.34a8.73,8.73,0,0,0,7.36-.23c1.36-.58,2.85-1.08,3.63-2.54s1.14-.84,1.77-.11c.43.49.84,1,1.3,1.46a6.65,6.65,0,0,1,1.14,3.81,47.47,47.47,0,0,0-.94,10.79C138.51,122.05,139.52,125.16,140.28,128.32Z"/><path d="M199.78,112.28A71.69,71.69,0,0,0,192.9,102c-2.33-2.78-4.91-5.2-7.32-7.84a2.75,2.75,0,0,1-.9-2.14c.13-4.11.82-8.14,1.16-12.22.25-3.07.75-6.14,1.07-9.24.43-4.18.4-8.17-1.46-11.93-.55-1.11-.23-2.66-.89-3.58s-2.2-.53-3.22-1.21a4.8,4.8,0,0,0-.6-.3c-5.6-2.63-11.19-5.3-17.08-7-3.84-1.1-7.69-2.18-11.19-4.46-.78-.51-13.85-2.84-18.38.59S124,49.33,123.24,54.35A33.61,33.61,0,0,1,122,57.84c-.42,1-1,.95-1.63,0-1-1.51-1.75-1.93-3.24-1.24a8.07,8.07,0,0,1-3.8.69c-2.36-.07-4.75.11-7-.83-1.25-.52-3,.37-3.74-1.73-.08-.22-.69-.32-1-.24-1.21.35-2.87-.43-3.4,1.77-.08.37-.45.37-.73.4-1.44.12-2.78.79-4.25.8-1.72,0-3.44.27-5.16.45a3.34,3.34,0,0,0-.8.17,12.66,12.66,0,0,0-3.12.41,3,3,0,0,0-1.4-.65c-1.64-.29-3.18-.16-4.37,1.38a2.11,2.11,0,0,1-1.52.74,76.39,76.39,0,0,0-8.48,1.76,5.11,5.11,0,0,1-3.47-.2c2-2.76,3.41-5.73,5.54-8.05a1.7,1.7,0,0,1,2.09-.62c1.55.55,3.09,1.16,4.67,1.56.34,0,.71,0,1,0,.63,0,1.25,0,1.87,0s1-.73.7-1.12a11.75,11.75,0,0,1-1-1.37c-.3-.46-1.66-2.14-1.66-2.14l2,.71c1.22.24,2.42.23,3.62.49a22.37,22.37,0,0,0,6,.7c.58,0,1.23-.18,1.32-1s-.56-1.09-1.11-1.27c-1.67-.53-3.34-1-5-1.52a3.72,3.72,0,0,1-2.11-1.25A19.69,19.69,0,0,1,88.32,45c1-.18,2-.28,3-.51A.93.93,0,0,0,92,43.37a.77.77,0,0,0-.8-.69c-1.58,0-3.11-.42-4.72-.27-2.33.21-4.73.79-7-.64-.51-.33-1.13-.12-1.7-.05a30.29,30.29,0,0,0-8.45,1.92c-.82.35-1.29.3-1.69-.7-.68-1.65-2.1-2.75-2.47-4.67A1.6,1.6,0,0,0,64,37.12c-2-.47-3.92-1-5.81.55a22.7,22.7,0,0,1-3.84,2.7c-2.55,1.27-3.23,3.81-2.12,6.9a.79.79,0,0,1-.15,1l-10.19.58a5.6,5.6,0,0,0-3.65,1.94c-3.53,2.1-4.06,6.95-4.05,11.2a2.79,2.79,0,0,0,.18.68.57.57,0,0,0,.42.35.73.73,0,0,0,.59-.23,5.56,5.56,0,0,0,.62-.66c.18-.22.35-.46.53-.68a14.16,14.16,0,0,1,1.06-2,11.17,11.17,0,0,1,1.19-1.59,5,5,0,0,1,.68-.63c.16-.13.34-.24.5-.37l0,0a3.25,3.25,0,0,1,.23.29l0,0,0,0,.09.16a3,3,0,0,1,.16.36l0,.06,0,0,.06.21v0A11.92,11.92,0,0,1,40.3,64c0,.08,0,.17,0,.26a4.28,4.28,0,0,0-.09,1.34.29.29,0,0,0,0,.09h.26l.15,0,.25-.08.29-.12.14-.07c.14-.07.28-.14.41-.22.29-.17.57-.35.85-.54l.09-.08A8.15,8.15,0,0,0,46.05,60a1.34,1.34,0,0,1,.93.29c1.13.74,2.34,1.29,3.48,2A13.85,13.85,0,0,1,55,67.2c-2.72,1.65-5.55,2.28-8.3,3.22a.64.64,0,0,1-.92-.38c-.71-2.2-2.23-1.26-3.49-1.21a.94.94,0,0,0-.44.16,4.59,4.59,0,0,0-3,1.87l0,.09a2.12,2.12,0,0,0-.36.86c-.29,2.33-2,2.42-3.23,3.1-1,.52-2.09.57-3.11,1-2.58,1.15-5.17,2.31-7.83,3.19a4.86,4.86,0,0,0-1.14.07A4.06,4.06,0,0,0,19,82.06a.75.75,0,0,0-.15.44c0,1.82-1.2,2.7-2.16,3.56-2.47,2.2-4.69,4.7-7,7.14-1,1.06-1.81,2.61-3.19,2.9-2.21.47-3.23,2.38-4.24,4.3a6.61,6.61,0,0,0-1.14,4.24A6,6,0,0,1,.55,108c-.47,1.07-1,2.39,0,3.49A66,66,0,0,0,6,117.31,84.41,84.41,0,0,0,15.09,124a64,64,0,0,0,20.54,8.91,18.14,18.14,0,0,0,3.83.64,1.93,1.93,0,0,1,2.14,1.54c.27.89,3.18,2.87,3.26,2.89a14.46,14.46,0,0,0,4.37.85,4.51,4.51,0,0,0,3.13-1.68,4,4,0,0,1,2.38-1.46c2-.44,2.89-2.61,1.85-4.73-.71-1.46-1.17-2.71-.33-4.33a3,3,0,0,0-.1-2.45,1.58,1.58,0,0,1,0-1.61,17.68,17.68,0,0,1,3.32-4.62c.57-.53,1.15-1,2-.52,1.49.83,3,.33,4.41-.28,3-1.28,4-3.92,2.9-7.44-.2-.66-.47-1.23,0-1.87a1.46,1.46,0,0,0,.1-1.63c-.15-.29-.3-.73,0-.91,1.15-.79,1.45-2.43,2.59-3.29,1.58-1.19,3.24-2.12,4.88-3.14a4.08,4.08,0,0,1,2.56-.71c2.22.08,4.47.07,6.4-1.57a3.45,3.45,0,0,0,1.19-3.71c-.15-.75-1-1.23-.5-2.28s1.3-1,1.94-1.45c.36-.27.72-.56,1.09-.81a12.11,12.11,0,0,1,4.9-1.87c.46-.07.89-.14,1,.54.24,1.32,1.15,1.37,2,1.45a8.7,8.7,0,0,0,5-1.08,3,3,0,0,0,1.75-2.11,4.89,4.89,0,0,1,.44-1.47c0-.09-.07-.16-.1-.25a9.27,9.27,0,0,1-.27-1.69,42.72,42.72,0,0,1,15.66-.09c.12,3,1.23,4.2,3.76,4.29a14.41,14.41,0,0,1,3,.27,44.46,44.46,0,0,0,7.92,1.13,118,118,0,0,1,19.66,2.77,26.47,26.47,0,0,0,4.91.5l.41,0,4.06.68,5.92,1.24,5.84,1.21a16.6,16.6,0,0,0,4.74.54,7.67,7.67,0,0,0,3.5,0c.89-.23,1.55.37,2.12,1,2.68,2.93,5.59,5.6,7.92,8.94.8,1.15,1.65,2.27,2.39,3.56a8,8,0,0,1,2,2.82,4.61,4.61,0,0,1,.11,3.14.29.29,0,0,1,0,.1,1.47,1.47,0,0,0-.1.13,6.58,6.58,0,0,1-1.18,2c-.82,1-1.69,1.86-2.57,2.73l-.35.43a18.92,18.92,0,0,1-1.26,1.42,9.5,9.5,0,0,1-3.48,3.29l0,0c-3.38,2.7-6.5,5.53-10.08,7.58a4.41,4.41,0,0,1-.43.22,23.5,23.5,0,0,1-3.93,2.17,4.57,4.57,0,0,1-.65.45,51.88,51.88,0,0,1-9.77,4.7c-3.33,1.06-6.67,2.09-10,3a65.73,65.73,0,0,1-15.79,2.38c-2.5,0-5,.1-7.48.18a28.26,28.26,0,0,0-3.07.2,16.4,16.4,0,0,1-2.88.25l-1,0-.2,0c-.41,0-.81.05-1.21.08l-.13,0a1.25,1.25,0,0,1-.66,0,80.12,80.12,0,0,1-10.51-.08q-3-.21-6-.39c-.39,0-.76.05-1.12.05a11.38,11.38,0,0,1-3.29-.34c-2.41-.16-4.82-.32-7.23-.52-4.66-.38-9.32-1-14-1.5-1.86-.21-3.72-.47-5.55-.85l-.11,0A13.47,13.47,0,0,1,70,140.26a4.61,4.61,0,0,1-1.55-.39c-1.36-.52-2.69-1.18-4-1.72a46.63,46.63,0,0,0-6.81-2.3c-.48-.12-1.07-.17-1.17.67a1,1,0,0,0,.65,1.16c2.17.85,4.32,1.8,6.52,2.53a77.49,77.49,0,0,0,18.19,4c4.66.36,9.3,1.15,14,1.44,1.56.1,3.12.16,4.68.25a0,0,0,0,1,0,0c.2,0,.4,0,.6,0h0c2.19.12,4.37.25,6.55.34,3.09.14,6.18.32,9.27.26,4.54-.08,9.06-.49,13.59-.63a131.91,131.91,0,0,0,16.36-1.16,84.71,84.71,0,0,0,18.66-5.07,80.43,80.43,0,0,0,26.83-17.43,66.41,66.41,0,0,0,7.26-8.27C200,113.4,200.19,113,199.78,112.28ZM38.92,55.7c-.59.7-1.35,1.19-1.94,1.89a5.28,5.28,0,0,0-.35.56,9.62,9.62,0,0,0-1.06,1.39A12.29,12.29,0,0,1,36,56.65a7.6,7.6,0,0,1,1.17-2.47c.32-.4.71,0,1,.17a2.42,2.42,0,0,1,.78.75A.68.68,0,0,1,38.92,55.7Zm145,5.47a17.75,17.75,0,0,1-3.45-5.73C182.62,55.84,183.91,57.88,183.92,61.17Zm-4.67-5.64A15.79,15.79,0,0,0,181,59.18l-.44.38c-2.25-1.35-2.93-4.18-4.25-6.46C177.67,53.31,178.85,53.51,179.25,55.53ZM177.3,58c-1.42-.44-2.36-.53-2.9-2.16s-1.67-2.7-2.54-4a1.52,1.52,0,0,1-.44-1.07C173.57,51,175,52.77,177.3,58ZM170,51a33.46,33.46,0,0,0,3.66,5.19c-2.21-.41-3.63-1-4.39-3.07-.49-1.36-1.67-2.26-2.3-3.77A2.56,2.56,0,0,1,170,51Zm-4.62-1.67a31.68,31.68,0,0,0,3.07,4.53c-2.06.41-2.49.13-3.3-1.73A11.38,11.38,0,0,0,164,50.39c-.4-.59-.82-1.16-1.2-1.77a3.32,3.32,0,0,1-.19-.82A2.32,2.32,0,0,1,165.42,49.37Zm-4.27-1.24a12.29,12.29,0,0,0,1.9,2.69c.44.63,1.14,1,1.37,2.14a3.64,3.64,0,0,1-3.59-2.39,32.33,32.33,0,0,0-2.63-4C159.62,46.56,160.57,46.5,161.15,48.13Zm-4.09-1.19c.64,1.67,2,2.78,2.64,4.49a32,32,0,0,1-5.83-6.36C155.4,45.09,156.46,45.39,157.06,46.94Zm-39,10.73a.9.9,0,0,1,.88,1.14c-.09.7-.38,1.31-1.09,1.22a1.32,1.32,0,0,1-1.26-1.37C116.67,57.88,117.45,57.73,118.05,57.67ZM101.3,55.79c.38.05.66.26.66.84A1.57,1.57,0,0,1,100.47,58c-.4-.05-.61-.36-.62-.83A1.33,1.33,0,0,1,101.3,55.79ZM83.13,60.1c.48.38.79.77.56,1.4s-1,1.18-1.37.75c-1-1-2.24-.66-3.34-1.19C80.58,58.66,81.17,58.56,83.13,60.1Zm-15,4.38a1.61,1.61,0,0,1,1.42-1.59q3.63-.59,7.26-1.2c.29,0,.61-.13.81.14,1.09,1.49,2.79,1,4.14,1.78s3.12-.73,3.3-2.26A3.52,3.52,0,0,0,85,60.13a6.1,6.1,0,0,0,1.46-.35c2.93-.36,5.77-.7,8.6-1.07,1.28-.17,2.81-.58,3.77.14,1.37,1,2.33.54,3.35-.22a3.23,3.23,0,0,1,3.26-.54c2.79,1,5.69.95,8.56.94a1.91,1.91,0,0,1,2,.93c1.12,1.66,2.12,1.69,3.71.47a2.5,2.5,0,0,1,.73-.48c1.07-.32,1.44.1,1.19,1.4-.28,1.48-1,2.82-1,4.38a2.87,2.87,0,0,1-.4,1.72l-6-.89a22.56,22.56,0,0,0-2.81-.38,5.63,5.63,0,0,0-.58,0,3.93,3.93,0,0,0-.71-2.71.5.5,0,0,0-.39-.17c-1.57.44-3.55.18-4.45,2s-2.07,1.87-3.37,2-2.73.13-4.1.19a9.49,9.49,0,0,0-2.78.18c-1.23.43-2.16.56-2.82-1a1.66,1.66,0,0,0-1.83-1.08,37,37,0,0,0-4.6,1.2,2.59,2.59,0,0,0-1.62,1.91,3,3,0,0,1-2.57,2.35c-2.58.38-5,1.35-7.57,1.93-1.32.3-1.82-.16-2-1.72-.24-1.81-.29-1.83-1.84-1.94A3.47,3.47,0,0,0,66.67,71a7,7,0,0,1-2.33,2.15,3.76,3.76,0,0,0-1.75,2.7A4.51,4.51,0,0,1,58.21,80c.27-1.33.42-2.65.57-4,.17-1.54.33-3.23,1.93-3.9a1.55,1.55,0,0,0,.76-1.18,16.45,16.45,0,0,1,1.06-2.45c.38-1.15.82-1,1.64-.66,1.65.75,2.55.31,3.37-1.48A6.43,6.43,0,0,0,68.16,64.48Zm41,2.27c0,.69-1,1.55-1.93,1.53A1.21,1.21,0,0,1,105.9,67a2.68,2.68,0,0,1,2.1-2.12C108.45,64.9,109.14,66,109.14,66.75ZM91.53,69.29c-.21,1-.62,1.39-1.43,1.2s-1.77-.26-1.9,1.24c0,.19-.22.51-.36.53a2.3,2.3,0,0,1-1.94-.88,2.09,2.09,0,0,1-.5-2.28,1.6,1.6,0,0,1,1.52-1.2c.77.06,1.53.4,2.27-.19.19-.15.45,0,.46.29C89.7,69.58,91,68.5,91.53,69.29ZM69.42,73.35c.37,0,.73.08,1.08.08.55,0,1,.13,1.16.84s-.14,1.52-.72,1.66A3.45,3.45,0,0,0,68.7,78a1.19,1.19,0,0,1-1.35.59c-.64-.1-1.26-.36-1.89-.44-2.09-.27-2.27-2.42-.85-4a9,9,0,0,1,1.81-1.35C67.27,72.2,68.33,72,69,71a.66.66,0,0,1,1.14,0c.29.41,0,.76-.3,1A1.24,1.24,0,0,0,69.42,73.35ZM65,63c.81.16,2,1.4,1.92,2.05C66.85,66,65.8,67.12,65,67a1.45,1.45,0,0,1-1.37-1.56C63.61,64.27,64.42,62.9,65,63ZM78.25,52.85c-2.24.1-3.81-1.23-5.63-1.75,1.27-1.84,1.28-1.86,2.82-1A5.68,5.68,0,0,1,78.25,52.85Zm7.36-9.1a11.5,11.5,0,0,1-6,1.56C81.29,43.29,83.57,44.15,85.61,43.75Zm-1,5.65a31.5,31.5,0,0,1-8.48-1.56C78,47.26,80.7,47.77,84.62,49.4ZM61.24,38c1.46,0,2.51.62,2.57,1.59s-.85,1.59-2.49,1.56c-1.36,0-2.34-.64-2.4-1.53S59.91,38,61.24,38Zm-4,4.7c.22-.59.6-.65,1-.36a5.13,5.13,0,0,0,4.59.32c.32-.1.77-.27.93.24a1.11,1.11,0,0,1-.43,1.29,3.85,3.85,0,0,1-2.45.84,12.72,12.72,0,0,1-3.29-1.09A.89.89,0,0,1,57.25,42.7Zm-1.2-1.61c.52.79,0,1.41-.23,2.07a1.64,1.64,0,0,0,.63,2.12,7.31,7.31,0,0,0,7.65.77c.82-.36,1.11-1.24,1.52-2.45,1.1,2.93.68,4.08-1.36,4.73a11.39,11.39,0,0,1-7.85-.12,4.59,4.59,0,0,1-2.61-2.09C52.73,44.06,53.62,42.05,56.05,41.09ZM43.89,60.54a4.09,4.09,0,0,1-1.81,2.36c.18-1.73.35-3.28.53-5.06C44.59,58.84,44.58,58.84,43.89,60.54Zm9.46,2.22a9.87,9.87,0,0,0-2.56-1.85,63.94,63.94,0,0,1-9.49-6.44c-.75-.6-1.75-1.24-1.52-2.52a2.18,2.18,0,0,1,2.35-1.76c3-.19,6-.3,8.3-.41,3,.09,5.27,0,7.55.68A11,11,0,0,0,64.6,50a4.64,4.64,0,0,0,3.31-3.88c.13-.69.25-1.23,1-1.41a35.21,35.21,0,0,1,7.42-1.53,7,7,0,0,1,1.29.06.79.79,0,0,1,.49.41.65.65,0,0,1-.26.84C76.62,45,76,46.26,75,47.06a38.42,38.42,0,0,0-8.09,9.37c-1.28,2-2.82,3.83-3.82,6.1-.83,1.87-1.23,4-2.29,5.7s-1.28,1.84-2.34.27A48.4,48.4,0,0,0,53.35,62.76Zm3,16a1.3,1.3,0,0,1-.51-1c-.23-2.12.41-4.14.54-6.22,0-.35.24-.64.56-.6a1,1,0,0,1,.52.39,2.36,2.36,0,0,1,.31.66C58.39,73.53,57.59,77.34,56.37,78.72ZM39.91,71.51l.06-.08,0,0a2.82,2.82,0,0,1,.36-.28l.22-.13.16-.08c.47-.2,1-.35,1.43-.53l.3,0c.36,0,.71-.18,1.06-.2a.6.6,0,0,1,.65.53.56.56,0,0,1-.46.69,1.12,1.12,0,0,0-1,1.38c.12.75-.14,1.14-.73,1.25a2,2,0,0,1-2.19-.66A1.55,1.55,0,0,1,39.91,71.51ZM20.21,83.36a2.57,2.57,0,0,1,1.84-2.22,8.34,8.34,0,0,1,1.8-.17c1-.23,1.83-.15,1.4,1.6a1.34,1.34,0,0,0,.28.9c.78,1.42.7,1.66-.48,2.29a3.41,3.41,0,0,1-3.33-.22C20.93,85.14,20.08,84.57,20.21,83.36Zm-17.47,20C3,101.17,5.33,97.68,7,97.18c.47-.14,1.08-.44,1.22.44s.71,1,1.41,1.12c1.27.13,1.43.44,1.28,1.89-.42,4-3.42,5.82-5.63,5.77C3.22,106.33,2.55,105.51,2.74,103.37ZM16.5,122.18c-.66.5-1.1.59-1.73.16-4.3-2.9-8.53-5.9-12-10.18A8.76,8.76,0,0,1,2,111a2.55,2.55,0,0,1-.29-2.37,1.44,1.44,0,0,1,1.85-.87,6.9,6.9,0,0,0,5-.79c2.66-1.56,3.6-4.2,3.89-7.35a2.73,2.73,0,0,0-1.24-2.47C9.66,96,9.71,96,10.78,94.23,12.7,91.07,15.38,89,18,86.77a2.18,2.18,0,0,1,3-.16,4.08,4.08,0,0,0,4.92.09A3.14,3.14,0,0,0,27.43,83c-.61-3.37-.56-3.39,2.18-4.75A50.74,50.74,0,0,1,35,76.51,13.87,13.87,0,0,0,36.67,76a5.23,5.23,0,0,1,4.44-.69,3,3,0,0,0,3.45-1.51,4.3,4.3,0,0,1,2.23-1.86c2.53-1,5.09-1.79,7.65-2.64a.78.78,0,0,1,1,.25,31.49,31.49,0,0,1-1,7.5c-.51,2.58-.44,2.86,1.54,4.23-1,1.13-5,3.46-7.4,4.24-.57-.64.11-1.9-.81-2.4a3.52,3.52,0,0,0-2.54-.23A25.69,25.69,0,0,0,41.83,84a1.55,1.55,0,0,0-.91.63c-1.26,2.73-3.79,4.74-3.67,8.25a2.54,2.54,0,0,1-1,2.31,40.77,40.77,0,0,0-3.94,3.53,2.2,2.2,0,0,1-1.77.79,2.1,2.1,0,0,0-1.06,0c-.49.23-1.32.32-1.17,1.18s.9.47,1.43.39a7.64,7.64,0,0,1,1.06-.21c1.09,0,1.57.62,1.48,1.9a2.72,2.72,0,0,1-2.87,2.8c-.55,0-1.07,0-1.26.64s.27,1,.78,1.25a2.23,2.23,0,0,1,1.36,2.31c-.06,1.54-.65,2.39-2,2.64-.67.13-1.4.17-1.35,1.21s-.08,1.9-1,2.26a3,3,0,0,1-3.13-.08,16.78,16.78,0,0,0-2.21-1.45,1.91,1.91,0,0,1-.85-2.33c.28-1.07,1-1.07,1.75-.79a3,3,0,0,0,.85.1.85.85,0,0,0,.84-.65c.17-.5-.13-.76-.45-1-.13-.08-.26-.14-.39-.23-.62-.42-1.37-.8-1.12-1.88s.85-2,2-2h.22c.58,0,1.24,0,1.42-.79s-.59-1-1-1.37c-1.13-1-1.16-1.8,0-2.7a8.83,8.83,0,0,1,2.57-1.28,3.39,3.39,0,0,0,2.28-1.28c-2.63.29-4.74.79-6.47,2.56a2.33,2.33,0,0,0-.65,2.7,1.26,1.26,0,0,1-.43,1.69,4,4,0,0,0-1.39,3.25c0,.74-.41,1.19-.72,1.75a4.38,4.38,0,0,0,.42,5.19c.3.4.58.73.33,1.3C18.9,118.68,18.25,120.83,16.5,122.18ZM43.33,91.31c.17.27.38.5.55.78a1.11,1.11,0,0,1-.33,1.67c-1.13.79-4.08.1-4.79-1.12a1.66,1.66,0,0,1-.1-1.45,4.92,4.92,0,0,1,1.61-2.6c.73-.46,1.68-.78.86-2.2-.27-.45.26-1,.68-1a8.57,8.57,0,0,0,3.92-1.19.71.71,0,0,1,1,.27,1.24,1.24,0,0,1-.12,1.4,4.35,4.35,0,0,1-.7.57c-.37.32-1.11.34-.93,1.15.23,1,.92.4,1.09.41,1-.12,1.74-.08,1.94.82A2.23,2.23,0,0,1,47.18,91c-.61.52-1.21.33-1.68-.41a3.43,3.43,0,0,0-.73-.9A1.07,1.07,0,0,0,43.2,90C42.84,90.39,43.05,90.89,43.33,91.31Zm10.81,43.13a1.8,1.8,0,0,1-1.89-.85c-.55-.73-1.21-.19-1.74.26s-.13.69.07,1.06c.81,1.51.57,2.17-.93,2.38a6.93,6.93,0,0,1-1.82,0,8.75,8.75,0,0,1-5.14-3.45,5,5,0,0,1,1.67-6c.31-.21.67-.56,1-.29,1.42,1.2,1.92.18,2.6-1.16,1.56-3.06,4.11-3.61,6.37-1.66a2.08,2.08,0,0,1,.65,2,1.6,1.6,0,0,1-1.15,1.62c-.42.11-.86.14-1.27.28a1,1,0,0,0-.69,1.13c0,.64.47.78.95.73a5.62,5.62,0,0,1,1.28-.13c.76.08,1.43,1.35,1.44,2.51A1.44,1.44,0,0,1,54.14,134.44Zm12.78-19.12a5.27,5.27,0,0,1-3.05,1.37c-1.92,0-3.28-1.5-3.34-3.65a1,1,0,0,0-.67-1.05c-1.44-.62-1.69-1.43-1-2.93a8.35,8.35,0,0,1,.8-1.17c.76-1.1,1.79-1.85,2.53-3,1.11-1.76,3.45-1.48,4.66.26,1,1.38.85,1.93-.49,2.79a4.51,4.51,0,0,0-.87.71,1,1,0,0,0-.25.64.52.52,0,0,0,.62.53c.9-.17,1.81-.29,2,1.11C68.09,112.5,68.15,114.14,66.92,115.32Zm34.55-29.06a7.2,7.2,0,0,1-4.85.77,1.25,1.25,0,0,1,.46-1.1c.63-.73.58-1.31-.32-1.64-.07,0-.15,0-.21-.05-1.72-.78-2.32-1.78-2.14-3.5A3,3,0,0,1,97.09,78a9,9,0,0,0,2.51-.42c.78-.26,2.16.79,2.44,1.67a1.43,1.43,0,0,1-.39,1.57c-.34.3-.73.52-1.05.85a.83.83,0,0,0-.15.92.61.61,0,0,0,.53.28c.71-.11,1.53-.44,1.74.76A2.4,2.4,0,0,1,101.47,86.26Zm18.76-15.59c-.2,1.25-.4,2.5-.61,3.75,0,.13,0,.27,0,.41-.12,1.17-.19,2.34-.23,3.52l0,0c0,.6,0,1.28,0,2a46.1,46.1,0,0,0-16.19.12c0-.06,0-.11,0-.18.31-2.25-.94-4.15-2.8-4-1.61.14-3.23.15-4.77,1.15-2.59,1.69-3.06,2.46-2.3,5.82.22,1,0,1.41-.65,1.77-1.25.65-2.52,1.25-3.74,2s-2.23,1.63-3.06-.49c-.12-.3-.59-.49-.93-.59a9.52,9.52,0,0,0-4.71-.17,1.28,1.28,0,0,0-1.16,1.45c.61.29,1-.12,1.49-.3a5.73,5.73,0,0,1,3.2-.2,1.7,1.7,0,0,1,1.53,1.79,1.94,1.94,0,0,1-1.47,2.16,9.23,9.23,0,0,0-1.27.26.77.77,0,0,0-.58.9c.07.41.4.4.68.43a3.56,3.56,0,0,0,.65,0c.83-.08,1.62,0,1.92,1.13a2.51,2.51,0,0,1-1,2.59c-1,1-2.29.9-3.51.94-2.62.08-2.62.08-3.52-2.78,0-.08-.09-.14-.12-.21-.74-2-.74-2,.57-3.34.32-.32.8-.47.73-1.12a.64.64,0,0,0-.76-.3,4.23,4.23,0,0,0-2.33,5.14,3.13,3.13,0,0,1-.67,3.54c-1.5,1.89-3.46,3-5.1,4.64-.91.9-1.81,2.5-3.06.4a.92.92,0,0,0-.8-.29c-2,.21-4.06.4-5.42,2.52a12.07,12.07,0,0,1-1.77,2.17,4.65,4.65,0,0,0-.36,6c1.5,1.64,1.5,2,.3,4-.91,1.51-2.28,2.59-3,4.3a1.57,1.57,0,0,1-2.08,1.13,5.42,5.42,0,0,0-5.26,1.51,6.34,6.34,0,0,1-2,1.38A7.72,7.72,0,0,0,41.35,130a2.8,2.8,0,0,1-.75,1.85,2.46,2.46,0,0,1-1.88.36,14.8,14.8,0,0,1-2.46-.46l-.21-.06a5.83,5.83,0,0,1-.72-.18c-4.62-1.26-9.23-2.54-13.56-4.9-.71-.39-1.43-.78-2.13-1.21a.65.65,0,0,0-.15-.18c-.13-.1-.26-.2-.38-.31l-.08-.07,0,0-.17-.18a2.6,2.6,0,0,1-.3-.36v0l-.07-.11c0-.07-.07-.14-.1-.22l0-.07v0l-.06-.23v-.06h0a.09.09,0,0,1,0,0s-.12-1.07,1.13-3A17.67,17.67,0,0,1,21,118.3a2.19,2.19,0,0,1,2.24-1,5,5,0,0,0,5.47-2.65,3.7,3.7,0,0,1,1-.94c1.72-1.36,2.11-3.43,1.78-5.56a2.49,2.49,0,0,1,.63-2.37,5.48,5.48,0,0,0,1.33-5.26,1.47,1.47,0,0,1,.46-1.55,16.87,16.87,0,0,1,2.69-2.53c1.52-1,3-1.87,4.88-1.18a3,3,0,0,0,3.38-1.11,9.38,9.38,0,0,1,2.85-2.2,2.82,2.82,0,0,0,1.73-3.11A2.25,2.25,0,0,1,50.5,86.6c3.62-2.82,7.6-4.74,11.54-6.79A3.9,3.9,0,0,1,66,79.69,2.75,2.75,0,0,0,69,79.38a9.21,9.21,0,0,0,3.88-3.89,1.61,1.61,0,0,1,1.13-1c1.95-.58,3.87-1.32,5.83-1.84s4.07-.88,6,.52a2.8,2.8,0,0,0,2.91.37c1.46-.73,3-1.48,3.83-3.14a2.57,2.57,0,0,1,2.65-1.58c2.66,0,5.32-.15,8-.28a2.67,2.67,0,0,1,1.81.54c1.8,1.27,3.53.93,5.09-.83a1.87,1.87,0,0,0,.3-.48c.59,0,1.19,0,1.78.07a1.22,1.22,0,0,0,.24.1c.28.06.58,0,.86,0,1.67.2,3.34.43,5,.6.43.08.86.18,1.29.27C120.23,69.16,120.37,69.78,120.23,70.67ZM140.84,86.3l-7.54-.43c-.11,0-.23-.16-.54-.39,4.3-1.79,7.54-2.35,10.21-1.8C143,86.42,143,86.42,140.84,86.3ZM152.52,88a28.3,28.3,0,0,0-6.2-.84c-1.43-.1-1.54-.29-1.55-2,0-3.36.61-6.68.49-10.06-.09-2.61.07-5.23-.08-7.83-.13-2.29-.61-4.47-2.48-5.88a6.09,6.09,0,0,0-2.89-.8c-4.9-.93-9.21,1.3-10.75,7.6C128,72.47,128,77,127.45,81.37c-.43,3.52-.36,3.53-3.27,2.88-.21,0-.43-.06-.64-.11-2.12-.49-2.68-1.22-2.71-3.72,0-.93.06-1.85.1-2.78.56-7.19.9-14.45,3-21.32.91-2.93,2.22-5.57,4.64-7.32,2.93-2.12,5.64-4.64,8.9-6.09,1.09-.78,9-.36,12.69,1.17a3.87,3.87,0,0,1,1.64,1.15c1.85,2.36,3.69,4.73,5.54,7.07a3.47,3.47,0,0,1,.73,2.52c-.25,4.54-1,9-1.42,13.53-.27,2.67-.51,5.35-.79,8A74.65,74.65,0,0,1,154,86.73C153.81,87.58,153.52,88.28,152.52,88Zm30.63,2.5a3.93,3.93,0,0,1-2,1.64,5.54,5.54,0,0,1-2,.29l-1.91-.25-.36-.07a.6.6,0,0,0-.19,0L174,91.75c-4.36-.56-8.71-1.23-13-2.18-.3-.07-1.08-.24-1.94-.5l-.73-.14a3.92,3.92,0,0,1-1.24-.36c-1.17-.08-1.36-.83-1.33-2,.06-2,.59-3.79.76-5.72.59-6.7,1.34-13.38,2-20.07.21-2,.57-4,.62-6,0-1.49.35-1.75,1.65-1.38a82.28,82.28,0,0,1,7.9,2.51c4.61,1.86,9.17,3.89,13.65,6.16,1.08.54,1.84,1.59,2.91,2.13.61.3.66,1,.66,1.74,0,1.35,0,2.7,0,4-.18,2.69-.42,5.37-.85,8-.57,3.55-.74,7.17-1.42,10.71A10.61,10.61,0,0,1,183.15,90.48Z"/><path d="M134.89,111.53c-.71-.07-1.55,0-1.91-1.11-.25-.72.59-2.4,1.4-2.88a2.93,2.93,0,0,1,3,.51,1.25,1.25,0,0,1,.25,1.37A3.3,3.3,0,0,1,134.89,111.53Z"/><path d="M48.46,133c-.05.91-.78,1.83-1.32,1.63a.62.62,0,0,1-.33-.8C47,133.07,47,132,48,132,48.37,132,48.43,132.57,48.46,133Z"/><path d="M144.32,48.1a4.75,4.75,0,0,0-1-1,3.82,3.82,0,0,0-1.81-.52,8.29,8.29,0,0,0-1.4.06c-2.13.83-3.59,2.32-3.64,5.66a3.54,3.54,0,0,0,1.68,3.44c1.5,1,3.93.39,5.52-1.44a5.38,5.38,0,0,0,.73-6Z"/><path d="M107.19,100.58c.51,0,1,0,1.14.82a1.33,1.33,0,0,1-1.51,1.36c-.63,0-1.17-.26-1.17-1.13C105.65,101,106.35,100.6,107.19,100.58Z"/><path d="M112.35,101.61c-.17,1-.7,1.12-1.3,1.06-.45,0-.89-.29-.83-.88.09-.94.72-1.1,1.4-1A.83.83,0,0,1,112.35,101.61Z"/><path d="M69.87,89.42c-5.54,2.29-10.19,6.14-14.5,10.24-4.84,4.6-9.52,9.39-14.16,14.19q-4,4.16-7.92,8.36c-.43.48.27,1.18.71.71q6.86-7.36,13.94-14.51A156.08,156.08,0,0,1,61.42,95.66a36.93,36.93,0,0,1,8.72-5.27C70.73,90.15,70.47,89.18,69.87,89.42Z"/><path d="M52.61,76.21a115.31,115.31,0,0,0-11.46,4.7,74.57,74.57,0,0,0-9.4,5.55,75.48,75.48,0,0,0-22.81,25c-.31.56.55,1.07.87.51A74.55,74.55,0,0,1,40.25,82.49a106.63,106.63,0,0,1,12.62-5.32C53.47,77,53.21,76,52.61,76.21Z"/><path d="M88.82,77.54a57.77,57.77,0,0,0-11,5.39c-.55.34,0,1.21.5.86A58,58,0,0,1,89.08,78.5C89.68,78.28,89.43,77.32,88.82,77.54Z"/><path d="M117.24,74.66a60.76,60.76,0,0,0-17.39-.87c-.63.06-.64,1.06,0,1a60,60,0,0,1,17.12.83C117.6,75.74,117.87,74.78,117.24,74.66Z"/><path d="M100.05,61.87l-6.76.89a.52.52,0,0,0-.5.5c0,.25.23.54.5.5l6.76-.89a.53.53,0,0,0,.5-.5C100.55,62.13,100.32,61.83,100.05,61.87Z"/><path d="M113.55,61l-2.63.19a.51.51,0,0,0-.5.5.5.5,0,0,0,.5.5l2.63-.19a.51.51,0,0,0,.5-.5A.5.5,0,0,0,113.55,61Z"/><path d="M79.28,65.6,72,67c-.63.12-.36,1.09.27,1l7.29-1.41C80.18,66.45,79.91,65.48,79.28,65.6Z"/></g></svg>