<svg xmlns="http://www.w3.org/2000/svg" viewBox="0 0 200 200"><defs><style>.cls-1{fill:red;}.cls-2{fill:#0fa;}.cls-3{fill:#ffce00;}.cls-4{fill:#f7d394;}.cls-5{fill:#d092f4;}</style></defs><title>iconos landing</title><g id="Color"><path class="cls-1" d="M192.39,122.56a3.32,3.32,0,0,0-3.68-1.78l-.76.11a.9.9,0,0,0-.56-.15c-7.72.45-15.46-1.09-23.13.3a.83.83,0,0,0-.73,1c-.79.44-.31,1.79.62,1.91a72.39,72.39,0,0,0,18.31,0,12.92,12.92,0,0,0,2.57-.15l-.06,0a41.83,41.83,0,0,1-6.31,6.65,1,1,0,0,0-.27.39c-3.55,1.7-6.94,3.9-10.5,5.59a1.08,1.08,0,0,0-.44,0c-10.65,2-21.31-2.47-32-.7-1.45-.17-2.9-.33-4.35-.46-.74-.07-1.47-.12-2.2-.17l-2.93-.66-.52-.13h0a9.13,9.13,0,0,0,.38-1,10.29,10.29,0,0,1,1.21-2,12.34,12.34,0,0,1,2.56-2.44c1.71-.87,3.44-1.71,5.18-2.5a.83.83,0,0,0,.51-.85A51.56,51.56,0,0,1,152.18,124a1,1,0,0,0,.73-1.76,7.18,7.18,0,0,0-4.81-1.45c-2.13,0-4.27.12-6.4.26a37.67,37.67,0,0,0-12,2.48c-3.74,1.56-7,4-10.71,5.68-1.74.76-3.74,1.21-5.14,2.58a4.39,4.39,0,0,0-1.26,4.48,1.07,1.07,0,0,0,1,.75l29.93,3.39c4.88.55,9.79,1.26,14.72,1A37.36,37.36,0,0,0,171,138.42a91.59,91.59,0,0,0,13.1-7.19,1.06,1.06,0,0,0,.33-.34,5.09,5.09,0,0,0,1.17-1.31.93.93,0,0,0,.12-.68c1.76-1,3.51-2,5.19-3.05C192,125.12,193,124,192.39,122.56Z"/><path class="cls-1" d="M68.38,45.82a5.53,5.53,0,0,0-5.22-1.37c-1.79.4-3.15,1.65-4.71,2.51a2.23,2.23,0,0,0-1.2,1.58l-.36-.08a11.72,11.72,0,0,1-3.53-1.39c-1.12-.68-1.81-1.9-3-2.55-3.55-2.05-5.67,3.65-6.11,6.19a13.89,13.89,0,0,0,1.24,8.72,13.6,13.6,0,0,0,14.33,7A13.45,13.45,0,0,0,70.77,54.9C71.17,51.88,70.65,48.06,68.38,45.82Z"/><path class="cls-2" d="M61.1,44.32a1,1,0,0,0-1.23-.7l-1.34.27A2.75,2.75,0,0,0,57,43a1,1,0,0,0-.83-.71,1,1,0,0,0-1.1.71c0,.07,0,.14,0,.21H55l-.13.06a1.92,1.92,0,0,0-.31.18l-.06,0c-.11.09-.21.19-.31.29l-.07.1a2,2,0,0,0-.17.23l-.08.15a.3.3,0,0,0,0,.1l-.35-.18a1,1,0,0,0-1,1.73,5.32,5.32,0,0,0,1.25.49,2.27,2.27,0,0,0,.33.66h0a2,2,0,0,0,.23.27,2.27,2.27,0,0,0,2,1,2.34,2.34,0,0,0,2.4-2.45l1.76-.36A1,1,0,0,0,61.1,44.32Z"/><path class="cls-2" d="M90.63,73.26c-.08-.19-.18-.37-.26-.56A6.76,6.76,0,0,0,88,68.25a2.73,2.73,0,0,0-1.43-.68l-.35,0a2.62,2.62,0,0,0-1.84-.21,2.53,2.53,0,0,0-1.74,3.08A19.31,19.31,0,0,1,83.36,74a11.29,11.29,0,0,0,.41,1.74,15.51,15.51,0,0,0,.7,1.62c0,.12.08.24.11.37v-.05A3.86,3.86,0,0,0,85,79a2.91,2.91,0,0,0,2.56,1.47,3.13,3.13,0,0,0,2.24-1,3.91,3.91,0,0,0,.35-.48,1.62,1.62,0,0,0,.44-.57,6,6,0,0,0,.59-2.84A7.73,7.73,0,0,0,90.63,73.26Z"/><path class="cls-2" d="M68.86,77.79a3.22,3.22,0,0,0-4.3-.26,9.17,9.17,0,0,0-1.78,2.13,20.31,20.31,0,0,0-1.1,1.73A13.63,13.63,0,0,0,60,86.83a2.49,2.49,0,0,0,2.5,2.5A2.92,2.92,0,0,0,63.67,89,2.55,2.55,0,0,0,65,88.7a9.62,9.62,0,0,0,4.84-7.6A4.1,4.1,0,0,0,68.86,77.79Z"/><path class="cls-2" d="M48.41,80.45A6.3,6.3,0,0,0,47,78a9.76,9.76,0,0,0-3.34-2.57,10.82,10.82,0,0,0-5.09-1.09,2.55,2.55,0,0,0-2.5,2.5,2.69,2.69,0,0,0,1.55,2.33A29.85,29.85,0,0,0,41,82.2c.56.43,1.13.84,1.72,1.22a4.22,4.22,0,0,0,3.46.94A3.26,3.26,0,0,0,48.41,80.45Z"/><path class="cls-1" d="M68.11,44.94a11.79,11.79,0,0,0-9.58-4.67.22.22,0,0,0,0-.08,1,1,0,0,0-1.23-.7A27.39,27.39,0,0,1,52.63,41c-1.48.3-3.24.46-4,2a1,1,0,0,0,.15,1.21A1,1,0,0,0,50,44.4h0a1.59,1.59,0,0,0,1,.49,3.74,3.74,0,0,0,1.71-.54,14.65,14.65,0,0,0,2.52-1.59l.08,0h0l.21-.15a.69.69,0,0,0,.23-.37l.57-.21a1.69,1.69,0,0,0,.06.77c.32.95,1.3,1.17,2.19,1.22l5.59.3a1,1,0,0,0,.39-.06A8.84,8.84,0,0,1,66.38,46a1,1,0,0,0,1.37.36A1,1,0,0,0,68.11,44.94Z"/><path class="cls-2" d="M160.61,104.86a8.58,8.58,0,0,0-5.69-5.19,1,1,0,1,0-.53,1.93c.25.07.49.16.73.24a.84.84,0,0,0,.25.47c1.24,1.12,2.43,2.29,3.57,3.53a1,1,0,0,0,1.21.15A1,1,0,0,0,160.61,104.86Z"/><path class="cls-1" d="M131,61.31s0,0,0-.05a5,5,0,0,0-4.2-3,.73.73,0,0,0-.47.11.75.75,0,0,0-.39-.09,2.31,2.31,0,0,0-2.05,1.4,1.9,1.9,0,0,0-.09.29,4.87,4.87,0,0,0-1,1.84,3.36,3.36,0,0,0,1.37,3.83,3.66,3.66,0,0,0,1.65.54l.08.06a3.69,3.69,0,0,0,4.25-.59A3.85,3.85,0,0,0,131.26,63h0A2.36,2.36,0,0,0,131,61.31Z"/><path class="cls-1" d="M127.59,63.19l.07,0h0l-.07,0Z"/><path class="cls-1" d="M152.67,93.14h0Z"/><path class="cls-1" d="M154.56,92.5a2.13,2.13,0,0,0-1.39-1.29,8.62,8.62,0,0,0-1.81-.34,10.87,10.87,0,0,0-1.71-.07,1,1,0,0,0-1,1,1,1,0,0,0,.56.89,1.63,1.63,0,0,0,.14,1.13,2.31,2.31,0,0,0,.72.77,4.14,4.14,0,0,0,1.37.7,2.6,2.6,0,0,0,3-1.12A2.16,2.16,0,0,0,154.56,92.5Z"/><polygon class="cls-1" points="152.66 93.14 152.66 93.15 152.67 93.15 152.67 93.15 152.66 93.14 152.66 93.14"/><polygon class="cls-1" points="152.68 93.18 152.68 93.18 152.68 93.18 152.68 93.18"/><polygon class="cls-1" points="152.68 93.17 152.68 93.17 152.68 93.17 152.68 93.17 152.68 93.17"/><path class="cls-1" d="M152.67,93.16h0v0h0Z"/><path class="cls-3" d="M38.43,106.38a32.59,32.59,0,0,1-1.91-3.15,17.22,17.22,0,0,1-1.16-3.8,25.19,25.19,0,0,0-2.64-6.89c-.85-1.51-1.83-3-2.66-4.52a2.16,2.16,0,0,0,0-.44,4,4,0,0,0-1.42-2.4,2.55,2.55,0,0,0-1.23-.56c-1.52-1.73-4.66.19-3.27,2.24.13.2.27.38.41.56l-.1,0a4.11,4.11,0,0,0-.86-.18l-.19,0a2,2,0,0,0-3.56.48c-1.43,4.73,1.69,9.06,4.64,12.69a2.19,2.19,0,0,0,.22.84c1.59,3.17,4.1,5.69,6.61,8.12a1.87,1.87,0,0,0,1.24.56c1.61,1.78,3.27,3.51,5,5.15A2,2,0,0,0,41,113.59,13,13,0,0,0,38.43,106.38Z"/><path class="cls-2" d="M27.19,77.57a12.29,12.29,0,0,1-1.82,0l-.22,0,.18-.17L28,74.83a1,1,0,0,0-1-1.67l-1.44.34h0A36.7,36.7,0,0,0,28,68.22a.88.88,0,0,0-.06-.7,1,1,0,0,0-1.78-.86,67.55,67.55,0,0,0-4.56,8.67c-1.16,2.67-2.11,5.56-1.38,8.47a5.79,5.79,0,0,0,1.94,3.3,1.37,1.37,0,0,0,2.15-1.32A7,7,0,0,0,23.78,84c-.11-.37-.2-.74-.28-1.11a1,1,0,0,0,.55-.56,9.31,9.31,0,0,0,.38-1.24,1,1,0,0,0,.24-.14,8.42,8.42,0,0,1,2.78-1.42C28.5,79.22,28.35,77.52,27.19,77.57Z"/><path class="cls-4" d="M117.44,70.14a4.35,4.35,0,0,0,1.1-4.65,6.72,6.72,0,0,0-1.4-2.31.88.88,0,0,0-.24-1,4.27,4.27,0,0,0-2.22-1.16,1.23,1.23,0,0,0-.43,0,.83.83,0,0,0-.5-.34,7.72,7.72,0,0,0-2.43-.2l-.36,0a.87.87,0,0,0-.57.15,7.57,7.57,0,0,0-6,5.82,7.18,7.18,0,0,0,1.21,6,2.46,2.46,0,0,0,2.6.85,2,2,0,0,0,1.31-2.43,1,1,0,0,0-.47-.55l.47-.19a22.47,22.47,0,0,1,1.37,6.74c0,.67.86,1.35,1.51.86a3.83,3.83,0,0,1,2.79-.81,1,1,0,0,0,.86-1.51A7.3,7.3,0,0,1,114.52,72a8.62,8.62,0,0,1,0-1.53A2.63,2.63,0,0,0,117.44,70.14Z"/><path class="cls-4" d="M107.65,45.23c-.61-1.87-2.34-3-4-4C99.88,39,95.39,37.41,91,38.41s-8.42,4.84-7.54,9.65a.81.81,0,0,0,.56.67c1,1.7,2.89,2.53,4.81,3a27.65,27.65,0,0,1-2.62,8.6,1,1,0,0,0,1.13,1.47,5.91,5.91,0,0,1,3.66.71,1.94,1.94,0,0,0,2.28-.15,7.19,7.19,0,0,0,1.25-2.77c.49-1.31,1-2.61,1.6-3.89a5.83,5.83,0,0,1,.72-1.51c.48-.53,1-.23,1.56,0a5.42,5.42,0,0,0,3.08.61,6.86,6.86,0,0,0,4.73-3.26C107.36,49.81,108.34,47.39,107.65,45.23ZM88.47,47l.56.19a1.21,1.21,0,0,0-.12.92,1.17,1.17,0,0,0,.12.3c0,.19,0,.39,0,.58l-.53-1.37-.31-.8A1.05,1.05,0,0,0,88.47,47Z"/><path class="cls-5" d="M150,78.48a1,1,0,0,0-1.21-.77c-5.68,1.32-11.12-1.14-16.68-2.37a1,1,0,0,0-.37-.48,5.32,5.32,0,0,0-6.21,0,.91.91,0,0,0-.17.17,3.94,3.94,0,0,0-2.3,2.89c-.81,3.6,3.54,4.87,6.16,5.44a54.31,54.31,0,0,0,12.51,1.3c3.47-.08,7.24-1.38,8.75-4.77A1,1,0,0,0,150,78.48Z"/><path class="cls-2" d="M153.13,79.4a1,1,0,0,0-.64-.27c0-.15,0-.29,0-.43a1.05,1.05,0,0,0-.29-.71,1,1,0,0,0-.71-.29,1,1,0,0,0-.7.29,1,1,0,0,0-.3.71l.09,1c0,.2,0,.42,0,.63a4.12,4.12,0,0,0-.52.72,1,1,0,1,0,1.72,1l.18-.27c.07-.09.16-.15.23-.23h.09a1.74,1.74,0,0,0,1-.9A1,1,0,0,0,153.13,79.4Z"/></g><g id="Capa_1" data-name="Capa 1"><path d="M192.68,120a9.13,9.13,0,0,0-3.55-.61c-1.46,0-2.92-.06-4.37-.07-2.88,0-5.75,0-8.63.13l-3.85.14c-1.1,0-2.21-.07-3.3-.12-3.23-.14-3.36-.2-3.11-3.58a82.35,82.35,0,0,0,.15-11.86,53.81,53.81,0,0,0-5.26-20.46c-.23-.46-.48-.91-.72-1.37a6.2,6.2,0,0,1-.82,2.32,59.89,59.89,0,0,1,4.47,13.79c2,9.87.43,19.25-2.83,28.53a22.1,22.1,0,0,1-1.33,2.55,7,7,0,0,0-.77,1.61,2.07,2.07,0,0,0,0,1.3c.32-.3.63-.62.93-1,.48-.51,1-1,1.44-1.56a18.36,18.36,0,0,1,2-2.35,2.9,2.9,0,0,1,1.05-1.21q8.84-.67,17.69-.74a74.61,74.61,0,0,1-10.39,6.89,18.73,18.73,0,0,1-9.6,2.59c-5.41-.17-10.82-.4-16.23-.61-.71,0-1.73.05-1.79-.8-.18-2.66-2.35-4.42-3-7,3.3-1.36,6.69-.83,10-.94a1.34,1.34,0,0,1,.2,0h0a1,1,0,0,1,.63.25,1.82,1.82,0,0,1,.62.85,9.5,9.5,0,0,1,.22,3.94c0,.58-.1,1.15-.18,1.73a3.24,3.24,0,0,0,.8-1.42,40.82,40.82,0,0,0,1.53-5.56c.75-4.29-.34-8.38-1.1-12.51-1.27-6.89-5.13-12.08-10.7-16.11-6-4.32-12.91-6.48-19.87-8.31a67.19,67.19,0,0,0-38.78,1.25c-2.55.83-6.17,2-7.46,2.9L77,92.6s-1.46,2.72,3.53.18a64.78,64.78,0,0,1,35.07-3.7,94.57,94.57,0,0,1,16.66,4.63,34.94,34.94,0,0,1,13.54,8.71,23.05,23.05,0,0,1,6.43,16,2.88,2.88,0,0,1-.11,1c-3.44-.06-6.89,0-10.32.27l-3-.16a12.81,12.81,0,0,0-7.55,1.68,147.81,147.81,0,0,1-15,8,15.13,15.13,0,0,0-4.22,2.75c-2.58,2.38-2,5.44,1.33,6.57a16.94,16.94,0,0,0,4.92,1.08,3,3,0,0,1,2.35.68c1.51,1.66,3.47,2.79,4.74,4.81a13.25,13.25,0,0,0,1.34,1.79,25,25,0,0,1,2.12,1.86l.11.11q8.28,1.82,16.69,2.91c5.75.74,11.82,1.56,17.5,0a18,18,0,0,0,5.46-2.53c.72-.67,1.44-1.35,2.14-2.05,0,0,0-.06,0-.09.21-.2.42-.4.62-.62,2.22-2.47,4.28-5.11,6.6-7.48,1.79-2.64,4-5.68,6.85-7.26a25.24,25.24,0,0,1,2.77-1.64,36.73,36.73,0,0,0,4-2.52c.18-.14.35-.27.5-.41a6.68,6.68,0,0,0,2.26-2A3.38,3.38,0,0,0,192.68,120ZM142.19,132.8a.69.69,0,0,1,0,.13,2.14,2.14,0,0,1,.25.53.52.52,0,0,1-.5.65,3.72,3.72,0,0,1-.88,0H141c-1.31,0-2.62,0-3.56,0-2.39-.23-4.42-.33-6.42-.65-1.3-.2-1.55-1.16-.63-2a21.19,21.19,0,0,1,7.43-4.15,1.12,1.12,0,0,1,1,.17A15,15,0,0,1,142.19,132.8Zm15.95,14.73c-.5,1-1,1.95-2.1,2.27a7.22,7.22,0,0,1-3,0c-.93-.13-1.87-.19-2.8-.26-3.72-.22-7.38-.84-11.09-1.16a27.88,27.88,0,0,1-6.8-1,4.52,4.52,0,0,1-.62-.12c-2.09-.56-3-2.41-4.22-4l-.15-.18c-.14-.17-.27-.34-.42-.5a.53.53,0,0,1-.12-.25,13.31,13.31,0,0,1-1.13-2.06c4.39.05,8.3.66,12.24.76,6.58.18,13.1,1.37,19.71,1.22,2.41-.06,2.61.36,1.61,2.4A11.44,11.44,0,0,1,158.14,147.53Zm1.43,2.05c.58-2.81,2.15-4.67,3.15-6.78a1.34,1.34,0,0,1,1.16-.75c4.28-.12,7.67-2.55,11.29-4.35a8.68,8.68,0,0,1,1.09-.2C171.84,143.58,167.21,148.29,159.57,149.58ZM191.47,124a6.71,6.71,0,0,1-2.62,2.47c-3,2.13-6.15,4.19-9.34,6.08a102.81,102.81,0,0,1-10.34,5.84,23.55,23.55,0,0,1-8.34,2c-8.44.47-16.79-.81-25.19-1.12-5.66-.21-11.23-1.22-16.85-1.74-1.77-.16-4.28-.22-4.68-2-.49-2.09,1.91-3.11,3.59-3.91a112,112,0,0,0,12-6.54c4.36-2.77,9.19-3.41,14.15-3.53,2.4-.06,4.8.12,7.2.15.69,0,1.23.09,1.18.91s-.68.81-1.31.82c-2.52,0-5,.2-7.57.15a14.66,14.66,0,0,0-8.22,2c-2.87,1.73-6.06,2.92-8.49,5.35-.86.86-1.87,1.79-1.4,3.09s1.86,1.46,3,1.55c2.27.17,4.56.18,6.84.29,8.88.43,17.77.76,26.64,1.38,5,.34,9.17-1.25,13.21-3.86a78.63,78.63,0,0,0,6.85-5.16v0c.69-.54,1.37-1.12,2-1.71a3.77,3.77,0,0,0,1.23-1.08,1.58,1.58,0,0,0,.1-1.61,1.48,1.48,0,0,0-.66-.54l-.65,0a8.54,8.54,0,0,0-.88,0c-.14,0-.28,0-.42,0l-18,.56a.58.58,0,0,1-.24-.59,2.36,2.36,0,0,1,.43-1.21l.08-.08a.51.51,0,0,1,.5-.43,4.08,4.08,0,0,0,.61,0h.32a19,19,0,0,1,2-.14h2.26c1.55-.09,3.1-.17,4.65-.16,2.22,0,4.43-.13,6.64-.17.14,0,.27,0,.4,0,1-.05,2,0,3,0a17.79,17.79,0,0,1,4.72.31C191.1,121.8,192.09,122.77,191.47,124Z"/><path d="M40.56,111q-3.47-8.52-6.92-17c-.64-1.56-1.26-3.14-1.91-4.69a13.66,13.66,0,0,0-2.14-3.75C28.23,84,25.94,83,24,83.69c0-1.26,1.43-2.11,2.32-2.73a4.81,4.81,0,0,0,2.24-2.75.53.53,0,0,0-.22-.57,4.8,4.8,0,0,0-1.57-.54A7.9,7.9,0,0,0,29.18,73c.06-.28-.13-.66-.46-.64a9.81,9.81,0,0,0-2.41.48,18.25,18.25,0,0,0,2.31-4.2c.34-.87.55-2-.32-2.69a1.94,1.94,0,0,0-2.44.27A10.87,10.87,0,0,0,24,69.11c-.6,1.08-1.19,2.18-1.72,3.3a22.07,22.07,0,0,0-2.09,6.84,13.67,13.67,0,0,0,.67,6.22.63.63,0,0,0-.13.11c-3.52,4.36-.68,10.09,1.92,14.16a55,55,0,0,0,10.25,11.89c1,.87,2,1.7,3.08,2.5a6.38,6.38,0,0,0,3,1.54,2.31,2.31,0,0,0,2.28-1.18C41.82,113.39,41,112,40.56,111ZM22.3,74.93A41.51,41.51,0,0,1,25,69.44,9.4,9.4,0,0,1,26.53,67a1,1,0,0,1,1.13-.24c.5.28.25,1,.1,1.45a17.06,17.06,0,0,1-3.53,5.7c-.36.39.09,1.11.58.8A8.21,8.21,0,0,1,28,73.46,6.8,6.8,0,0,1,25,77.16a.51.51,0,0,0,.35.93,3.6,3.6,0,0,1,2.15.25,4.89,4.89,0,0,1-1.94,1.94,6.85,6.85,0,0,0-2.12,2,2.77,2.77,0,0,0-.33,1.89.53.53,0,0,0,.27.89c.15.34.77,1.56.13,1.66-.22,0-.41-.26-.57-.4l-.83-.71L22,85.57C20.54,82.18,21,78.3,22.3,74.93Zm18.18,38.72a1.06,1.06,0,0,1-.89,1c-1,.26-2-.55-2.74-1.1-1-.72-1.9-1.46-2.82-2.24a54.42,54.42,0,0,1-9.43-10.43,28.3,28.3,0,0,1-4.05-7.44c-.7-2.3-.69-5,.77-7,.1.2.19.41.3.6a.47.47,0,0,0,.72.14c.58.49,1.24.83,1.9.26.93-.8.34-1.81,0-2.77,1.7-.72,3.66.28,4.82,1.69A20,20,0,0,1,31.79,92a.4.4,0,0,0-.21.18,4.89,4.89,0,0,1-.42.69L31,93l0,0-.06.07-.27.31a7.54,7.54,0,0,1-.59.55L30,94h0l-.15.1c-.12.09-.24.16-.37.24a.5.5,0,0,0-.18.67.48.48,0,0,0,.66.2A6.58,6.58,0,0,0,32.2,93c.53,1.28,1,2.57,1.57,3.85a.57.57,0,0,0-.08.39c0-.12,0,0,0,0a.57.57,0,0,1,0,.13v.24c0,.07,0,.15,0,.23s0,.06,0,.09v.08c0,.16-.08.32-.13.47a1.43,1.43,0,0,1-.08.22v0l0,.12a3.26,3.26,0,0,1-.24.4.86.86,0,0,1-.07.1l0,.06a1.15,1.15,0,0,1-.14.17,3.4,3.4,0,0,1-.34.32l-.06,0-.07,0-.22.13a.51.51,0,0,0-.18.68.49.49,0,0,0,.66.2,4,4,0,0,0,1.83-2.42l1.86,4.59a.48.48,0,0,0-.65,0,10.41,10.41,0,0,1-1.15.91,12.45,12.45,0,0,1-1.32.79.5.5,0,0,0-.19.67.51.51,0,0,0,.67.2A12.19,12.19,0,0,0,36.38,104a.44.44,0,0,0,.14-.32L38.31,108c.51,1.27,1,2.54,1.54,3.8A5.66,5.66,0,0,1,40.48,113.65Z"/><path d="M71.35,50.58a13.5,13.5,0,0,0-2.78-5.94h.58a.54.54,0,0,0,0-1.08l-1.57,0a14.53,14.53,0,0,0-7.41-4.08,14.3,14.3,0,0,0-12.38,3.69c-.26-.05-.52-.11-.79-.14-.56-.07-.7.75-.28,1l.16.08a13.78,13.78,0,0,0-2.39,3.71c-.27.63.66,1.18.93.54a13.08,13.08,0,0,1,2.49-3.77,7.6,7.6,0,0,0,2.32.5,10.28,10.28,0,0,1,4,3.59.43.43,0,0,0,.15.15,16.56,16.56,0,0,0-4,1.81c-.59.37,0,1.31.54.93a15.47,15.47,0,0,1,11.51-2.05c.68.14,1-.89.29-1a16.26,16.26,0,0,0-5.25-.27l.09-.07c2.34-2.91,6.07-3.4,9.61-3.45a12.87,12.87,0,0,1,2.61,4.27A13.06,13.06,0,0,1,51,64.63a13.35,13.35,0,0,1-6-15,.54.54,0,0,0-1-.28A14.13,14.13,0,0,0,65.23,65.12,14.52,14.52,0,0,0,71.35,50.58ZM66,43.47l-4.71-.14-2-.06a3.68,3.68,0,0,1-1.62-.2,1.09,1.09,0,0,1-.42-1.41,9,9,0,0,0,.77-1.4h0A13.08,13.08,0,0,1,66,43.47Zm-9.33-3.18a4.83,4.83,0,0,0-.42.93A6.8,6.8,0,0,1,50.45,44a11.69,11.69,0,0,0-1.39-.53A13.35,13.35,0,0,1,56.64,40.29Zm.17,7a.6.6,0,0,0,.21.9c-.61.08-1.21.19-1.81.33a.46.46,0,0,0,0-.46,11,11,0,0,0-3.08-3.16,8,8,0,0,0,4.1-2.08s0,0,0,.07c.47,1.28,1.74,1.38,2.92,1.41l2.08.07A9.17,9.17,0,0,0,56.81,47.33Z"/><path d="M116,60.74a8.05,8.05,0,0,0-9.61,1.19,9.78,9.78,0,0,0-2.72,4.86,7.75,7.75,0,0,0,.53,5.6c.93,1.54,3.07,2.51,4.72,1.48a2.38,2.38,0,0,0,.81-.89,9.9,9.9,0,0,1,.51,5.6.42.42,0,0,0,.44.53.55.55,0,0,0,.68-.16,5,5,0,0,1,4.77-1.66.43.43,0,0,0,.25-.05l.11.19c.34.56,1.28.13.93-.44A20.73,20.73,0,0,1,115,71.14a3.56,3.56,0,0,0,3.42-1.55C120.42,66.66,118.82,62.5,116,60.74Zm2.23,5.48c.1,1.46-.49,3.3-2,3.82a2.18,2.18,0,0,1-1.51,0,21.63,21.63,0,0,1-.34-2.8.52.52,0,0,0-.84-.3,2.5,2.5,0,0,0,.26,3.75,21.44,21.44,0,0,0,2,5.56,6,6,0,0,0-4.39,1.27,10.8,10.8,0,0,0-1-5.6.52.52,0,0,0-.28-.54.83.83,0,0,1-.07-.13,2.12,2.12,0,0,0-1.1-1.57.58.58,0,0,0-.7.14.89.89,0,0,0-.47.75,1.16,1.16,0,0,0,.47,1,3.15,3.15,0,0,0,.65.42L109,72a1.62,1.62,0,0,1-1.19,1.24,2.83,2.83,0,0,1-3-2c-1-2.61.06-6,1.83-8a7.28,7.28,0,0,1,7.17-2.32A6,6,0,0,1,118.25,66.22Z"/><path d="M109.33,66.48a.5.5,0,0,0-.37.12.48.48,0,0,0-.18.35.53.53,0,0,0,.12.38l.66.77a.54.54,0,0,0,.35.18.56.56,0,0,0,.38-.12.52.52,0,0,0,.06-.73l-.66-.77A.54.54,0,0,0,109.33,66.48Z"/><path d="M111.69,64.93a.54.54,0,0,0-.42.6l.29,1.67a.51.51,0,0,0,1-.19l-.28-1.67A.52.52,0,0,0,111.69,64.93Z"/><path d="M154.43,78.67l-1.17,0,.41-.68a.51.51,0,0,0-.44-.77l-3.07.06a.5.5,0,0,0-.31.11,9.65,9.65,0,0,0-3.17-.33,39.86,39.86,0,0,1-14.54-3,.48.48,0,0,0-.35-.37q-.54-.15-1.11-.27c-.23-.1-.46-.19-.68-.3a.52.52,0,0,0-.61.11,7.26,7.26,0,0,0-4.2.71,5,5,0,0,0-2.71,4.72c.23,1.93,1.83,3.17,3.51,3.88a36.17,36.17,0,0,0,7,1.93c4.8,1,9.92,1.19,14.48-.85l.42-.19a.34.34,0,0,0,.22,0,9.9,9.9,0,0,0,6.82-4.11A.52.52,0,0,0,154.43,78.67ZM136.5,84.09a46.91,46.91,0,0,1-6.92-1.41c-1.7-.45-3.64-.87-5-2.09a3.31,3.31,0,0,1,.24-5.06c1.49-1.37,3.62-1.41,5.54-1a41.62,41.62,0,0,0,11.42,3.27,61.86,61.86,0,0,0,6.38.37c.9,0,2,.21,2.1,1.29a2.71,2.71,0,0,1-1.47,2.35C145.26,84.17,140.64,84.54,136.5,84.09Zm13.76-2.18a3.12,3.12,0,0,0,1-2.56,2.5,2.5,0,0,0-.31-1l1.31,0-.42.68a.52.52,0,0,0,.44.78l1,0A9,9,0,0,1,150.26,81.91Z"/><path d="M132.16,80.29a8.09,8.09,0,0,1-4.76-2.56c-.45-.49-1.17.24-.73.73a9,9,0,0,0,5.22,2.83.53.53,0,0,0,.63-.36A.52.52,0,0,0,132.16,80.29Z"/><path d="M70.2,79.86a4.76,4.76,0,0,0-2.36-3.74.49.49,0,0,0-.51,0l-.17-.1a2.54,2.54,0,0,0-2.8,1,23.83,23.83,0,0,0-4,6.1.33.33,0,0,0-.06.1.24.24,0,0,0,0,.08c-.18.39-.37.78-.53,1.17a.41.41,0,0,0,.19.54c-.19,1.72,0,3.82,1.48,4.1a4.08,4.08,0,0,0,4.31,0,8.84,8.84,0,0,0,3.19-4A9.76,9.76,0,0,0,70.2,79.86Zm-8.91,3.65a24.92,24.92,0,0,1,2.38-4,10.33,10.33,0,0,1,2-2.28c1-.69,1.82.1,2,1.08a8.47,8.47,0,0,1-.94,5.24,10.08,10.08,0,0,1-3.35,3.86,4.37,4.37,0,0,1-1.3.68.94.94,0,0,1-.44,0h0c-.37-.1-.5-.5-.6-1A6.72,6.72,0,0,1,61.29,83.51ZM68,84.58A8.88,8.88,0,0,1,65.62,88a3.64,3.64,0,0,1-2.31.74,10,10,0,0,0,1.51-1.07A11.16,11.16,0,0,0,67,85.14a10.52,10.52,0,0,0,1.76-6.39c0-.11,0-.21,0-.32C69.69,80.24,68.87,82.83,68,84.58Z"/><path d="M66.53,80l-.23-.69a.53.53,0,0,0-.23-.3.52.52,0,0,0-.4-.06.53.53,0,0,0-.31.24.56.56,0,0,0,0,.4l.16.49,0,.09a.56.56,0,0,0,0,.4.62.62,0,0,0,.37.28.67.67,0,0,0,.46-.06l.13-.1a.53.53,0,0,0,.14-.52A1.09,1.09,0,0,0,66.53,80Z"/><path d="M65.92,82.46a.49.49,0,0,0-.7-.18l-.11.08a.61.61,0,0,0-.13.22l0-.1a3.14,3.14,0,0,1-.44.75,3.3,3.3,0,0,1-.48.51.49.49,0,0,0-.15.36.51.51,0,0,0,.15.37.53.53,0,0,0,.36.15.61.61,0,0,0,.37-.15,4.72,4.72,0,0,0,.67-.74,4.1,4.1,0,0,0,.48-.87A.55.55,0,0,0,65.92,82.46Z"/><path d="M63.85,84.85a.5.5,0,0,0-.11-.17.51.51,0,0,0-.37-.15l-.13,0a.49.49,0,0,0-.2.11h0a.72.72,0,0,1-.19.11.83.83,0,0,1-.21.06h.07a.41.41,0,0,0-.19,0,.36.36,0,0,0-.16.11.39.39,0,0,0-.11.17.41.41,0,0,0,0,.19.51.51,0,0,0,.16.37.49.49,0,0,0,.36.15,1.67,1.67,0,0,0,.31,0,1.82,1.82,0,0,0,.3-.11.65.65,0,0,0,.16-.09l.25-.19a.5.5,0,0,0,.11-.17.42.42,0,0,0,0-.2A.41.41,0,0,0,63.85,84.85Z"/><path d="M64.31,81.79a.57.57,0,0,0-.24-.31.51.51,0,0,0-.4,0,.56.56,0,0,0-.31.23l-.43.73a.51.51,0,0,0,0,.4.52.52,0,0,0,.23.31.56.56,0,0,0,.4.05.53.53,0,0,0,.31-.24l.43-.73A.54.54,0,0,0,64.31,81.79Z"/><path d="M40.19,73.8a4.75,4.75,0,0,0-4,1.82.48.48,0,0,0-.05.51l-.12.16a2.53,2.53,0,0,0,.59,2.91A24.2,24.2,0,0,0,42.08,84l.09.06.08,0c.36.23.72.47,1.09.68a.39.39,0,0,0,.56-.11c1.68.42,3.78.52,4.26-.9a4.08,4.08,0,0,0,.59-4.28,8.91,8.91,0,0,0-3.54-3.71A9.78,9.78,0,0,0,40.19,73.8Zm2.4,9.32a24.28,24.28,0,0,1-3.65-2.91,9.79,9.79,0,0,1-2-2.28c-.56-1,.34-1.79,1.34-1.86a8.43,8.43,0,0,1,5.06,1.64,9.94,9.94,0,0,1,3.37,3.85,4.3,4.3,0,0,1,.49,1.38.94.94,0,0,1,0,.43v0c-.14.35-.56.42-1,.46A6.8,6.8,0,0,1,42.59,83.12Zm2-6.52a8.74,8.74,0,0,1,3,2.85A3.51,3.51,0,0,1,48,81.83a10.57,10.57,0,0,0-.85-1.64A10.89,10.89,0,0,0,45,77.66,10.58,10.58,0,0,0,38.89,75a1.61,1.61,0,0,0-.31,0C40.5,74.36,43,75.52,44.57,76.6Z"/><path d="M39.85,77.46l-.71.12a.54.54,0,0,0-.34.2.53.53,0,0,0-.11.38.55.55,0,0,0,.19.34.54.54,0,0,0,.39.11l.51-.09.08,0a.55.55,0,0,0,.4,0,.61.61,0,0,0,.33-.32.64.64,0,0,0,0-.47.6.6,0,0,0-.09-.15.53.53,0,0,0-.49-.2Z"/><path d="M42.18,78.39a.61.61,0,0,0-.28.27.55.55,0,0,0,0,.4l.07.12a.53.53,0,0,0,.2.16l-.09-.06a3.94,3.94,0,0,1,.68.54,3.26,3.26,0,0,1,.43.55.51.51,0,0,0,.35.2.48.48,0,0,0,.38-.1.54.54,0,0,0,.2-.34.64.64,0,0,0-.1-.38,4.67,4.67,0,0,0-.64-.77,4.24,4.24,0,0,0-.8-.59A.55.55,0,0,0,42.18,78.39Z"/><path d="M44.26,80.77a.38.38,0,0,0-.18.09.5.5,0,0,0-.2.34v.14a.43.43,0,0,0,.09.21h0a1.19,1.19,0,0,1,.08.2,1.66,1.66,0,0,1,0,.22V81.9a.31.31,0,0,0,0,.19.36.36,0,0,0,.08.18.47.47,0,0,0,.15.13.4.4,0,0,0,.19.07.58.58,0,0,0,.38-.1.55.55,0,0,0,.2-.34,1.71,1.71,0,0,0,0-.32c0-.1-.05-.2-.07-.31a1.22,1.22,0,0,0-.07-.17A2.4,2.4,0,0,0,44.8,81a.37.37,0,0,0-.15-.13.4.4,0,0,0-.19-.07A.44.44,0,0,0,44.26,80.77Z"/><path d="M41.29,79.9a.58.58,0,0,0-.34.19.53.53,0,0,0,.09.73l.66.53a.51.51,0,0,0,.83-.48.49.49,0,0,0-.19-.33L41.68,80A.5.5,0,0,0,41.29,79.9Z"/><path d="M88.9,68.17a4.74,4.74,0,0,0-4.22-1.31.49.49,0,0,0-.37.35l-.19.05a2.52,2.52,0,0,0-1.49,2.56,24,24,0,0,0,.93,7.24s0,.07,0,.11l0,.08c.12.41.22.82.36,1.23a.39.39,0,0,0,.49.28c1,1.43,2.49,2.9,3.79,2.15a4.08,4.08,0,0,0,3.28-2.81,8.77,8.77,0,0,0-.2-5.12A9.66,9.66,0,0,0,88.9,68.17Zm-4.38,8.56a24.64,24.64,0,0,1-.8-4.59,9.86,9.86,0,0,1,0-3C84,68,85.18,68,86,68.61a8.56,8.56,0,0,1,2.7,4.59,10,10,0,0,1,0,5.11,4.37,4.37,0,0,1-.55,1.36,1,1,0,0,1-.32.3h0c-.34.17-.7-.06-1.08-.34A6.74,6.74,0,0,1,84.52,76.73Zm5.81-3.57a9,9,0,0,1,.37,4.14,3.65,3.65,0,0,1-1.27,2.06,10.2,10.2,0,0,0,.45-1.79,11.27,11.27,0,0,0,.06-3.33,10.49,10.49,0,0,0-2.83-6L86.88,68C88.76,68.79,89.83,71.29,90.33,73.16Z"/><path d="M86.22,70.68l-.62-.38a.55.55,0,0,0-.38-.08.53.53,0,0,0-.33.22.51.51,0,0,0-.08.38.55.55,0,0,0,.22.34l.44.27a.32.32,0,0,0,0,.09.51.51,0,0,0,.29.27.61.61,0,0,0,.46,0,.6.6,0,0,0,.32-.34.47.47,0,0,0,0-.17.53.53,0,0,0-.22-.48Z"/><path d="M87.35,72.92a.58.58,0,0,0-.39,0,.55.55,0,0,0-.26.3l0,.13a.47.47,0,0,0,0,.26l0-.1a3.45,3.45,0,0,1,.16.85,5.48,5.48,0,0,1,0,.7.5.5,0,0,0,.12.38.51.51,0,0,0,.35.17.53.53,0,0,0,.38-.12.58.58,0,0,0,.17-.35,4.11,4.11,0,0,0,0-1,4.62,4.62,0,0,0-.21-1A.53.53,0,0,0,87.35,72.92Z"/><path d="M87.33,76.09a.33.33,0,0,0-.19-.06.51.51,0,0,0-.38.12l-.09.11a.76.76,0,0,0-.08.21h0a.86.86,0,0,1-.07.21.71.71,0,0,1-.12.18l0,0a.44.44,0,0,0-.12.15.41.41,0,0,0,0,.19.46.46,0,0,0,0,.2.54.54,0,0,0,.1.18.51.51,0,0,0,.35.17.49.49,0,0,0,.38-.12,1.59,1.59,0,0,0,.2-.24,1.43,1.43,0,0,0,.15-.27,1.34,1.34,0,0,0,.07-.18,1.55,1.55,0,0,0,.06-.31.5.5,0,0,0-.12-.37A.31.31,0,0,0,87.33,76.09Z"/><path d="M85.69,73.46a.59.59,0,0,0-.39-.08.51.51,0,0,0-.33.22.57.57,0,0,0-.08.38l.14.84a.51.51,0,0,0,.22.33.51.51,0,0,0,.38.08.52.52,0,0,0,.42-.6l-.15-.83A.58.58,0,0,0,85.69,73.46Z"/><path d="M107.17,44.28a12.72,12.72,0,0,0-5-4.61,16.39,16.39,0,0,0-6.44-2c-4.39-.42-9.74,1-12.12,5a6.94,6.94,0,0,0-.23,7.05,5.57,5.57,0,0,0,5.12,2.63,30.8,30.8,0,0,1-3.62,9,.5.5,0,0,0,.4.75.51.51,0,0,0,.44.13A8,8,0,0,1,92,63.79a.49.49,0,0,0,.17.06c.08.44.7.7.92.2l4.1-9.39a4.46,4.46,0,0,0,4.32.6,12,12,0,0,0,5.28-4.56A5.92,5.92,0,0,0,107.17,44.28Zm-2.78,7.65c-1.42,1.41-3.34,3.09-5.5,2.49a2.6,2.6,0,0,1-1.22-.74.49.49,0,0,0,.32-.14,8.66,8.66,0,0,0,1.7-2.07,1.85,1.85,0,0,0-.15-2.38c-.77-.64-1.74-.13-2.33.5a4.11,4.11,0,0,0-1,2,4.23,4.23,0,0,0,.2,2.31l-3.94,9a9,9,0,0,0-6.22-1.66,31.92,31.92,0,0,0,3.84-11.63.56.56,0,0,0,.17-.37,6.89,6.89,0,0,0-.38-3,1.58,1.58,0,0,0-.72-.9l0,0a.75.75,0,0,0-.13-.06h-.08a.73.73,0,0,0-.25,0h0a1,1,0,0,0-.5.09,1.38,1.38,0,0,0-.7,1.12A4.79,4.79,0,0,0,88,48.87c.06.16.13.32.2.48s.13.6.2.9v.06c-.06.28-.11.57-.18.84a.66.66,0,0,0,0,.24,4.51,4.51,0,0,1-3.7-1.84A5.54,5.54,0,0,1,84,44.3c1.41-3.7,5.7-5.42,9.38-5.63A15.26,15.26,0,0,1,103.86,42c1.41,1.18,2.84,2.74,3.06,4.64C107.15,48.74,105.77,50.54,104.39,51.93Z"/><path d="M92.39,46.75a8.87,8.87,0,0,0-1.7-4,.53.53,0,0,0-.7-.19.53.53,0,0,0-.19.71A8.22,8.22,0,0,1,91.4,47a.51.51,0,0,0,1-.27Z"/><path d="M94.83,43a.53.53,0,0,0-.15-.36.54.54,0,0,0-.36-.16c-.25,0-.56.23-.52.52.1.73.19,1.45.29,2.18a.58.58,0,0,0,.15.36.51.51,0,0,0,.37.15c.25,0,.55-.23.51-.51C95,44.42,94.93,43.7,94.83,43Z"/><path d="M101.14,45.22a7.87,7.87,0,0,0-5.45,2.6c-.44.49.28,1.23.73.73a6.82,6.82,0,0,1,4.72-2.29C101.8,46.22,101.81,45.19,101.14,45.22Z"/><path d="M98.4,43.82a.55.55,0,0,0-.31-.23.51.51,0,0,0-.4,0l-1,.67a.55.55,0,0,0-.23.31.52.52,0,0,0,.36.64.53.53,0,0,0,.39,0l1-.68a.57.57,0,0,0,.24-.31A.56.56,0,0,0,98.4,43.82Z"/><path d="M155.33,92.71c-.25-1.52-1.63-2.21-3-2.4s-3.92-.38-4.34,1.52a.51.51,0,0,0,.23.55,4.55,4.55,0,0,0,1.6,3.15,3.75,3.75,0,0,0,3.95.46A3.09,3.09,0,0,0,155.33,92.71ZM153.44,95a2.65,2.65,0,0,1-2.84-.13,3.61,3.61,0,0,1-1.41-3.16h0c.56-.67,2-.45,2.72-.38.94.09,2.07.37,2.36,1.39A2.06,2.06,0,0,1,153.44,95Z"/><path d="M161.63,105a4.12,4.12,0,0,0-1.39-1.68l-4.59-3.93a.54.54,0,0,0-.81.13.47.47,0,0,0-.49-.54,1.31,1.31,0,0,0-1.24,1.31,3.52,3.52,0,0,0,1,2,20.76,20.76,0,0,0,3.3,3.26c1,.81,2.5,2.29,3.81,1.21A1.64,1.64,0,0,0,161.63,105Zm-1.55,1.13a2.78,2.78,0,0,1-1.42-.82A32.29,32.29,0,0,1,156,103a11.67,11.67,0,0,1-1.32-1.57,3,3,0,0,1-.45-.78c0-.15-.08-.54.17-.55a.29.29,0,1,1,.57.11l3.13,2.69c.53.44,1,.89,1.57,1.34a2.81,2.81,0,0,1,1,1.22A.56.56,0,0,1,160.08,106.17Z"/><path d="M157.77,73.39c-1.11-1.51-2.28-3-3.49-4.42a.42.42,0,0,0-.06-.41,56.64,56.64,0,0,0-15.41-14.23A89.16,89.16,0,0,0,121,43.94a.53.53,0,0,0-.57.1.57.57,0,0,0-.13-.14.51.51,0,0,0-.18-.09l-.13,0a.56.56,0,0,0-.26.07l-.07,0-.09,0-.1.08a.49.49,0,0,0-.14.23.88.88,0,0,0,0,.16.72.72,0,0,0,0,.17,0,0,0,0,0,0,0l0,.07s0,0,0,.07v0h0l.09.11h0l0,0,.12.09a.43.43,0,0,0,.2.2,171.37,171.37,0,0,1,18,9.67,89.31,89.31,0,0,1,12.44,11,87.64,87.64,0,0,1,6.63,8C157.27,74.45,158.17,73.93,157.77,73.39Z"/><path d="M116.12,42.2a1.61,1.61,0,0,0-1.08-.34,3.59,3.59,0,0,0-1,.18.82.82,0,0,0-.31,0,.87.87,0,0,0-.52.4,1.08,1.08,0,0,0,0,1.06,1.36,1.36,0,0,0,1.06.59,4,4,0,0,0,1.09,0,1.31,1.31,0,0,0,1-.68A1,1,0,0,0,116.12,42.2Z"/><path d="M115.35,43h0Z"/><path d="M34.4,53.84a44,44,0,0,0-8.88,5.79c-.51.43.23,1.15.73.73a43,43,0,0,1,8.67-5.63C35.52,54.44,35,53.55,34.4,53.84Z"/><path d="M130.27,58.82c-1.6-1.31-4.79-2.3-6.34-.38a.31.31,0,0,0-.05.1A5.64,5.64,0,0,0,122.64,64a5.29,5.29,0,0,0,4.43,3.54,4.9,4.9,0,0,0,4.78-2.84A5.17,5.17,0,0,0,130.27,58.82Zm.77,5.12a3.82,3.82,0,0,1-3.53,2.61,4.18,4.18,0,0,1-3.71-2.38,4.59,4.59,0,0,1,1-5.16h0c1.14-1.1,3.2-.47,4.35.29A4.23,4.23,0,0,1,131,63.94Z"/><path d="M129.72,61.59l-.1-.12a.52.52,0,0,0,0-.57.53.53,0,0,0-.71-.19l-.23-.27c-.18-.2-.35-.47-.64-.54a.65.65,0,0,0-.41.06.5.5,0,0,0-.64,0,.53.53,0,0,0,0,.67l-.21.26a1.15,1.15,0,0,0-.35.85.86.86,0,0,0,.63.68,1.3,1.3,0,0,0,.84-.11l.69-.33.51.37a.51.51,0,0,0,.67-.13A.53.53,0,0,0,129.72,61.59Z"/><path d="M34.64,53.49q-7.49,4-14.59,8.72c-1.07.7-.07,2.44,1,1.73q7.11-4.66,14.59-8.72C36.78,54.61,35.77,52.88,34.64,53.49Z"/><path d="M16.83,64.27a1,1,0,0,0,0,2A1,1,0,0,0,16.83,64.27Z"/><path d="M71.39,94.92a1,1,0,0,0,0,2A1,1,0,0,0,71.39,94.92Z"/><path d="M65.2,98.3a1,1,0,0,0,0,2A1,1,0,0,0,65.2,98.3Z"/></g></svg>