<svg xmlns="http://www.w3.org/2000/svg" viewBox="0 0 200 200"><defs><style>.cls-1{fill:red;}.cls-2{fill:#f7d394;}.cls-3{fill:#eae0b5;}.cls-4{fill:#ffce00;}.cls-5{fill:#d092f4;}</style></defs><title>El tiempo queme</title><g id="Color"><path class="cls-1" d="M196.92,81.5c-1.74-3.7-7.36-3.08-10.7-3.12-3.79,0-8.43-.59-11.67,1.81-1.4,1-2.39,2.24-4.17,2.6-1.51.31-2.95.51-4.1,1.59a23.54,23.54,0,0,0-2.53-.15c-4,0-7.94.22-11.92.22-8.34,0-16.63-.51-24.94-1.09A45.9,45.9,0,0,0,113.5,84L93.91,82.84a1.32,1.32,0,0,0-1.44,1.43A1.59,1.59,0,0,0,92,86.48c-.26.13-.52.24-.77.38A1.51,1.51,0,0,0,92,89.65c20.57-.81,41.17-1.1,61.76-.64q8.81.21,17.61.59a1.27,1.27,0,0,0,.28,0,18.73,18.73,0,0,0,5.21,1.26l.37,0c-.2,1.1-.07,2.34-.35,3.49a8,8,0,0,1-2.23,3.53l-.21.1a1.17,1.17,0,0,0-.7.78c-.73.67-1.48,1.31-2.1,1.92l-9.14,8.83a1.75,1.75,0,0,0-.5.32,7.72,7.72,0,0,0-3.54,3.6l-.14.13c-3.74,3.16-8.17,5.65-11.31,9.32q-4.16,3.12-8.42,6.1a1.33,1.33,0,0,0,0-.19,7.57,7.57,0,0,0,2.35-2.59c1.12-2,1.56-4.62.2-6.64a5.4,5.4,0,0,0-6.17-2.16,1.62,1.62,0,0,0-.9.74c-1.71.31-3.56,1.06-4,2.81a1.57,1.57,0,0,0-1.08,1.43,4.44,4.44,0,0,0,.5,2.26,9,9,0,0,0,4.62,5.22,5.59,5.59,0,0,0,2.22.65c-4.53,3.11-9.79,6.74-15.58,5.59a1.47,1.47,0,0,0-1.49.55c-3.56-.62-7.59,0-11,.22q-11.88.78-23.79,1.13-23.82.71-47.64-.3-12-.51-23.88-1.44c-.11-1.15-.33-2.31-.35-3.29a8.06,8.06,0,0,1,.88-4.29,15.18,15.18,0,0,1,2.87-3.38A121.22,121.22,0,0,1,33,111.91c1.49-1,.26-3.37-1.23-2.75a1.17,1.17,0,0,0-.93-.58c-3.08-.46-5.52,2.58-7.68,4.38l-8,6.73c-2.5,2.09-5.05,4.13-7.47,6.31a19,19,0,0,0-5,6.47c-1.15,2.73-.85,5.42,1.69,7.19a10,10,0,0,0,4.83,1.93,1.46,1.46,0,0,0,1.25.78c29.57,1.62,59.21,3.24,88.83,2,8.34-.36,16.67-1,25-1.83,3.65,2.3,9.39-.44,12.59-2.36,4.74-2.85,8.85-6.77,13-10.37,9.3-8,18.5-16.18,27.45-24.6q7-6.63,13.85-13.49c.08,0,.17-.06.26-.11A19.11,19.11,0,0,0,196.7,87a1.52,1.52,0,0,0,0-2A3.68,3.68,0,0,0,196.92,81.5Z"/><path class="cls-1" d="M135.58,101.57c-1.58-1-3.52-.35-5,.53a9.53,9.53,0,0,0-2,1.65,5.34,5.34,0,0,0-2.28,2.39,5.17,5.17,0,0,0,.12,4.57,4.31,4.31,0,0,0,3.41,2.63,7.44,7.44,0,0,0,7.1-3.75C138.28,107.1,138.2,103.24,135.58,101.57Z"/><path class="cls-1" d="M113.24,117.35a5.82,5.82,0,0,0-5-.07,17.43,17.43,0,0,0-4.61,2.2,1.48,1.48,0,0,0,.26,2.7A3.62,3.62,0,0,0,104,124a3.46,3.46,0,0,0,2.37,2.2,3.28,3.28,0,0,0,1.29.82,4.56,4.56,0,0,0,3.37-.43c2.39-.2,4.72-1.38,5.46-3.83S115.44,118.19,113.24,117.35Z"/><path class="cls-2" d="M104.88,102.49c-.78-1-1.55-2.1-2.33-3.14-1.22-1.61-2.93-3.16-5.06-2.54A7.64,7.64,0,0,0,93,95.7a17.82,17.82,0,0,1-2-1.08c-1.17-.74-1.89-.54-3,.16a13.89,13.89,0,0,0-2.3,1.81c-2.6,2.52-4.47,6.5-8,7.81a1.54,1.54,0,0,0-1,1.79,1.82,1.82,0,0,0-.74,0,11,11,0,0,0-5.29,2.63,1.26,1.26,0,0,0-.44,1.28,6.32,6.32,0,0,0-.93-.28c-2.89-.6-6.14.61-9,1.22-5,1.08-10.16,2-15.28,1.65a20.13,20.13,0,0,0-3.63-.54l-.1,0a1.53,1.53,0,0,0-.74,0,8.86,8.86,0,0,0-2.61.43c-4.44,1.5-7.16,6.74-8.28,11a20.72,20.72,0,0,0-.62,7.06c.18,2.06.48,4.59,2.15,6s4.26,1.11,6.42,1c3-.15,5.9-.13,8.84,0,5.89.17,11.79.6,17.68.47,2.41-.06,5.34.14,7.6-.8a5,5,0,0,0,.61-.32,1.43,1.43,0,0,0,1.17.6l6.89.18a1.52,1.52,0,0,0,1.47-1.67,10.75,10.75,0,0,0,1.75-2.17,20.64,20.64,0,0,0,3-7.35,17.27,17.27,0,0,0-1.09-9c1.16,1.55,3.22,1.21,4.35-.19.51-.63.7-1.3,1.5-1.59s1.67-.26,2.47-.54A5.26,5.26,0,0,0,97,111.88c.55-1.39.75-3,2-3.92,1.48-1,2.84-.67,4.38-.09s3.63-.34,3.37-2.29C106.61,104.41,105.55,103.4,104.88,102.49Z"/><path class="cls-3" d="M154.22,112.15c-.52-2.67-3.65-3.76-5.89-4.59a26.55,26.55,0,0,0-8.46-1.61,1.48,1.48,0,0,0-1.18,2.37,1.18,1.18,0,0,0-.11.19,10.93,10.93,0,0,1-7.39,6.13,3,3,0,0,0-.79-.25,5.68,5.68,0,0,1-2.77-.87,4.09,4.09,0,0,1-1.57-2.59c-.14-1,.14-2-.06-3.07a3.25,3.25,0,0,0-2.25-2.56,5.43,5.43,0,0,0-3.18.33,9.2,9.2,0,0,1-4.22.57c-2.53-.35-4.74-1.51-7.09.14-.27.18-.51.38-.75.57a29.37,29.37,0,0,0-2.86.83l-.31.11c-.77,0-1.55-.18-2.32-.21-2.79-.11-4.6,1.24-6.06,3.5a11.3,11.3,0,0,1-4.6,4.35,9.89,9.89,0,0,0-1.81.72A1.39,1.39,0,0,0,90,118.1a18,18,0,0,0-2.86,4.9c-1.71,4.12-3.17,8.36-4.55,12.59a1.51,1.51,0,0,0,1.44,1.9l27.65-.86c8-.25,16.34-.26,23.51-4.23,1.69-.94.18-3.53-1.51-2.59-.4.21-.8.42-1.21.61,0,0,0,0,0,0a20.53,20.53,0,0,1-3.32-5.23c0-.17,0-.33,0-.47a15.29,15.29,0,0,0-.17-4,3.88,3.88,0,0,1,1.74-2.12,4.6,4.6,0,0,0,1.22-.86c2,.14,9,.68,8.89,1.23a1.53,1.53,0,0,0,1.28,1.87,15.94,15.94,0,0,0-1,2.63,1.51,1.51,0,0,0,2.5,1.46l6.91-6.09C152.46,117.05,154.77,115,154.22,112.15Zm-37.62,8.63c.05.86.11,1.73.17,2.6a1.36,1.36,0,0,0-.77.64,8.35,8.35,0,0,1-8.06,3.78c-3.17-.3-5.65-2.53-5.26-5.88.36-3.11,3.18-5.17,6.16-5.5a10.63,10.63,0,0,1,8.23,3.2A1.27,1.27,0,0,0,116.6,120.78Z"/><path class="cls-4" d="M51.1,98a1.54,1.54,0,0,0-.44-1.06,1.5,1.5,0,0,0-1.06-.44,1.47,1.47,0,0,0-1.06.44A1.5,1.5,0,0,0,48.1,98a25.72,25.72,0,0,1,.09,3.51,1.5,1.5,0,0,0,1.5,1.5,1.52,1.52,0,0,0,1.5-1.5A25.72,25.72,0,0,0,51.1,98Z"/><path class="cls-4" d="M80.81,67.84a20.6,20.6,0,0,1-2.35-.15l-.9-.15a1.61,1.61,0,0,0-1.16.15,1.52,1.52,0,0,0-.69.9,1.49,1.49,0,0,0,.15,1.15,1.45,1.45,0,0,0,.9.69,21.16,21.16,0,0,0,4,.41,1.51,1.51,0,0,0,1.06-.43,1.52,1.52,0,0,0,.44-1.07A1.54,1.54,0,0,0,80.81,67.84Z"/><path class="cls-4" d="M72.46,91.7a2.33,2.33,0,0,0-.85-1.43,1.82,1.82,0,0,0-.79-.27l-.26,0h0l-.1,0-.2,0-.09,0s-.13,0,0,0a.53.53,0,0,0-.39,0,.52.52,0,0,0-.3.23.51.51,0,0,0,.18.68,2.76,2.76,0,0,0,.54.16.51.51,0,0,0,.49.42h0l.1,0,.16.05,0,0,.08,0,.08.05.06,0,0,0,.06.07.06.06,0,0,.09.14a.59.59,0,0,1,0,.08v0a.5.5,0,0,0,1-.26Z"/><path class="cls-4" d="M29.89,89.4a.48.48,0,0,0,0-.55.5.5,0,0,0-.68-.18l-1.43.88a4.21,4.21,0,0,0-1.25,1,.91.91,0,0,0-.1.94.7.7,0,0,0,1,.25,1.26,1.26,0,0,0,.35-.34l.09-.11a.18.18,0,0,1,.05-.07h0a3.63,3.63,0,0,1,.47-.49l0,0,.06,0,.12-.08a3.37,3.37,0,0,1,.32-.19l.16-.09.07,0,.06,0h0l.1,0,.2-.06a.52.52,0,0,0,.35-.62S29.9,89.43,29.89,89.4Z"/><path class="cls-4" d="M25.47,70.87c-.49-.49-1.27-.3-1.89-.31a19,19,0,0,1-2.25-.21c-.27,0-.5.25-.5.5a.35.35,0,0,0,0,.14.48.48,0,0,0,0,.68,4.58,4.58,0,0,0,4.22.91.46.46,0,0,0,.34-.41.79.79,0,0,0,.23-.28A.87.87,0,0,0,25.47,70.87Z"/><path class="cls-4" d="M31.88,51.41a6.88,6.88,0,0,0-.54-.67,5.9,5.9,0,0,0-1.44-1.13.51.51,0,0,0-.68.17.63.63,0,0,0-.24.29,1.13,1.13,0,0,0,.35,1.2,5,5,0,0,0,.31.61,7,7,0,0,0,.51.7,2,2,0,0,0,.63.54,1.09,1.09,0,0,0,1,0,.89.89,0,0,0,.47-.87A1.77,1.77,0,0,0,31.88,51.41Z"/><path class="cls-4" d="M52.18,43.49A12.26,12.26,0,0,0,51.72,41a.5.5,0,0,0-.84-.19.49.49,0,0,0-.65.46c0,.73,0,1.46,0,2.2v1.12a2.12,2.12,0,0,0,.13.87.92.92,0,0,0,1.64.1,1.85,1.85,0,0,0,.22-1.06A9.1,9.1,0,0,0,52.18,43.49Z"/><path class="cls-4" d="M72.18,50.64l-.09,0a.43.43,0,0,0-.41-.08,5.47,5.47,0,0,0-2.48,1.64.5.5,0,0,0,.1.78,2.29,2.29,0,0,0,3.38-1.86A.5.5,0,0,0,72.18,50.64Z"/><path class="cls-4" d="M68.17,83.68l-13.66.53c-2.22.09-4.44.14-6.66.27l-.49,0a18.72,18.72,0,0,0,2.23-3.6,1.58,1.58,0,0,0,.6-.83l.09-.25a5,5,0,0,1,.29-.5,4.11,4.11,0,0,1,.59-.59l-.14.11a1.22,1.22,0,0,0,.39-.36,1.14,1.14,0,0,0,.27-.51,1.13,1.13,0,0,0,0-.18A24.35,24.35,0,0,0,56,71.93c.8-1.54,1.48-3.14,2.14-4.75s1.58-3.36,1.06-5.12A3.48,3.48,0,0,0,58.69,61a6.25,6.25,0,0,0-.31-3.8,13,13,0,0,0-4.16-5,1.54,1.54,0,0,0-1.28-.32,7.81,7.81,0,0,0-1.61-1.28,2.42,2.42,0,0,0-2.36,0,10.68,10.68,0,0,0-8.22,2.58c-2.12,1.88-4.26,5.79-3.29,8.71a2.07,2.07,0,0,0,3.36,1,4.16,4.16,0,0,0,.88-1.74,5.68,5.68,0,0,1,1.35-2,5,5,0,0,1,7.61.35c2.21,2.87,0,7.32-1.43,10.09a54.82,54.82,0,0,1-6.16,9.09C42,80,40.83,81.38,39.7,82.74s-2.28,2.67-2.31,4.46c0,4.35,5,3.67,7.87,3.52L59.69,90c4-.21,8.26-.61,10.57-4.29C71.15,84.27,69.34,83,68.17,83.68Z"/><path class="cls-5" d="M92.61,66.4l.06-.45a1.47,1.47,0,0,0-.3-.89,42.73,42.73,0,0,0-5.84-14.45,39.73,39.73,0,0,0-3.37-4.48,1.15,1.15,0,0,0-.37-1.53l-3.79-3A31.46,31.46,0,0,0,75.87,39c-8.45-6.16-19.41-7.92-29.57-6.08a45.66,45.66,0,0,0-6.21,1.61,1.48,1.48,0,0,0-1.74-.19,7.64,7.64,0,0,1-1,.54,8.54,8.54,0,0,1-1.8.48,9,9,0,0,1-1.27,0,1.51,1.51,0,0,0-1.49,1.42,11.74,11.74,0,0,0-1.26.68A38.37,38.37,0,0,0,10.32,78.8a1.26,1.26,0,0,0-.52,1.55l3.09,7.83a1.21,1.21,0,0,0-.43,1.51c3.7,10.08,12.31,17.7,22.46,21,11.84,3.81,24.84,1.72,35.77-3.84a64.89,64.89,0,0,0,11.72-7.76,1.46,1.46,0,0,0,1.14-.4A19.07,19.07,0,0,0,86.09,96l.68-.72a1.6,1.6,0,0,0,.37-.65,1.39,1.39,0,0,0,.89-.67,33.44,33.44,0,0,0,3.45-8.37A41.34,41.34,0,0,0,92.61,66.4Zm-14.82,27-1.2,1.57-.42.4a1.44,1.44,0,0,0-.46.43,50.42,50.42,0,0,1-6.6,5.47,52.45,52.45,0,0,1-23.56,5.15A41.38,41.38,0,0,1,27.79,98.3a29.93,29.93,0,0,1-5-8.35,1.36,1.36,0,0,0-.05-.88c-1.19-3.17-2.51-6.34-3.68-9.56a1.52,1.52,0,0,0,.08-1.43c-2.56-5.67-1.52-11.55.06-17.27.67-1.25,1.34-2.5,2-3.77a1.45,1.45,0,0,0,.59-.61c4.8-8.72,12.46-16.88,22.63-18.27a1.48,1.48,0,0,0,1.23.28A36.9,36.9,0,0,1,69.28,42,50.76,50.76,0,0,1,78,49.69c4.14,4.79,6,10.5,7.47,16.5A48.22,48.22,0,0,1,77.79,93.37Z"/></g><g id="Capa_1" data-name="Capa 1"><path d="M109.37,128.23a6,6,0,0,1-2.52-.23c-.88-.38-1.73-.83-2.57-1.28a2.82,2.82,0,0,1-1.37-2.06c-.18-.93-.69-1.82-.47-2.82a.35.35,0,0,0,0-.25c-.46-.68,0-1.12.35-1.65a10.44,10.44,0,0,1,2.82-2.65,8.16,8.16,0,0,1,6-1.56,7.91,7.91,0,0,0,1.18.14,5.2,5.2,0,0,1,3.74,1.93,7.77,7.77,0,0,1,1.25,2.28,1.06,1.06,0,0,1-.34,1.3,1.51,1.51,0,0,1,.27,1.24,11.17,11.17,0,0,1-1.59,3,3.32,3.32,0,0,1-1.32,1c-.66.37-1.33.75-2,1.06a5.64,5.64,0,0,1-2.2.52C110.17,128.24,109.77,128.23,109.37,128.23Zm1.3-11.21a7.68,7.68,0,0,0-5.47,2.09c-.21.21-.27.56-.47.68-1,.63-.91,1.53-.68,2.47.14.55.29,1.1.43,1.65a2.37,2.37,0,0,0,1.27,1.62,7.65,7.65,0,0,0,4.83,1c.67-.13,1.33-.29,2-.44a5.45,5.45,0,0,0,3.72-4,3.67,3.67,0,0,0-1.6-3.68A6,6,0,0,0,110.67,117Z"/><path d="M197.26,79.27c-.71-.43-1.56-.52-2.25-1a6.06,6.06,0,0,0-2.34-.71c-.31,0-.63,0-.93-.06a32.36,32.36,0,0,0-6.3-.09c-2.38.14-4.76.24-7.14.46-1.26.12-2.51.38-3.79.42a1.06,1.06,0,0,0-1.08,1,1.71,1.71,0,0,1-.59,1.17,2.68,2.68,0,0,0-.45.5,4.22,4.22,0,0,1-2.78,1.9,15.18,15.18,0,0,1-2.75.53,32.7,32.7,0,0,1-3.71.47c-1.59,0-3.18,0-4.77.18-.82.06-1.64,0-2.47,0-2.33,0-4.66,0-7,0a9.49,9.49,0,0,1-1.43.15c-.87-.09-1.75-.11-2.63-.17-1.61-.12-3.23,0-4.85-.11-1.31,0-2.59-.38-3.89-.36-4,0-8.07-.19-12.09-.49-2.93-.22-5.85-.25-8.77-.28s-5.8,0-8.7,0a10.64,10.64,0,0,0-1.69-.09,15.58,15.58,0,0,1-2.81.1c-2.07-.06-4.15-.14-6.22,0a4.82,4.82,0,0,1-2-.42.37.37,0,0,1-.14-.07.51.51,0,0,0,.15-.34c.13-7.77.08-15.69-2.11-23.21a36,36,0,0,0-4.27-9.5,33.26,33.26,0,0,0-6.13-6.84c-.13-.14-.25-.29-.38-.42-.77-.79-1.57-1.54-2.38-2.29-.43-.4-.88-.79-1.35-1.16a19.46,19.46,0,0,0-4.11-2.48l-1.94-.86-.31-.2A.41.41,0,0,0,70.6,35a23.26,23.26,0,0,0-2.71-1,40.25,40.25,0,0,0-6.76-1.77l-.67-.1c-1.09-.15-2.21-.24-3.31-.38l-.5-.06-.62,0a46,46,0,0,0-8.13,0l-.58,0-.49.06-.54,0H46L45,32l-1,.27c-.42.07-.83.15-1.24.24a2.43,2.43,0,0,1-.27,0,43.09,43.09,0,0,0-5.77,1.75A43.86,43.86,0,0,0,18.52,47.35,41.45,41.45,0,0,0,9.69,68.61,44.67,44.67,0,0,0,12.3,89.72a27.41,27.41,0,0,0,4.25,8.7,19.33,19.33,0,0,0,4.93,6.14,13.29,13.29,0,0,0,2.4,1.75c1.11.61,2.08,1.43,3.19,2.06a.54.54,0,0,1-.29.33,10.83,10.83,0,0,0-2.6,1.89A7.09,7.09,0,0,1,23,111.75a21.66,21.66,0,0,0-3.09,2.48,18.3,18.3,0,0,1-2,1.84,15.52,15.52,0,0,0-1.56,1c-1.25,1.28-2.68,2.35-4,3.51a9.45,9.45,0,0,0-1.06.83c-1.13,1.29-2.65,2.12-3.83,3.36a4.45,4.45,0,0,1-.89.78,7.75,7.75,0,0,0-2.41,2.68,4.9,4.9,0,0,1-1,1.27,8.27,8.27,0,0,0-1.76,2.67,3.77,3.77,0,0,0-.51,1.44c-.12,1.16-.25,2.32-.27,3.48a2.56,2.56,0,0,0,1.3,2.33,13.71,13.71,0,0,1,1.22.9,3.92,3.92,0,0,0,1.47.95,21.46,21.46,0,0,1,2.8,1,12.7,12.7,0,0,0,3.54.84,3.88,3.88,0,0,1,2.12.75c3.72,4.9,5,11.36,8.9,16.11.15.3.28.59.45.88a5.33,5.33,0,0,0,1.39,1.58,6.54,6.54,0,0,0,.4.52,5.55,5.55,0,0,0,3.17,1.73,2.19,2.19,0,0,0,1,.33c.59.06,1.19,0,1.78.1.92.14,1.84.29,2.77.35s1.7.08,2.55.09a.66.66,0,0,0,.15,0q14.8.28,29.6.33t29.61-.15c2.37,0,4.75-.09,7.12-.13.71,0,1.42,0,2.13,0l1.33,0,6.15-.11a.5.5,0,0,0,.13,0h.15a.46.46,0,0,0,.27-.09,5.2,5.2,0,0,0,2.24-.2c.95-.31,1.82-.77,2.75-1.12a8.86,8.86,0,0,0,2.11-1.54,4.56,4.56,0,0,1,1.22-.75,12.36,12.36,0,0,0,1.32-.64,32.21,32.21,0,0,0,3.17-2.1,1.81,1.81,0,0,1,.66-.37,2.59,2.59,0,0,0,1.08-.65,26.71,26.71,0,0,1,3.11-2.18,22.79,22.79,0,0,0,2.65-1.84,20.88,20.88,0,0,1,1.88-1.36c6.35-3.41,12.14-7.86,17.77-12.35a9.88,9.88,0,0,0,1.2-.78c.7-.49,1.39-1,2.07-1.47s1.34-1.46,2.3-1.83c.09,0,.16-.15.22-.25a9.83,9.83,0,0,1,1.37-1.66c.63-.66,1.44-1.17,1.73-2.11,0-.1.15-.17.22-.26a5.24,5.24,0,0,0,1.06-1.39,4.74,4.74,0,0,1,1.23-1.8,2.92,2.92,0,0,0,.77-1.19,5.12,5.12,0,0,1,.74-1.33,55.16,55.16,0,0,0,3.74-6.27,2.52,2.52,0,0,1,1.13-1.42c.17-.07.19-.25.27-.41a16.64,16.64,0,0,1,1.65-2.94,3.79,3.79,0,0,0,.77-1.1c.34-1,1.09-1.88,1.25-3,0-.05.06-.09.1-.13a2.33,2.33,0,0,0,.56-1.41c.17-.3.34-.6.5-.9a15.47,15.47,0,0,0,1.52-1.29c1-.87,2-1.75,2.93-2.69a13,13,0,0,1,1.53-1.44,3.88,3.88,0,0,0,1-1c.09-.13.13-.32.28-.41a17.09,17.09,0,0,0,2.58-2.45,19.56,19.56,0,0,0,1.45-1.43,15.75,15.75,0,0,1,2.55-2.48c.17-.13.39-.18.55-.37a6.13,6.13,0,0,1,2.13-2c.12,0,.21-.19.31-.29.81-.79,1.59-1.62,2.44-2.35s1.45-1.57,2.24-2.29a5.61,5.61,0,0,0,1.25-1.79c.45-1,.76-2.07,1.12-3.11A3.57,3.57,0,0,0,197.26,79.27Zm-170.53,27s-.06-.07-.08-.11-.24-.15-.36-.21l-.41-.21a32.31,32.31,0,0,1-4.29-3.2c-.26-.23-.5-.48-.74-.72a37.7,37.7,0,0,1-5.76-8.23,41.63,41.63,0,0,1-1.8-4c-.16-.58-.32-1.15-.44-1.74a.41.41,0,0,0-.3-.34,43.74,43.74,0,0,1-2.1-16.1,41,41,0,0,1,7.26-21.29A41.75,41.75,0,0,1,31.89,37.6h0a46.76,46.76,0,0,1,4.56-1.92h0l.81-.3a48,48,0,0,1,8.78-2.09c8.71-.12,17.74,0,25.79,3.58a75.83,75.83,0,0,1,9,6.44C82,44.58,83,46,84.14,47.27a10.12,10.12,0,0,1,1.11,1.57,32.44,32.44,0,0,1,6.11,14,18.7,18.7,0,0,1,.69,3.47,1.19,1.19,0,0,0,.11.41,4.5,4.5,0,0,1,.32,1.58c0,.54,0,1.07.1,1.61a1.31,1.31,0,0,0,.09.48l.06.84c-.15.15-.07.4-.07.6,0,2,.07,4.09.08,6.13a22.31,22.31,0,0,1-.25,4.17,33,33,0,0,1-1.95,6,29.06,29.06,0,0,1-2,4,4.92,4.92,0,0,1-.86,1.35,14.87,14.87,0,0,0-1.37,1.69l-.29.36a6.74,6.74,0,0,1-.47.62,8.36,8.36,0,0,1-1.44,1.59l-.37.31a.46.46,0,0,0-.37.13,54.19,54.19,0,0,1-30.17,13.08,47.37,47.37,0,0,1-20.78-2.33.45.45,0,0,0-.27-.18l-.59-.15-1-.4a5.48,5.48,0,0,0-1.26-.57C28.47,107.2,27.59,106.76,26.73,106.26Zm127.94,5a4,4,0,0,1-.07-.59,1.94,1.94,0,0,0-1.88-1.91l-1.7-.19a.77.77,0,0,1-.74-.59c-.06-.21-.2-.41-.27-.62a2,2,0,0,0-2.12-1.56,12.76,12.76,0,0,0-2.62.22c-1,.18-1.22,0-1.64-.77s-.77-.92-1.7-.79a29.43,29.43,0,0,1-3,.21c-.45,0-.67-.35-.86-.69a15.28,15.28,0,0,0-.77-1.51,7.33,7.33,0,0,0-2.29-2,2.53,2.53,0,0,0-2.23,0c-.66.25-1.33.47-2,.74a9.81,9.81,0,0,0-3.25,2.26c-.43.45-.88.89-1.33,1.32-.67.65-.91.7-1.72.27a11.82,11.82,0,0,1-1.26-.69,2,2,0,0,0-2.44,0,15.29,15.29,0,0,1-3.67,1.75,1.37,1.37,0,0,1-1.23-.09,9.77,9.77,0,0,0-2.18-.94,5.43,5.43,0,0,0-3.24,0c-.68.24-1.35.51-2,.8a.5.5,0,0,1-.43.19h0a.34.34,0,0,1-.54-.21c-.08-.21-.14-.43-.22-.65-.58-1-.93-2-1.5-3s-1.21-1.77-1.78-2.68a1.58,1.58,0,0,1-.31-.32,7,7,0,0,0-2.9-2.13c-1-.47-2-1-3-1.43a18.51,18.51,0,0,0-3.26-.89,2.84,2.84,0,0,1-.51-.06A17.1,17.1,0,0,0,89.82,94c-.58-.08-.59-.13-.32-.63.5-.91,1-1.83,1.46-2.76a.65.65,0,0,1,.74-.41A17.63,17.63,0,0,0,96.17,90a.44.44,0,0,1,.16,0c1.18.15,2.29-.34,3.45-.32,2.07,0,4.14-.25,6.2-.11,1,.06,2-.1,3-.13a26.81,26.81,0,0,1,3.23.1,21,21,0,0,0,2.38,0c1.9-.05,3.79,0,5.69.07a14.49,14.49,0,0,0,2.55,0,16.74,16.74,0,0,1,2.12,0c2.07,0,4.15,0,6.22,0,1.25,0,2.5.07,3.75.05,2.1,0,4.2.08,6.3.08,1.78,0,3.57,0,5.35,0s3.28.21,4.92.15a16.44,16.44,0,0,1,1.86-.06,14,14,0,0,1,1.94.17,19.31,19.31,0,0,0,3.4.13c1.31,0,2.62.2,3.91.12a37.21,37.21,0,0,1,4.09,0,19.31,19.31,0,0,1,4.61.54,2.85,2.85,0,0,0,.76.11,9,9,0,0,1,3.86.9c1.19.55,1.16,1.21.72,2.18a9.45,9.45,0,0,1-2.14,2.72,36.16,36.16,0,0,1-4.66,4.19,26.79,26.79,0,0,0-5,4.9,8.25,8.25,0,0,0-1.52,1.9.75.75,0,0,1-.17.19c-1,.79-1.79,1.71-2.75,2.5a13.61,13.61,0,0,0-1.92,1.79,14.27,14.27,0,0,1-2.15,1.9,17.38,17.38,0,0,1-1.64,1.17l-.14-.1A4.79,4.79,0,0,0,154.67,111.29Zm-1.91,5.21c0,.23-.17.4-.35.54l-4.47,3.52c-1.07.84-2,1.86-3,2.76-.84.74-1.7,1.47-2.55,2.21a4.91,4.91,0,0,0,.11-1.91c.07-.31,0-.63,0-.89a3.34,3.34,0,0,0-.33-2,1.88,1.88,0,0,1-.13-.58,3.82,3.82,0,0,0-2.75-3.13,7.56,7.56,0,0,0-3.68-.48,6.77,6.77,0,0,1-1.27.07,4.47,4.47,0,0,0-2.41.74c-.39.22-.74.53-1.14.73a4.05,4.05,0,0,0-1.39,1.34c-.18.24-.37.49-.53.75a4.8,4.8,0,0,0-.91,3.36,17.19,17.19,0,0,0,.84,2.84,5.23,5.23,0,0,0,1.12,2,8.2,8.2,0,0,0,.91.86.42.42,0,0,0,.24.37c.23.13.47.22.71.33a10.68,10.68,0,0,0,2.06,1,.6.6,0,0,0,.22,0l.13.06a3.35,3.35,0,0,0,1.18.18c-.4.28-.8.55-1.19.84-.82.62-1.87.83-2.71,1.41a6.82,6.82,0,0,1-2.24.89,16.76,16.76,0,0,1-3.7.88c-1.09,0-2.14.33-3.22.36-2.12.07-4.25.11-6.38.17-1.36,0-2.72.16-4.09.08a9.75,9.75,0,0,0-1.42.22c-.91.07-1.82,0-2.73,0-1.79,0-3.57.14-5.36.21-1,0-2.05,0-3.07.1-2.47.13-4.94.26-7.41.17-1.8-.06-3.56.17-5.34.28l-.43,0-3.3-.27a.46.46,0,0,1,.06-.25c.72-1.35,1.46-2.68,2.21-4l.29-.52c.06-.15.12-.29.17-.44a25,25,0,0,1,1.27-2.66,1.23,1.23,0,0,0,.08-.33,37.79,37.79,0,0,0,.74-5.89,3.17,3.17,0,0,1,.94-2.54,23.13,23.13,0,0,0,2.22-3.08,1.59,1.59,0,0,1,1.14-.76,19.92,19.92,0,0,0,3-.54,2.79,2.79,0,0,0,1.39-.93,5.66,5.66,0,0,0,1.43-2.93,4.41,4.41,0,0,1,1.58-2.8,3.4,3.4,0,0,1,2-.72,7.31,7.31,0,0,1,2.27.23,10.64,10.64,0,0,0,3,.33.69.69,0,0,0,.62-.36,5.09,5.09,0,0,1,3.6-2.16,5.2,5.2,0,0,1,3.22.48c.43.22.85.46,1.29.65a2.46,2.46,0,0,0,1.92,0,12.9,12.9,0,0,0,2.64-1.35,3.15,3.15,0,0,1,4.1.36c.17.16.26.4.5.46.56.15.59.57.46,1a3,3,0,0,0,.06,2.23,2.16,2.16,0,0,1,.11.76,3.12,3.12,0,0,0,1.56,2.46,6.49,6.49,0,0,0,6,.82c.65-.19,1.23-.6,1.87-.8a3.83,3.83,0,0,0,2-1.26c.55-.73,1.36-1.21,1.77-2.08a8.37,8.37,0,0,0,.35-2.41c.05-.27,0-.57,0-.85a.76.76,0,0,1,.63-.68,7.67,7.67,0,0,1,2.18-.23.88.88,0,0,1,1,.91c.11,1.27.12,1.32,1.33.8a10.34,10.34,0,0,1,3.06-.66,1.82,1.82,0,0,1,1.73.68,1.37,1.37,0,0,1,.33,1c0,.11-.05.22-.07.33-.21,1.18.07,1.45,1.28,1.13a8.71,8.71,0,0,1,1.34-.22,2.23,2.23,0,0,1,2.27,2.05,5.92,5.92,0,0,1-.25,2.77c-.06.13-.08.3-.17.38A1.48,1.48,0,0,0,152.76,116.5Zm-11.64,7.87c0,.17-.07.35-.11.52a13.13,13.13,0,0,1-1.11,2.58.48.48,0,0,0-.06.3,16,16,0,0,1-2.3,1.71,5.66,5.66,0,0,1-2,.05c-.42-.07-.82-.22-1.23-.33h-.05a11.55,11.55,0,0,0-1.3-.79,4.27,4.27,0,0,1-1.87-1.67,27.93,27.93,0,0,1-1.25-2.51,2.64,2.64,0,0,1,0-2.31c.21-.43.36-.88.54-1.32a2.31,2.31,0,0,1,.74-1.12,7.37,7.37,0,0,1,5.09-1.53,7.27,7.27,0,0,1,2.84.78,3.76,3.76,0,0,1,1.94,2.41,4.59,4.59,0,0,1,.08,2.52A1,1,0,0,0,141.12,124.37ZM73.33,135.13a13.74,13.74,0,0,1-1.43,2c-1.23,0-2.47.06-3.7.12-.46,0-.91,0-1.37,0-.25,0-.35-.15-.24-.4a6.13,6.13,0,0,1,.49-1.17,5,5,0,0,0,.78-2c.14-.89.38-1.76.56-2.64a12,12,0,0,0-.38-5.38c-.26-1-.67-1.93-1-2.89a4.91,4.91,0,0,1-.46-2c0-.33-.16-.66-.18-1a10.91,10.91,0,0,1,1.2-6c.32-.62.63-1.26,1-1.87.75-1.3,1.53-1.47,2.8-.68a8.52,8.52,0,0,1,2,1.8c.42.5.45.66.12,1.21a14.24,14.24,0,0,0-2,6.19,4.92,4.92,0,0,0,.35,2.16,16.26,16.26,0,0,1,1,6.44,12.06,12.06,0,0,1-.73,2.71c-.35,1.2-1.29,2-1.89,3.08a2.61,2.61,0,0,1-.22.27.38.38,0,0,0,.53.54,7,7,0,0,0,1.67-1.76,27.26,27.26,0,0,0,1.64-4.27,8.13,8.13,0,0,0,.19-3.29,18,18,0,0,0-1-4.2,6.63,6.63,0,0,1,.17-4.66A13.1,13.1,0,0,0,74,115.7a.53.53,0,0,1,.48-.43c.25,0,.32.21.4.37a6.52,6.52,0,0,1,.41.94,12.41,12.41,0,0,1,1.1,4.59c0,.33,0,.66,0,1a18.76,18.76,0,0,1,.22,2.09c0,.13,0,.26,0,.39a4.16,4.16,0,0,1,0,1.27l0,.08a9,9,0,0,1-.53,2.4c0,.08,0,.16-.06.25-.1.29-.21.58-.3.88a3.19,3.19,0,0,1-.2.46c-.12.32-.24.64-.37,1s-.34.76-.52,1.14a2.22,2.22,0,0,1-.24.49c-.4.82-.81,1.65-1.16,2.5A.46.46,0,0,0,73.33,135.13Zm-19-2.67c0-.88-.13-1.75-.06-2.64,0-.36-.25-.69-.34-1a12.69,12.69,0,0,0-1.15-3.19.82.82,0,0,1-.09-.41c0-1.85-.59-3.72.19-5.54a13.7,13.7,0,0,1,1.54-4.35,2,2,0,0,1,1-1,1.58,1.58,0,0,0,.9-.86,1.16,1.16,0,0,1,1.16-.7,14.37,14.37,0,0,0,1.61-.14,4.76,4.76,0,0,0,1.4-.32.71.71,0,0,1,.65,0,2.34,2.34,0,0,1-.41.87,9.19,9.19,0,0,0-1.32,2.66,5.72,5.72,0,0,0-.63,2.08,24.7,24.7,0,0,0,.29,3.22,15,15,0,0,1,.25,2.11,10.83,10.83,0,0,0,.46,2.59,10.15,10.15,0,0,1,.47,2.28,27,27,0,0,1,.14,3.48,14.9,14.9,0,0,1-.6,3.93,2.28,2.28,0,0,1-.28,1,2.8,2.8,0,0,1-1.12,1.19,3.73,3.73,0,0,1-1.78.27c-.42,0-.83-.07-1.24-.13q-.93,0-1.86,0c-.46,0-.54-.2-.28-.6a12.32,12.32,0,0,0,1.14-3.16A5.06,5.06,0,0,0,54.36,132.46Zm-26-1.24a2.74,2.74,0,0,1,.3,1,9.55,9.55,0,0,0,1.42,3.15,3.49,3.49,0,0,1,.48.89c.13.58-.05.88-.63.8-1.45-.18-2.89,0-4.34,0a3.07,3.07,0,0,0-.42,0c-2,.22-3.94-.38-5.88-.75-1.42-.28-2.86-.47-4.26-.87a5.51,5.51,0,0,1-1.7-.93,1.87,1.87,0,0,1-.61-1.78c0-.48.1-1,.1-1.45a3.09,3.09,0,0,1,.8-1.65,25.38,25.38,0,0,1,1.93-2.33,6.76,6.76,0,0,1,.52-.55c1.46-1.29,2.95-2.54,4.34-3.91a31.18,31.18,0,0,1,3.13-2.59c.67-.51,1.34-1,2-1.48a10.54,10.54,0,0,0,1.25-1.25A9.8,9.8,0,0,1,28.63,116a11.08,11.08,0,0,0,1.83-1.35c.6-.54,1.34-.85,1.92-1.38a.37.37,0,0,1,.21-.13c1-.07,1.28-.86,1.64-1.53.17-.32.33-.35.58-.26a20.25,20.25,0,0,0,2.76.69,6,6,0,0,0-2.3,1.54,3.38,3.38,0,0,0-.48.33,18.74,18.74,0,0,0-3.54,3.63c-.61.85-1.22,1.69-1.81,2.55a4.71,4.71,0,0,0-.83,2.46,5.48,5.48,0,0,1-.33,1.75,3.37,3.37,0,0,0-.23,1.08c-.06,1.25-.13,2.49-.17,3.74A3.91,3.91,0,0,0,28.33,131.22Zm1.85.39c-1-2.16-.67-4.37-.52-6.6a25,25,0,0,1,.41-2.75,7.23,7.23,0,0,1,1.44-3,17.7,17.7,0,0,1,2.63-3,.2.2,0,0,1,.27,0c-.29.71-.71,1.37-1,2.08a16.54,16.54,0,0,0-1.31,3.58,6.42,6.42,0,0,0,.36,4.48c.43.74,1,1.4,1.39,2.13a6.53,6.53,0,0,1,1,4A7,7,0,0,1,34,135c-.33.68-.93.7-1.51.18A10.8,10.8,0,0,1,30.18,131.61Zm4.55,4.06a20.66,20.66,0,0,0,1.1-2.66,4.94,4.94,0,0,0-.2-3.41c-.21-.59-.46-1.16-.71-1.73a6.65,6.65,0,0,0-1.09-1.7,4.07,4.07,0,0,1-.85-3.11,14.14,14.14,0,0,1,2.26-6.18,14.61,14.61,0,0,1,2.25-2.53,1.9,1.9,0,0,0,.36-.39c.6-.38,1.21-.76,1.79-1.17a.49.49,0,0,0,.18-.2c.35,0,.7.08,1,.1a4.7,4.7,0,0,1,1.35.15.8.8,0,0,0,.59,0,5.35,5.35,0,0,1,3,0,14.64,14.64,0,0,0,1.85.24c.49,0,.57.17.34.57a9.42,9.42,0,0,0-1.11,2.46,4.45,4.45,0,0,1-.41,1,12.84,12.84,0,0,0-1.12,4.68c0,.63-.08,1.26-.07,1.89.18,1,.37,2.11.61,3.15.18.57.35,1.14.57,1.69a9,9,0,0,1,.55,3.59,5.21,5.21,0,0,1-1.58,3.73,1.54,1.54,0,0,1-1,.47h-.05c-.33,0-.48,0-.56.17a14.52,14.52,0,0,1-3.93.93c-.62,0-1.24,0-1.86,0a13.92,13.92,0,0,1-4.28-.81A2,2,0,0,0,34.73,135.67ZM46.5,136a6.65,6.65,0,0,0,1.73-5.39,16.05,16.05,0,0,0-1-4.1,11.09,11.09,0,0,1-.51-6.76,15.64,15.64,0,0,1,1.79-4.53,7.37,7.37,0,0,1,1.32-1.62,1.27,1.27,0,0,1,1-.39,11.13,11.13,0,0,0,3,0c.15,0,.36-.06.44.14s0,.27-.12.39a15.1,15.1,0,0,0-1.52,3A20,20,0,0,0,51.4,122a11.9,11.9,0,0,0,.09,3,19.83,19.83,0,0,0,.85,3.64,12.62,12.62,0,0,1,.47,5.63c-.06.37,0,.74-.07,1.11a2.72,2.72,0,0,1-1.61,2.33,1.16,1.16,0,0,1-1,.07,3.33,3.33,0,0,0-1.42-.22c-1.13,0-2.26,0-3.59-.1A14.66,14.66,0,0,0,46.5,136Zm14.23.34a9.73,9.73,0,0,0,.78-3.52,18.51,18.51,0,0,0-.25-5.25,30.58,30.58,0,0,0-.65-3.41,4.55,4.55,0,0,1-.14-1.69,7.91,7.91,0,0,0-.13-2.12,8.13,8.13,0,0,1,0-2.87,13.42,13.42,0,0,1,.78-2.94,1.89,1.89,0,0,1,.69-.82c.68-.47,1.45-.91,1.47-1.92,0-.24.21-.32.38-.41a7.29,7.29,0,0,1,1.41-.6,12.69,12.69,0,0,0,2.33-.76,1.86,1.86,0,0,1,1-.24,1.4,1.4,0,0,1-.42.94,17.07,17.07,0,0,0-1.85,3.7,25.9,25.9,0,0,0-.88,3.18,6.53,6.53,0,0,0,.18,3.28,2.53,2.53,0,0,1,.15.66,7,7,0,0,0,.74,2.87,14.38,14.38,0,0,1,1.1,6.8c0,.33.07.73-.08,1-.61,1.13-.64,2.47-1.35,3.55a5.45,5.45,0,0,0-.35.68,1.21,1.21,0,0,1-1.19.79,2.56,2.56,0,0,0-1.16.22,5.9,5.9,0,0,1-2.61.12c-.22,0-.29-.15-.22-.35A6.68,6.68,0,0,1,60.73,136.36Zm34.09-32.27c.12.25.78.32,1.08.07.76-.63,1.48-1.3,2.24-1.92a26,26,0,0,1,3.15-2.38.71.71,0,0,1,.87,0c.2.16.42.3.62.46.44.35.5.58,0,1a17.54,17.54,0,0,1-3.21,2.61,9.9,9.9,0,0,0-1.35.9,4.74,4.74,0,0,1-1.18.67,1.26,1.26,0,0,0-.44.24.45.45,0,0,0-.19.52c.07.18.25.22.42.24a2.1,2.1,0,0,0,1.38-.36c1.19-.85,2.39-1.69,3.56-2.57.56-.42,1.07-.91,1.6-1.37.24-.2.53-.46.82-.25a1.67,1.67,0,0,1,.68.94c.07.29-.22.45-.4.6-.88.75-1.79,1.47-2.66,2.23a22.7,22.7,0,0,1-3.75,2.62,1.4,1.4,0,0,0-.46.48,4.11,4.11,0,0,1-.77.82,20.41,20.41,0,0,1-1.09-2.78,4.05,4.05,0,0,0-.83-1.54,21.85,21.85,0,0,0-1.46-1.87c-.1-.1-.17-.23-.27-.32-.44-.42-.46-.5,0-.87s1-.75,1.51-1.09c1-.65,1.77-1.5,2.75-2.14.45-.29,1-.33,1.37-.82,0-.09.22-.08.31,0a5.63,5.63,0,0,0,1,.46c.27.12.32.36.11.55a4.52,4.52,0,0,1-.67.64,22.66,22.66,0,0,0-3,2.35,8.35,8.35,0,0,1-1.33,1C94.9,103.43,94.69,103.83,94.82,104.09Zm11.13.75c.22.54,0,1.13.24,1.54,0,.91-.3,1.16-1.07,1a9.82,9.82,0,0,0-2.35-.29h-.26a.33.33,0,0,1-.35-.2c0-.15.06-.26.19-.34.68-.46,1.2-1.11,1.93-1.51a4.44,4.44,0,0,0,.62-.45C105.46,104.13,105.7,104.2,106,104.84Zm-16,2.4c-.13-.19-.31-.33-.45-.51-.28-.35-.73-.73-.63-1.15a3,3,0,0,1,.56-1.54c.27-.28.34-.78.75-.87s.61.36.92.55a8.48,8.48,0,0,1,2.81,3,10.23,10.23,0,0,1,1.26,2.95,28.51,28.51,0,0,0,.47,2.89.47.47,0,0,0,.21.27c0,.13-.09.25-.15.37a2.75,2.75,0,0,1-2.48,1.47h-.09a4,4,0,0,0-3.29,1.2c0-.31-.06-.41,0-.47a20.15,20.15,0,0,0,1-3.3A5.32,5.32,0,0,0,89.94,107.24Zm7.25-9.59a21.19,21.19,0,0,1-2.4,2.15,20.9,20.9,0,0,1-2.49,1.89c-.63.33-.78.39-1.25-.11-.22-.24-.66-.25-.69-.66a3.15,3.15,0,0,0,2.46-1.22c.65-.74,1.38-1.41,2.1-2.09a1.26,1.26,0,0,0,.41-.63c.11-.5.37-.47.75-.3s.7.23,1,.39S97.47,97.38,97.19,97.65Zm-3.07-.73A9.62,9.62,0,0,1,90.56,100c-.49.2-.49.28-.24.9-.6,0-1-.39-1.51-.64-.26-.13,0-.38.15-.52.92-.74,1.79-1.55,2.74-2.26a8.53,8.53,0,0,1,1.89-1.26c.26-.11.49-.2.69,0S94.28,96.73,94.12,96.92ZM91,96.66c-1,1-2.15,1.82-3.11,2.85a1,1,0,0,1-.92.34,9.58,9.58,0,0,0-1.85-.25c-.28,0-.33-.18-.15-.4,1.09-1.27,2.18-2.54,3.26-3.83a.63.63,0,0,1,.67-.25,13.3,13.3,0,0,0,2.26.28.89.89,0,0,1,.69.33A3.42,3.42,0,0,1,91,96.66Zm-4.71,5a.74.74,0,0,0,.47.12c.91-.23,1.54.38,2.43.73a3.94,3.94,0,0,0-1.34,1.94,2.8,2.8,0,0,0,.63,3.27,4.63,4.63,0,0,1,1,5.17L89,114.4c0,.45-.11.89-.2,1.33a3.58,3.58,0,0,1-1,2,.5.5,0,0,1-.83-.22,1.93,1.93,0,0,1,0-.41l-.08.06a25.77,25.77,0,0,0-1.37-3.61,4.35,4.35,0,0,0-1-1.55,2.7,2.7,0,0,1-.58-1,.42.42,0,0,1,0-.48,5.54,5.54,0,0,0,.68-1.27,2,2,0,0,0-.2-2.5c-.28-.31-.52-.67-.81-1a2.09,2.09,0,0,1-.33-2.71,5.29,5.29,0,0,1,.29-.52l.82-1.25A8.64,8.64,0,0,1,86.27,101.63Zm-.61,23.88a8.31,8.31,0,0,0-2.11.87c-1.5.66-3,1.31-4.49,2-.54.25-1.06.55-1.58.83a.58.58,0,0,1-.63.07c.35-.77.68-1.52,1-2.25a.72.72,0,0,1,.36-.35c1.61-.82,3.07-1.92,4.73-2.66.61-.27,1.28-.4,1.9-.69a1.62,1.62,0,0,0,.62-.54c.16-.2.24-.41.09-.61A.52.52,0,0,0,85,122c-.49.2-1,.29-1.52.51a49.57,49.57,0,0,0-4.47,2.6c-.07,0-.14.11-.21.15-.22.12-.45.35-.7.22s0-.45,0-.69,0-.79-.1-1.18a.53.53,0,0,1,.35-.67c1.91-.79,3.75-1.73,5.68-2.49.49-.2,1-.47,1.47-.63s.67-.1.78.4a5.17,5.17,0,0,1,.18,1.09,23.66,23.66,0,0,1-.1,3.57A.66.66,0,0,1,85.66,125.51Zm.09,1.31a3.05,3.05,0,0,1,0,.43l-.84,1.83A26.55,26.55,0,0,1,76,132.21a2,2,0,0,1,.11-.47c.26-.88,1-1.21,1.67-1.55,1.14-.56,2.31-1.06,3.48-1.56s2.49-1.2,3.8-1.64C85.23,126.92,85.45,126.89,85.75,126.82ZM77,116l5.45-2.37c1.11-.48,1.23-.42,1.71.7.28.65.23.7-.32,1.08a52,52,0,0,1-4.95,2.76,5.38,5.38,0,0,1-.85.38c-.49.16-.6.1-.77-.43a3.84,3.84,0,0,0-.4-.75,2.05,2.05,0,0,1-.29-.78A.65.65,0,0,1,77,116ZM75.9,115c-.52-1-.39-1.4.59-1.9,1.31-.66,2.63-1.31,4-2a1.72,1.72,0,0,1,1-.25c0,.55.06,1.08.74,1.22a3.27,3.27,0,0,1-1.39,1c-1.38.65-2.75,1.33-4.08,2.1C76.21,115.49,76.18,115.47,75.9,115Zm8.79,1.51c.3-.16.45-.09.57.23.61,1.58.73,1.23-.55,1.91-1.74.93-3.52,1.79-5.29,2.66a9.83,9.83,0,0,1-1.26.52c-.25.08-.5.06-.49-.35a6.07,6.07,0,0,0-.1-.88c0-.28,0-.49.29-.56,1.45-.38,2.58-1.39,3.89-2C82.75,117.5,83.71,117,84.69,116.47Zm-1.3-15.38a7.28,7.28,0,0,0-1.81,3.39,1.55,1.55,0,0,0,.62,1.87,4.16,4.16,0,0,1,1.28,1.57,1.37,1.37,0,0,1-.4,1.84,32.53,32.53,0,0,1-2.58-2.54,11.12,11.12,0,0,0-2.63-1.84c-.43-.23-.44-.34,0-.61a22.29,22.29,0,0,0,3.16-2.4,18.67,18.67,0,0,0,1.74-1.46c.08-.09.25-.12.38-.18a.21.21,0,0,1,.3,0A.24.24,0,0,1,83.39,101.09Zm-5,7.19c.4-.2.7-.29,1,.17a4.92,4.92,0,0,0,.73.71,1.81,1.81,0,0,1,.23.29c0,.26-.15.33-.3.42l-2.85,1.63c-.56.33-1.12.65-1.67,1-.32.21-.55.21-.78-.12a6.45,6.45,0,0,0-1-1.19c-.19-.17-.17-.35.06-.48a1.59,1.59,0,0,1,.22-.13A44.52,44.52,0,0,0,78.36,108.28ZM77,107.51c-.61.4-1.27.73-1.87,1.15a21.19,21.19,0,0,1-2.52,1.15.77.77,0,0,1-.81,0c-.24-.15-.49-.27-.74-.41s-.2-.36,0-.49a2.18,2.18,0,0,1,.55-.22,7.17,7.17,0,0,0,2-1c.75-.52,1.6-.91,2.33-1.49.09-.06.28-.12.31-.08.27.35.69.44,1,.65.06,0,.08.15.12.21A.86.86,0,0,1,77,107.51ZM73.7,137c1.89-.19,3.78-.47,5.65-.84a12.67,12.67,0,0,0,2.64-.76,5.83,5.83,0,0,0-.32.72l0,0-.26.49a.44.44,0,0,0-.24.31.76.76,0,0,0,0,.15l-.41,0a.4.4,0,0,1-.26,0c-.17,0-.35,0-.52.06a17,17,0,0,1-4.09.1c-.76-.07-1.52-.1-2.28-.12A1.43,1.43,0,0,0,73.7,137Zm5.19-1.77c-1.53.3-3.08.53-4.63.7q.18-.39.33-.81a2.27,2.27,0,0,0,.56-.92,1.16,1.16,0,0,1,1.25-.77,13,13,0,0,0,3.29-.39,5.46,5.46,0,0,0,2.55-1.06,9.73,9.73,0,0,1,1.15-.73c0-.09.08-.19.12-.28l.71-.35-1.38,3A7.28,7.28,0,0,1,78.89,135.19Zm48.21-29.31c.4-.42.66-1,1.08-1.39a15.31,15.31,0,0,1,2.15-1.8,5.64,5.64,0,0,1,1.78-.76c.08,0,.17,0,.25-.05,1.61-.65,2.76.25,3.76,1.26a4.94,4.94,0,0,1,1.4,4.2,5.5,5.5,0,0,1-1.69,3.59,1.8,1.8,0,0,1-.54.41c-1.29.5-2.53,1.12-3.86,1.51a1.32,1.32,0,0,1-.92,0c-.62-.28-1.32-.28-1.94-.62a3.47,3.47,0,0,1-2-2.46,8.45,8.45,0,0,1-.22-2.28C126.21,106.91,126.6,106.39,127.1,105.88Zm-13.86,55.56a.43.43,0,0,0-.08.25c-.12.07-.21.15-.33.22a2.77,2.77,0,0,1-.71.28c-.31.08-.62.14-.94.2a12.8,12.8,0,0,1-3.69.92,46.13,46.13,0,0,1-7.34.06c-3.25-.14-6.51-.05-9.76-.07l-7.1-.05-1.83,0h-.11a4.13,4.13,0,0,0-1.11,0l-.49,0-1.25,0c-.5,0-1-.07-1.49-.09a37.51,37.51,0,0,0-4.74.11c-2.14,0-4.29,0-6.44,0l-.77,0c-4.14.15-8.28.37-12.42.34s-8.23-.4-12.35-.51c-1.89-.05-3.78-.14-5.68-.12a27.58,27.58,0,0,1-5.52-.33,8.66,8.66,0,0,1-2.56-.93h-.16l-.07,0a14.32,14.32,0,0,1-1.91-1.39,2.08,2.08,0,0,1-.47-.64,17,17,0,0,1-1.83-2.4,20.77,20.77,0,0,1-2.05-4c-.47-.94-.89-1.9-1.44-2.79a53.11,53.11,0,0,1-2.84-5.89c-.29-.63-.19-.81.54-.8,1,0,1.93.08,2.89.13l6.38.34c1.45.08,2.89.19,4.34.28l5,.29c1.16.06,2.31.28,3.47.31.59,0,1.19.06,1.78,0,2.74-.13,5.45.28,8.18.27.82,0,1.64-.06,2.46-.1,2-.09,4,.18,6,0a18.58,18.58,0,0,1,3.06.2,32.85,32.85,0,0,0,6.27-.11c.83-.08,1.64.16,2.46.14,2.58,0,5.17-.17,7.75-.14,3.16,0,6.3-.31,9.45-.34,3.45,0,6.9-.29,10.35-.42,1.85-.07,3.7-.06,5.54-.11,1.16,0,2.32-.1,3.48-.15.62,0,1.24.11,1.86.12,1.23,0,2.43-.29,3.64-.29,1.51,0,3-.17,4.51-.18,1.81,0,3.62-.17,5.43-.24,1.53-.06,3.06-.09,4.59-.13h0A179.61,179.61,0,0,1,113.24,161.44Zm57.31-48.31c-4.65,7.33-7.74,15.69-14.13,21.78l-.93.85a77.29,77.29,0,0,1-7.81,6l-.14.08a13.22,13.22,0,0,0-1.7,1.18l-2.53,1.71q-6.63,4.5-13.49,8.68-6.69,4.09-13.59,7.85a15.41,15.41,0,0,0,1.26-2,16.32,16.32,0,0,1,1-1.38c.87-1.25,1.79-2.46,2.68-3.7a8.5,8.5,0,0,0,.47-.9c.63-1.19,1.3-2.37,1.92-3.56a38.45,38.45,0,0,1,2.13-3.88,7.72,7.72,0,0,0,.91-1.41,1.67,1.67,0,0,1,1.47-.94,5.66,5.66,0,0,1,1-.09,1.66,1.66,0,0,0,1-.23,6,6,0,0,1,1.68-.5,32.48,32.48,0,0,1,3.94-1.31,1.63,1.63,0,0,0,.61-.29,13.76,13.76,0,0,0,2.71-2L139,139a11.48,11.48,0,0,0,2.79-2c1.07-.93,2.34-1.59,3.43-2.5.94-.77,1.89-1.53,2.81-2.32a9.47,9.47,0,0,1,1.4-1,1.34,1.34,0,0,0,.37-.22,32.2,32.2,0,0,1,4.27-3.64c.55-.44,1.06-.92,1.58-1.39a6.32,6.32,0,0,1,1.46-1.16c.43-.2.56-.69.9-1,1.21-1.09,2.43-2.16,3.72-3.15a17.88,17.88,0,0,0,1.39-1.36c1.21-1.1,2.37-2.26,3.62-3.31s2.45-2.52,3.88-3.56c.15-.11.25-.31.47-.3A5.46,5.46,0,0,0,170.55,113.13Zm26-27.63A7.19,7.19,0,0,1,195,87.9c-1.71,1.48-3.14,3.26-5,4.6a12.56,12.56,0,0,0-1,1c-1.4,1.32-2.71,2.74-4.18,4-.7.59-1.21,1.35-1.88,2-1.57,1.45-3.13,2.89-4.6,4.43a35.37,35.37,0,0,1-3,2.81,19.56,19.56,0,0,0-2.46,2.19c-.67.75-1.58,1.27-2.33,2-1.17,1.08-2.27,2.24-3.47,3.27-1.82,1.57-3.45,3.35-5.27,4.93-2,1.75-4.1,3.44-6.08,5.25-1.18,1.08-2.48,2.06-3.76,3-.68.52-1.23,1.15-1.91,1.67a16.59,16.59,0,0,0-2.15,1.79,52.33,52.33,0,0,1-4.8,4c-1.13.94-2.4,1.69-3.51,2.65a24.81,24.81,0,0,1-3.74,2.45,21.77,21.77,0,0,1-3.57,1.38c-2.72,1.06-5.6,1.05-8.46,1.21-2.18.12-4.38,0-6.55.22-1.85.19-3.68.22-5.53.28-.62,0-1.24.15-1.86.2a18.83,18.83,0,0,1-2.81,0,33.09,33.09,0,0,0-4.34.07c-2.67.18-5.33.35-8,.39-2.9,0-5.8.12-8.69.26-1.7.08-3.4.13-5.09.31a56.08,56.08,0,0,1-5.8.07c-1.3,0-2.61,0-3.92.08a5.79,5.79,0,0,1-1,0,35,35,0,0,0-5.7.06,19.05,19.05,0,0,1-2.39,0,50.83,50.83,0,0,0-5.79-.17,15.8,15.8,0,0,1-2.37-.15,47.85,47.85,0,0,0-4.94.09,21.93,21.93,0,0,1-3.24-.09,11.53,11.53,0,0,0-2-.08c-2.77.11-5.5-.3-8.26-.37-2.53-.07-5-.39-7.56-.48-2.13-.07-4.25-.16-6.38-.39-1.35-.15-2.72-.14-4.08-.26-.36,0-.71-.1-1.07-.17l-1.1-.11c-1-.11-2-.17-3-.37a6.23,6.23,0,0,1-1.32-.45l-.91-.26-2.29-.63a21.42,21.42,0,0,1-3.17-1.23A4.62,4.62,0,0,1,2.56,137a1.38,1.38,0,0,1-.13-.84c.12-.83.21-1.67.41-2.5a13,13,0,0,1,3.22-5.32c.45-.51.83-1.07,1.3-1.56a61.75,61.75,0,0,1,5.12-4.58c.74-.61,1.43-1.28,2.16-1.91A30.13,30.13,0,0,1,18,117.62c.45-.29.77-.73,1.21-1.06,1.36-1,2.64-2.19,4-3.17a2.17,2.17,0,0,0,.5-.45,8.7,8.7,0,0,1,2.7-2.24c.65-.36,1.43-.58,1.7-1.43.06-.19.27-.1.44,0a10.34,10.34,0,0,1,1.63.72c.78.36,1.64.45,2.44.74.18.06.42.07.42.33a.52.52,0,0,1-.3.48C31.68,112,31,113,30,113.59c-1.19.77-2.17,1.81-3.41,2.49a1.39,1.39,0,0,0-.32.27,36.7,36.7,0,0,1-3.84,3.19,17,17,0,0,0-2.41,2,17.13,17.13,0,0,1-2.67,2.21,8.65,8.65,0,0,0-1.75,1.72,7.74,7.74,0,0,1-.93,1c-.78.7-1.51,1.45-2.26,2.19a.42.42,0,0,0-.13.22A5.33,5.33,0,0,1,11,131.11a2,2,0,0,0-.4,1.61c0,.28,0,.57.05.85a2.72,2.72,0,0,0,1.8,2.55c.62.28,1.27.5,1.9.74a6.42,6.42,0,0,0,1.78.37.48.48,0,0,0,.3.15c9.7,1,19.45,1.49,29.2,1.59a.39.39,0,0,1,.32-.12c1.12,0,2.23.1,3.34.15h.1l.58,0,.92,0a1.15,1.15,0,0,1,.17-.06l2.27,0,.15,0a.51.51,0,0,1,.33,0l1.57,0c2.62-.06,5.24-.16,7.86-.28,1.12,0,2.24,0,3.36,0,1.56-.1,3.12,0,4.68-.07a34.25,34.25,0,0,1,4,.07,16.74,16.74,0,0,0,3.74-.19,35.61,35.61,0,0,1,4-.21,43,43,0,0,0,5.43-.35,5,5,0,0,1,.67,0c3.36.09,6.71-.11,10.06-.1,1.86,0,3.68-.3,5.53-.33,1.62,0,3.24.12,4.86,0,2.09-.16,4.18-.14,6.28-.11,2.53,0,5-.25,7.56-.44a32.21,32.21,0,0,0,4.18-.67,7.49,7.49,0,0,0,2-.61,2.15,2.15,0,0,1,.65-.21,9.66,9.66,0,0,0,3.2-1.45c1.37-.89,2.67-1.88,4-2.84a24.87,24.87,0,0,0,2.79-2.34c.82-.77,1.73-1.45,2.63-2.14,1.2-.92,2.19-2.1,3.47-2.94a7.79,7.79,0,0,0,1.08-1.07c1-.95,2-1.76,3-2.66.76-.67,1.56-1.3,2.37-1.9s1.43-1,2.1-1.56c1.21-1,2.44-2,3.65-3a31.35,31.35,0,0,0,3-2.85,33.92,33.92,0,0,1,2.58-2.35,3.31,3.31,0,0,0,1-1.13c.17-.38.64-.63,1-1,.63-.68,1.25-1.38,1.89-2.07a4.18,4.18,0,0,1,1.17-1c.44-.22.64-.7,1-1,1.18-.94,2.35-1.91,3.46-2.94s1.94-2,3-3a5.33,5.33,0,0,0,.72-1.15,4.47,4.47,0,0,1,.82-1.08A2,2,0,0,0,178,91.1a4.6,4.6,0,0,0-2.24-.92c-.6-.08-1.09-.45-1.69-.55a57.52,57.52,0,0,0-8-.49c-2,0-4,0-6,0s-3.72-.16-5.59-.17c-2.72,0-5.45,0-8.16-.2a27.65,27.65,0,0,0-3.75-.12c-1.25.07-2.5,0-3.75-.08-1-.05-2,0-3,0-4.14,0-8.29,0-12.44-.09-1.19,0-2.38-.09-3.57-.09-3.3,0-6.59-.06-9.88-.1-1.13,0-2.27-.1-3.4,0-1.65.07-3.3.13-4.94.13-2.68,0-5.32.4-8,.53a6.79,6.79,0,0,1-1.77-.12A35.62,35.62,0,0,1,93.08,85a3.56,3.56,0,0,0,.11-.92c.1-.55.26-.67.72-.39a3.21,3.21,0,0,0,1.48.31,12.31,12.31,0,0,0,3.2.28,10.29,10.29,0,0,1,1.76-.16c3,0,6.05-.16,9.08-.19,1.85,0,3.69,0,5.54,0,1,0,2,.21,3,.16,1.21-.07,2.43,0,3.64.07a24.52,24.52,0,0,0,3.1.1,21.4,21.4,0,0,1,3.73.3,38.7,38.7,0,0,0,4.17.1c.8,0,1.59,0,2.38,0,2.81,0,5.58.45,8.39.47s5.34.06,8,.21c1,.06,1.93-.14,2.88,0,1.8.28,3.57-.15,5.35-.14s3.28-.23,4.93-.19c.38,0,.77-.2,1.16-.23,1.59-.11,3.11-.6,4.69-.75a7.7,7.7,0,0,0,2.39-.86,4.92,4.92,0,0,0,2.6-2.76,1.53,1.53,0,0,1,1.41-1c1.8-.23,3.58-.51,5.41-.59,1.38-.07,2.77-.25,4.16-.28a23.2,23.2,0,0,1,3.82.1,10.24,10.24,0,0,1,4.18,1.32,10.7,10.7,0,0,0,1.23.59,2.74,2.74,0,0,1,1.2,1.25A3.63,3.63,0,0,1,196.54,85.5Z"/><path d="M135,124.82a1,1,0,0,1-.69-.27c-.22-.18-.31-.35-.1-.64.33-.46.3-.48-.21-.68a3.9,3.9,0,0,1-.48-.17.88.88,0,0,1-.53-1c.11-.46.51-.37.83-.37a3.51,3.51,0,0,1,1.5.56.85.85,0,0,0,1,0c.64-.5,1.34-.17,1.5.65.07.38.31.79-.14,1.16a1,1,0,0,1-.63.35,2.35,2.35,0,0,0-1.69.35C135.37,124.84,135.18,124.81,135,124.82Z"/><path d="M62.71,133.56c-.14,0-.32,0-.39-.11a.34.34,0,0,1,.13-.45c1-.68,1-1.68,1-2.74a11,11,0,0,0,0-2.37c-.42-1.82-.59-3.7-1.19-5.47a10.16,10.16,0,0,1,.29-6.9,1.31,1.31,0,0,1,.67-.83c.23-.11.4-.34.66-.07s.44.46.27.82a1.45,1.45,0,0,1-.22.36c-.86.92-.81,2.15-1.05,3.26a3.21,3.21,0,0,0,.21,1.75c.55,1.44.62,3,1.05,4.44s.21,3.05.36,4.56a5.59,5.59,0,0,1-.4,2.75A1.73,1.73,0,0,1,62.71,133.56Z"/><path d="M48.67,134.57c-.14,0-.3,0-.36-.15s0-.26.16-.36l.57-.49a1.28,1.28,0,0,0,.42-1.07,16.71,16.71,0,0,1,0-1.87,12.67,12.67,0,0,0-.36-3.37c-.16-.73-.06-1.46-.21-2.19a3.9,3.9,0,0,0-.23-1,11.11,11.11,0,0,1-.54-2.4,1.18,1.18,0,0,1,0-.59A13.25,13.25,0,0,1,50,116.33a1,1,0,0,1,.37-.35c.28-.12.59-.32.87-.06s-.16.42-.14.67a.6.6,0,0,1-.27.51.64.64,0,0,0-.22.25c-.41,1.48-1.25,2.83-1,4.5a19.7,19.7,0,0,0,.55,2.73,8.79,8.79,0,0,1,.24,1.93,12,12,0,0,1,.36,2.67c-.16,1.08.12,2.15,0,3.23A3,3,0,0,1,48.67,134.57Z"/><path d="M134.67,107.24a.77.77,0,0,1-.54-.26.77.77,0,0,0-1-.12q-.57.27-1.17.51c-.7.28-1.05.08-1.22-.67a1.91,1.91,0,0,1-.06-.33c-.09-.69.17-.92.81-.67.24.09.44.22.71.08s.31-.24.14-.45-.42-.46-.62-.69a2.65,2.65,0,0,1-.42-.53c-.15-.26-.35-.56,0-.84a1,1,0,0,1,1,.08c.33.32.63.66.93,1s.56.48,1,.26.52-.06.62.3a2.06,2.06,0,0,0,.54,1.18c.28.25.12.64,0,1S135,107.22,134.67,107.24Z"/><path d="M112.5,122.76a.91.91,0,0,1-.68-.28c-.48-.46-.61-.46-1.16-.11a2.5,2.5,0,0,1-1.61.4c-.25,0-.54-.09-.58-.39a.59.59,0,0,1,.45-.64,3,3,0,0,1,.32-.09c.21-.06.39-.14.35-.4s-.16-.39-.4-.37a1.45,1.45,0,0,1-.94-.32,1,1,0,0,1-.22-.13.82.82,0,0,1-.24-.77c.08-.24.39-.18.6-.22a.89.89,0,0,1,.65.14c.5.26,1,.5,1.53.73a2.31,2.31,0,0,0,1.25.1c.19,0,.48,0,.49.19,0,.57.48.88.7,1.33S113.07,122.74,112.5,122.76Z"/><path d="M70.48,83.34a3.29,3.29,0,0,0-2.55-.46L64.58,83l-13.64.62-2.16.1c4-4.94,8.12-10.27,9.88-16.38a17.09,17.09,0,0,0,.88-5.87s0-.07,0-.11,0,0,0-.07c0-.35,0-.71-.06-1.07A11.61,11.61,0,0,0,53.28,51,11.38,11.38,0,0,0,42.7,51,11.92,11.92,0,0,0,38,55.59a.64.64,0,0,0-.11.2h0a11.62,11.62,0,0,0-1.33,4.14,9.6,9.6,0,0,1,0,1.07,6.11,6.11,0,0,0,.09,1.54c0,.18.08.36.12.54a3,3,0,0,0,1.27,1,3.11,3.11,0,0,0,2.76-.23l.06,0A3.58,3.58,0,0,0,42,62.65c.78-1.35.78-3.22,2.08-4.23a4.09,4.09,0,0,1,4-.33c3.58,1.53,3.23,6.38,1.86,9.29a32.44,32.44,0,0,1-3.26,5.1l-4,5.54-4,5.55c-1,1.43-2.26,3.19-1.71,5.07a4.56,4.56,0,0,0,3.62,2.91c2.09.4,4.35,0,6.45-.14l13.52-1c3.26-.23,6.94-.57,9.37-3C71,86.39,71.77,84.56,70.48,83.34Zm-.77,2.84c-1.94,2.76-6,3.06-9.07,3.28l-12.5.87A60.6,60.6,0,0,1,42,90.7c-1.66-.06-3.83-.74-4.12-2.65s1.52-3.77,2.55-5.19l3.72-5.14,3.8-5.23a29,29,0,0,0,3-4.7c1.3-2.82,1.7-6.41-.32-9a5.25,5.25,0,0,0-7-1.18c-1.19.89-1.51,2.29-2,3.62A3.3,3.3,0,0,1,40.36,63a2.17,2.17,0,0,1-2.58-1.23,5.37,5.37,0,0,1,.46-3.66.36.36,0,0,0,0-.27l.59-1.56a11,11,0,0,1,3.54-3.9,10.21,10.21,0,0,1,9.94-.66,10.56,10.56,0,0,1,6.16,8.48c0,.44.07.88.08,1.32a20.52,20.52,0,0,1-.46,4.1A23.8,23.8,0,0,1,55.42,72c-2.46,4.2-5.73,7.85-8.26,12a.5.5,0,0,0,.43.75l12.65-.57,6.33-.29,1.61-.07a2.58,2.58,0,0,1,1.51.12C70.45,84.5,70.13,85.57,69.71,86.18Z"/><path d="M52.87,42.38C52.79,41.26,52,40,50.74,40a1.54,1.54,0,0,0-1.34,2,.65.65,0,0,0,0,.24,9.22,9.22,0,0,1-.1,2A3.05,3.05,0,0,0,49.64,46a1.62,1.62,0,0,0,2.67.27,4.4,4.4,0,0,0,.41-1.87A10.31,10.31,0,0,0,52.87,42.38Zm-1.15,1.95-.09.74a1.63,1.63,0,0,1-.13.58.44.44,0,0,1-.58.16.86.86,0,0,1-.53-.6,3.33,3.33,0,0,1,0-1.44,8,8,0,0,0,.06-1.38.45.45,0,0,0,0-.64.21.21,0,0,1-.08-.17.6.6,0,0,1,.09-.29.48.48,0,0,1,.52-.25c.81.13,1,1.13,1,1.8A12.79,12.79,0,0,1,51.72,44.33Z"/><path d="M82.55,68.54a2.92,2.92,0,0,0-2.45-1,15,15,0,0,0-3.78.29.43.43,0,0,0-.35.55,2.29,2.29,0,0,0-.72,1.74.51.51,0,0,0,.5.5l3.4.19c.55,0,1.1.07,1.65.08a2.58,2.58,0,0,0,1.23-.2A1.45,1.45,0,0,0,82.55,68.54Zm-.75,1c-.11.3-.56.3-.82.31-.54,0-1.09,0-1.63-.08l-3-.17a1.35,1.35,0,0,1,1.12-.95.37.37,0,0,0,.15,0A14.32,14.32,0,0,1,80,68.52a2.89,2.89,0,0,1,1.36.28C81.64,68.94,81.91,69.27,81.8,69.57Z"/><path d="M51.45,97.59a2.29,2.29,0,0,0-1-1.6,1.4,1.4,0,0,0-1.57.08l-.1,0a.51.51,0,0,0-.5.5c-.13,1.42-.31,2.85-.39,4.28-.05,1,.14,2.14,1.17,2.52,1.22.45,2.26-.71,2.49-1.8A9.79,9.79,0,0,0,51.45,97.59Zm-.83,3.65a1.59,1.59,0,0,1-.53,1,.69.69,0,0,1-.83.06c-.5-.4-.35-1.38-.3-1.92.1-1.14.21-2.27.31-3.4a.56.56,0,0,0,.22-.13c.19-.2.51-.05.67.14a2.62,2.62,0,0,1,.39,1.16A8.57,8.57,0,0,1,50.62,101.24Z"/><path d="M25.13,69.78c-1.24-.49-2.53.14-3.78-.12a.48.48,0,0,0-.47.14.42.42,0,0,0-.44.14,1.91,1.91,0,0,0,.18,2.55,4.21,4.21,0,0,0,2.94.92c1,0,2.29-.08,2.78-1.13A1.91,1.91,0,0,0,25.13,69.78Zm-1,2.64a5.43,5.43,0,0,1-2.33-.32c-.48-.23-1.06-1-.63-1.45,0,0,0,0,0,0a13.24,13.24,0,0,0,2.67,0c.62,0,1.52.15,1.66.9S24.64,72.42,24.11,72.42Z"/><path d="M71.68,49.85a.52.52,0,0,0-.48.36.55.55,0,0,0-.22,0,3.14,3.14,0,0,0-2.09,1.3,1.53,1.53,0,0,0,.53,2.13,2.44,2.44,0,0,0,2.15-.18,2.67,2.67,0,0,0,1.5-1.75A1.54,1.54,0,0,0,71.68,49.85Zm.39,1.78a.19.19,0,0,0,0,.07l0,0a2,2,0,0,1-.19.3,3,3,0,0,1-.32.29l-.1.07-.21.14-.16.08-.1,0,0,0-.07,0-.09,0-.21.06-.17,0H70s-.19-.08-.09,0l-.1-.06s0,0-.07-.07h0l-.07-.11c0,.09,0-.07,0-.08v-.13a.15.15,0,0,0,0-.06s0,0,0-.06a.29.29,0,0,1,0-.09v0s0,0,0,0a.82.82,0,0,1,.12-.2v0l.09-.1a.27.27,0,0,0,.08-.07c-.06,0,.06,0,.07,0l.22-.13.09,0,.09,0,.08,0,.13,0,.53-.16a.52.52,0,0,0,.34-.35l.09,0h.1l.06,0,0,0h0L72,51h0v0c0,.05,0,.1.08.14l0,.1s0,0,0,.08h0v.19h0A.32.32,0,0,0,72.07,51.63Z"/><path d="M72.93,90.7a2.55,2.55,0,0,0-1.48-1.27,2.6,2.6,0,0,0-2.22.28.5.5,0,0,0-.19.65s0,0,0,0a.5.5,0,0,0,.18.68l1.88,1.38.47.35a1.54,1.54,0,0,0,.5.28.86.86,0,0,0,1-.44A2.21,2.21,0,0,0,72.93,90.7Zm-1.46.81L70,90.43l.36-.11h.5l.08,0a1.55,1.55,0,0,1,.62.26s.06,0,0,0,0,0,0,0l.12.12.11.12h0l.06.09a2.91,2.91,0,0,1,.17.3s0,.08,0,.1a1.05,1.05,0,0,1,.05.19.58.58,0,0,1,0,.14s0,.09,0,.11v.23C72,91.88,71.71,91.69,71.47,91.51Z"/><path d="M26.88,91.16s0,0,0,0Z"/><path d="M30.69,88.31a1.13,1.13,0,0,0-1.42-.39,6.28,6.28,0,0,0-1.39.82,10.69,10.69,0,0,0-1.32,1.1.45.45,0,0,0-.13.29,1,1,0,0,0-.42.46,1.17,1.17,0,0,0,.18,1.31,1.52,1.52,0,0,0,1.19.47,2.33,2.33,0,0,0,1.35-.59,9.11,9.11,0,0,0,1-1,5.56,5.56,0,0,0,.86-1.12A1.35,1.35,0,0,0,30.69,88.31Zm-.87.63a.64.64,0,0,1-.05.15l-.08.15a2.22,2.22,0,0,1-.25.35c-.24.29-.49.58-.76.85a4.64,4.64,0,0,1-.73.68,1.82,1.82,0,0,1-.35.2l-.19.05h-.18s.09,0,0,0l-.12,0h-.05l-.08,0c-.08,0,0,0,0,0a.2.2,0,0,0-.06-.07s0,0,0,0h0s0,0,0,0v0a.11.11,0,0,1,0,0s0,0,0,0l0-.06h0s0,0,0,0h0s0,0,0,0,0,0,0,0h0a0,0,0,0,0,0,0h0a.49.49,0,0,0,.54-.35.54.54,0,0,0,0-.25A8.69,8.69,0,0,1,29,89.22a2.6,2.6,0,0,1,.8-.4h.08a.09.09,0,0,1,0,.07C29.84,88.83,29.83,88.9,29.82,88.94Z"/><polygon points="26.98 90.94 26.98 90.94 26.98 90.94 26.98 90.94 26.98 90.94"/><polygon points="26.88 91.16 26.88 91.16 26.88 91.16 26.88 91.16 26.88 91.16"/><path d="M32.55,51.38a5.76,5.76,0,0,0-1-1.11,4.41,4.41,0,0,1-.43-.45,1.46,1.46,0,0,1-.17-.3h0a.2.2,0,0,1,0,0l0-.15a.5.5,0,0,0-.93-.25,1.54,1.54,0,0,0-1.85,1.4,3.29,3.29,0,0,0,1.32,2.44,2.48,2.48,0,0,0,2.54.93,1.4,1.4,0,0,0,.93-1A1.94,1.94,0,0,0,32.55,51.38Zm-.68,1.27a.53.53,0,0,1-.44.28h-.28l-.11,0a1.45,1.45,0,0,1-.47-.26,6.65,6.65,0,0,1-.77-.73,3.42,3.42,0,0,1-.63-.84,1.36,1.36,0,0,1-.11-.43.54.54,0,0,1,.12-.36.53.53,0,0,1,.27-.26c-.06,0,.06,0,.1,0s0,0,0,0h0a.52.52,0,0,0,.44,0,4,4,0,0,0,1,1.18,3.55,3.55,0,0,1,.67.73,1.41,1.41,0,0,1,.18.4A.56.56,0,0,1,31.87,52.65Z"/><path d="M83.11,57.23A34,34,0,0,0,69.49,42.08a33.54,33.54,0,0,0-14.06-4.49,33.56,33.56,0,0,0-12.85.89C36,39.45,30.42,43.87,26.35,49a55.32,55.32,0,0,0-6.17,9.68,27.52,27.52,0,0,0-3,11,32.92,32.92,0,0,0,2.33,12.07,93.93,93.93,0,0,0,4.47,10.89,23.33,23.33,0,0,0,7,8.48,28.65,28.65,0,0,0,9.83,4.39A37.44,37.44,0,0,0,60.51,105,36.39,36.39,0,0,0,77.13,94.66a35.19,35.19,0,0,0,8.4-17.9A34.59,34.59,0,0,0,83.11,57.23ZM79.42,90a34,34,0,0,1-14.49,12.27,37.2,37.2,0,0,1-18.78,3.18c-6.73-.63-13.81-3.18-18.25-8.48a35,35,0,0,1-5.26-9.7,76.93,76.93,0,0,1-3.85-11.25A23.2,23.2,0,0,1,19,64.56,38.23,38.23,0,0,1,23.8,54.37a43.59,43.59,0,0,1,7.9-9.55l0,0A32.78,32.78,0,0,1,45,39h.59c.19,0,.39-.05.58-.09a22.24,22.24,0,0,1,4.46-.34A32.39,32.39,0,0,1,79.84,53.34,32.48,32.48,0,0,1,85,71.77,35.14,35.14,0,0,1,79.42,90Z"/><path d="M41.51,126.12a22.58,22.58,0,0,1-1.85-4.89,4.17,4.17,0,0,1,1.5-4.27c.54-.35,0-1.22-.51-.86a4.71,4.71,0,0,0-2,3.51,9.86,9.86,0,0,0,1.14,5,15.18,15.18,0,0,1,1.7,5.18,8.48,8.48,0,0,1-1.3,5c-.35.54.52,1.05.86.5A9.72,9.72,0,0,0,41.51,126.12Z"/></g></svg>