<svg xmlns="http://www.w3.org/2000/svg" viewBox="0 0 200 200"><defs><style>.cls-1{fill:#0fa;}.cls-2{fill:#ffce00;}</style></defs><title>iconos landing</title><g id="Color"><path class="cls-1" d="M44.28,74a2,2,0,0,0-1.7-.14,1,1,0,0,0-.1-.61,13.29,13.29,0,0,0,1.37-2.58,5.12,5.12,0,0,0,1.49-3.2,3.17,3.17,0,0,0-.09-.82,2.19,2.19,0,0,0,.23-1.75,2.58,2.58,0,0,0-2.37-1.7,4.8,4.8,0,0,0-1.79.18,1,1,0,0,0-.11-.67h0c2.06-2.57,4.38-5.82,3-9.27-1.09-2.79-4.93-4.12-7-1.61a6.56,6.56,0,0,0-1.23,4c-.08,2.11.1,4.26.23,6.37q.4,6.56,1.33,13.07c.71,5,1.67,10.07,2.85,15A.85.85,0,0,0,41,91a.93.93,0,0,0,.4.24,1,1,0,0,0,1.23-.69A33.31,33.31,0,0,0,42.91,87c0-.09.06-.18.1-.27a.85.85,0,0,0,1-.48,20.5,20.5,0,0,0,1.69-8.78C45.62,76.18,45.52,74.71,44.28,74Z"/><path class="cls-1" d="M93.57,68.3a2.68,2.68,0,0,0-1.66-.19,21.09,21.09,0,0,0,1.89-9.65,5,5,0,0,0-.49-2.4,1.81,1.81,0,0,0-2.17-.8,4.84,4.84,0,0,0-2,2l0,.07c0-.19,0-.38,0-.57l1.83-4.51a33,33,0,0,0,2.19-6c.58-2.93-.79-7-4.4-6.87-4.22.1-4.05,5.46-3.93,8.37.17,4.38.49,8.77,1,13.12a106.07,106.07,0,0,0,2.8,14.33.89.89,0,0,0,.58.66c.41,2.61.76,5.24,1,7.89.12,1.27,2.12,1.28,2,0-.07-.77-.17-1.54-.25-2.31a.92.92,0,0,0,.58-.63c.66-2.57,1.33-5.14,2-7.71C94.88,71.42,95.62,69.25,93.57,68.3Z"/><path class="cls-1" d="M155.45,79.29c.44-3.91,2.54-7.34,4.25-10.81,1.13-2.29,3.71-7.31-.31-8.37a1,1,0,0,0-1.22,1.18.84.84,0,0,0-.18.23l-.58,1a1.16,1.16,0,0,0-.31-.22,29.78,29.78,0,0,0,2.45-5.75c.58-1.87,2.77-9.26-1.75-8-.41.11-1.36.81-1.76.7-.81-.23-.21-2.38,0-3,.58-2,1.45-3.9,1.46-6.05,0-3.36-2.68-7.21-6.48-6.19-2.57.69-3.35,2.68-3.63,5a.78.78,0,0,0-.59.66,12.48,12.48,0,0,0,.09,4.09.73.73,0,0,0,.13.31.91.91,0,0,0-.82,1.2c2,7.17.53,14.93,3.74,21.83,0,0,.06.06.08.09a.86.86,0,0,0,0,.28,109.83,109.83,0,0,0,2.78,22,1,1,0,0,0,1.93,0,.85.85,0,0,0,1-.93l-.12-1.34a.84.84,0,0,0,.15-.56c-.26-2.18-.54-4.35-.81-6.53A1.07,1.07,0,0,0,155.45,79.29Z"/><path class="cls-2" d="M102.28,115.89a1.12,1.12,0,0,0-.2-.18,75.36,75.36,0,0,0-.45-9.5c-.29-2.54-.69-5.07-1.22-7.57a34.07,34.07,0,0,0-1.79-6.45,6.42,6.42,0,0,0-7.87-3.82,2.19,2.19,0,0,0-.5.09,6,6,0,0,0-4.46,2.06C82.7,93.94,82.5,99,83.25,103.35c.84,4.78,2.85,9.29,4,14,1.15,4.93,1.86,9.95,2.59,15l5,34.67c.29,2,3.41,1.8,3.85,0,2.15-8.71,4.32-17.6,4.1-26.64-.11-4.3-.88-8.72.09-13C103.79,123.36,105.1,119.48,102.28,115.89Zm-5.09,39.78c-.08-.54-.15-1.08-.23-1.62a1.91,1.91,0,0,0,.58-.15C97.43,154.49,97.31,155.08,97.19,155.67Z"/><path class="cls-2" d="M165.85,123.14a5.62,5.62,0,0,0-1.63-4A32.81,32.81,0,0,0,159,87.45a2,2,0,0,0-2.83,0,2.05,2.05,0,0,0,0,2.83l.3.4h-4.1l-.26-.4a1.67,1.67,0,0,0-.36-.39c.88-1.67-1.56-3.76-3.28-2.25-9.08,8-5.85,21.92-4.61,32.34,1.47,12.36,3.53,24.59,5.76,36.83q1.91,10.44,3.82,20.87a1.56,1.56,0,0,0,.2.52l-.21.42a2,2,0,0,0,2.74,2.74c2.3-1,3.39-3.49,3.77-5.85.06-.38.1-.77.14-1.15.65-1.19,1.31-2.37,2-3.53a2.07,2.07,0,0,0-1.55-3c0-.69.05-1.37.09-2.05l1.2-21.14a1.78,1.78,0,0,0-.24-.94,14.24,14.24,0,0,0,3-3.82c1.28-2.53,1.39-5.33,1.37-8.11S166,126,165.85,123.14Zm-14,17c0,.08,0,.17-.07.26-.29-1.7-.56-3.4-.8-5.11C151.25,137,151.54,138.56,151.82,140.18Zm8.92-1.75a48.44,48.44,0,0,0,1.17-5.85c0,.31,0,.63,0,.94A9.92,9.92,0,0,1,160.74,138.43Z"/><path class="cls-2" d="M51.32,113.11a5.57,5.57,0,0,1-1.12-3.24,34.62,34.62,0,0,1,.42-5.29,18.54,18.54,0,0,0-.15-5.1,17.82,17.82,0,0,0-4.19-8.6,2,2,0,0,0-2.83,0,22.73,22.73,0,0,0-1.73,1.67,2,2,0,0,0-3.46-.06,38.53,38.53,0,0,0-4,8,19.06,19.06,0,0,0-.36,9.28c.55,3.18,1.23,6.33,1.85,9.49.54,2.74,1,5.61,2.73,7.91.14.19.3.37.45.54a2,2,0,0,0-.07.67c.33,5.55.69,11.1,1.46,16.62.73,5.25,1.69,10.72,4.06,15.51.93,1.86,3.67.86,3.73-1a58.09,58.09,0,0,0-.58-9.41,1.7,1.7,0,0,0,.45-1.34c-.38-6.45-.82-13.34,2.62-19.1a1.83,1.83,0,0,0,0-2,7.4,7.4,0,0,0,1.06-1.88,14.72,14.72,0,0,0,.62-4.28c.1-1.52.77-3,.81-4.47S52.28,114.34,51.32,113.11Z"/></g><g id="Capa_1" data-name="Capa 1"><path d="M196.07,93a22.79,22.79,0,0,0-7.24,1.35c-3.65,1.27-7.1.87-10.66.17-1.29-.26-2.55-.62-3.83-.94a10.25,10.25,0,0,0-6.29.23c-2.82,1-3.16.85-4.75-1.7a2.94,2.94,0,0,1-.45-.88,6.35,6.35,0,0,0-4.57-4.72,2.4,2.4,0,0,1-1.73-2.35,20.12,20.12,0,0,1,4-14.37,11.81,11.81,0,0,0,2.43-7.59c-.05-1.13-.34-2.33-1.47-2.62-1.67-.42-1.69-1.18-1-2.45a10.54,10.54,0,0,0,.63-1.87,12.56,12.56,0,0,0,.36-5.38c-.39-2.65-1.58-3.26-4.06-2.24-.29.12-.58.35-.9.05-.14-.51.19-.93.3-1.39a31.17,31.17,0,0,0,1.28-7.74,5.91,5.91,0,0,0-3.86-5.52c-2.26-1-4.32-.31-6.12,1.31a5.85,5.85,0,0,0-1.89,3.09,20.37,20.37,0,0,0-.54,4.4c-.08,5.27.63,10.5.83,15.76a10.29,10.29,0,0,0,.39,2.18A136.58,136.58,0,0,1,151,83.3c.09,1.25.25,2.29-1.51,2.32a2.26,2.26,0,0,0-1.26.7c-1.81,1.57-3.69,3.33-4.4,5.52-.84,2.61-2.19,3.38-4.71,3.39-1.28,0-2.56.51-3.87.09a20.37,20.37,0,0,0-10.47-.64,29,29,0,0,1-10,.33,8.94,8.94,0,0,0-5.54.57,1.89,1.89,0,0,1-1.67.22c-1.75-1-3.67-.65-5.51-.77-1.27-.08-2-.43-1.87-1.87a2.82,2.82,0,0,0-.71-1.8,14.11,14.11,0,0,0-5.22-5.13A2,2,0,0,1,93,84.1c.06-.73.13-1.47.2-2.2a40,40,0,0,1,2.7-10.2c1.13-3,.35-4.78-2.6-6a2.23,2.23,0,0,1,.42-1.62,12.11,12.11,0,0,0,1.24-5.48c.11-2.86-.57-3.64-3.61-4,.61-1.67,1.2-3.12,1.67-4.6a12.4,12.4,0,0,0-.37-8.91,4.16,4.16,0,0,0-4.53-2.69c-1.94.11-2.74,1.38-3.47,3-1.74,3.89-1.21,8-.91,11.92a110.57,110.57,0,0,0,5,26.83c.47,1.4.66,2.88,1.06,4.31a3.19,3.19,0,0,1-.87,3.33,21.7,21.7,0,0,0-4.79,7.4c-2.36,6.67-1.57,13.08,1.46,19.32a13.78,13.78,0,0,1,1.4,3.68c.09.55-.3,1.55.8,1.4.87-.12.72-1,.69-1.61a3.82,3.82,0,0,0-.28-1.2c-.58-1.53-1.1-3.1-1.82-4.58a22.05,22.05,0,0,1-1.89-12.72A16.12,16.12,0,0,1,88.14,91c.78-.94,1.62-1.9,3.12-1.23a1.19,1.19,0,0,0,1.38-.31c1.07-1.38,2.07-.56,2.91.16,1.78,1.52,3.38,3.18,3.16,5.82-.07.91.39,1.36,1.35,1.29a9.81,9.81,0,0,0,2,0,6.59,6.59,0,0,1,4.31.4,3,3,0,0,0,2.86,0c1.74-1.16,3.64-1,5.5-.71a31.16,31.16,0,0,0,11-.47,16,16,0,0,1,8.74.64,5.47,5.47,0,0,0,4.31.11,5.87,5.87,0,0,1,2.43-.27c.72,0,1.09.31,1,1,0,.49-.12,1-.21,1.47a26.41,26.41,0,0,0,1.27,13.3,5.17,5.17,0,0,1,.41,2.12,53.51,53.51,0,0,0,.62,13.49c.81,4.18,2.14,8.3,2,12.6A40,40,0,0,0,148.49,153a82,82,0,0,1,3.44,25.28,5.83,5.83,0,0,0,.45,2.63c1.1,2.25,3.42,2.59,5.19.83a7.84,7.84,0,0,0,1.64-2.43c2.65-5.75,3.07-11.88,2.91-18.05-.13-5.18-.52-10.34.25-15.5a4.17,4.17,0,0,1,1.41-2.74,8.39,8.39,0,0,0,2.52-5c.29-1.69.43-3.42.55-5.14.32-4.7-.73-9.35-.44-14a1.75,1.75,0,0,0-.24-1.16c-.82-.85-.42-1.69-.11-2.52a25.75,25.75,0,0,0,.5-15.51c-.2-.8-.32-1.61-.53-2.41s.2-1.38,1-1.7c2.31-1,4.63-1.67,7.16-.81a24.81,24.81,0,0,0,3.61.82c3.81.68,7.57,1.17,11.44-.11a23,23,0,0,1,6.43-1.21C195.77,93.84,195.91,93.43,196.07,93ZM91.51,82.63a6.12,6.12,0,0,1-.44.9c-1.06-3.75-2.15-7.26-3-10.81A122.62,122.62,0,0,1,84.7,48.38a16.41,16.41,0,0,1,1.13-6.25,2.6,2.6,0,0,1,2.28-2,3.12,3.12,0,0,1,3,1.44,6.65,6.65,0,0,1,1,3.49c.21,3.83-1.18,7.24-2.78,10.58a23.71,23.71,0,0,0-1.19,2.43c-.19.56-.44,1.36.42,1.69.69.26,1-.34,1.33-.81s.47-.87.77-1.25a1.79,1.79,0,0,1,1.9-.88c.83.25,1,1.1,1,1.81a11.55,11.55,0,0,1-1.39,5.92c-.57,1.09-1.18,2.16-1.76,3.25a1.06,1.06,0,0,0,0,1.36c.5.51,1,.34,1.56,0,.28-.18.5-.43.77-.62.73-.48,1.24-.18,1.59.51a1.9,1.9,0,0,1,.17,1.66C93,74.57,92.44,78.64,91.51,82.63Zm58.74-14.7c-.42-1.92-.91-3.83-1.4-5.74a41.61,41.61,0,0,1-1.22-9.76c0-2.54-.65-5.06-.48-7.16a27.93,27.93,0,0,1,.34-7.09,4.76,4.76,0,0,1,4.91-4,5.22,5.22,0,0,1,4.48,4.58,7.18,7.18,0,0,1-.09,2.45c-1,4-1.5,8.09-3.16,11.89a6.46,6.46,0,0,0-.26.69c-.14.54-.48,1.18.28,1.49s1.43-.21,1.71-.94a10.4,10.4,0,0,0,.28-1.7,6.05,6.05,0,0,1,2.11-3.53c.84-.69,1.5-.54,1.95.47a7,7,0,0,1,.17,5.07c-.78,2.41-1.33,4.94-3.08,6.94-.41.47-.83,1.12-.16,1.74a1.49,1.49,0,0,0,2.12-.47.91.91,0,0,0,.11-.22c.26-.8.51-1.7,1.63-1.39s.94,1.39.95,2.26a6.2,6.2,0,0,1-1,3.25,57.25,57.25,0,0,0-4.52,9.28,13.86,13.86,0,0,0-.94,7.22,18.75,18.75,0,0,1-.48,5.87.86.86,0,0,1-.44.53c-.37.14-.56-.14-.72-.46-.82-1.65-.53-3.49-.9-5.22a53.83,53.83,0,0,1-.91-9.07A40.3,40.3,0,0,0,150.25,67.93Zm14.09,48.2c-.53,1.11-1,2.26-2.18,2.87-.5.26-1,.71-.6,1.36.31.46.89.35,1.36.16s.88-.42,1.56-.76a51.92,51.92,0,0,1,1.1,11.54,20.51,20.51,0,0,1-.55,6.85c-.46,1.39-.56,3.09-2.74,3.24-.63,0-1.19,1-1.31,2.06a114.15,114.15,0,0,0-.42,17.44,42.77,42.77,0,0,1-2.26,16.52,6.3,6.3,0,0,1-1.44,2.55c-1.08,1-2.05.89-2.72-.47a3.72,3.72,0,0,1-.42-1.4c-.14-3.12-1-6.18-.7-9.33a15.13,15.13,0,0,0-.55-4.38,10.4,10.4,0,0,1-.41-1.93c0-3.19-1.4-6-2.08-9.06-.9-4-2.16-7.93-2.1-12.08,0-.4.05-.79.08-1.28.86,0,.9.66,1.17,1.1.39.66,1,1,1.64.5s.31-1-.08-1.49c-.1-.13-.21-.25-.32-.38-4.36-5.23-5.09-11.6-5.6-18-.12-1.5,0-3,0-4.56,1,.09.84.75,1.1,1.12s.68.74,1.22.36a.84.84,0,0,0,.28-1.27,10.57,10.57,0,0,1-1.39-2.58,29.41,29.41,0,0,1-2.51-16.59c.15-1.27,1.59-2,1.45-2.87a5.74,5.74,0,0,1,.46-3.31,10.75,10.75,0,0,1,3.1-3.44c1.18-1,2.51-.33,2.94,1.31.25,1,.42,1.91,1.69,2.13,2,.33,2.66-.11,3.08-2.14.34-1.66,1.31-2.13,2.42-1,1.39,1.45,3.14,2.73,3.39,5,0,.24.06.59.22.68,2.42,1.42,2.7,4,3.15,6.31C166.43,106.05,166.71,111.2,164.34,116.13Z"/><path d="M51.19,97.27c-.07.45-.15.63-.1.76,1.08,3.26.48,6.46-.34,9.64A3,3,0,0,0,51,110a20,20,0,0,1,1.3,15.74,55.77,55.77,0,0,0-2,8.61c-.43,2.66-1.32,5.25-1.42,8a67.9,67.9,0,0,0-.19,7.13,58.26,58.26,0,0,1-.67,12,2.47,2.47,0,0,1-1.81,2.36c-1.28.37-2.08,0-2.29-1.4-.77-5-2.72-9.81-3.06-14.94-.23-3.35-.89-6.68-1-10-.2-4.62-1.75-8.85-3.23-13.11a17.12,17.12,0,0,1-1-5,32.72,32.72,0,0,0-1.21-7c-1.71-6.64-1.52-13.19,2.25-19.26a6.63,6.63,0,0,1,2.38-2.44A1.26,1.26,0,0,0,39.73,89c-.52-2.24-1.09-4.48-1.46-6.74-1.13-7-2.89-13.86-2.58-21a26,26,0,0,1,1.78-9.39c1.26-2.92,4.43-3.42,6.29-1a4,4,0,0,1,.66,2.57,23.67,23.67,0,0,1-1.56,7.2c-.36,1.12-.21,1.55.94,2a4,4,0,0,1,2.55,5.11,19,19,0,0,1-1.61,3.6c-.22.42-.6,1-.08,1.32,3.06,2.23,2.06,5.06,1.06,7.77A46.77,46.77,0,0,0,44.06,87c-.21,1.06,0,1.59,1.22,1.83,1.44.27,2.26,1.56,3,2.75A19.7,19.7,0,0,1,49.54,94a2,2,0,0,0,2.21,1.52c1-.08,1.63.7,2.41,1.13,1.73,1,3.44,1.56,5.27.15a3.6,3.6,0,0,1,3.32-.25,17.19,17.19,0,0,0,10.41-.32c2.88-1,5.47-.26,8.14.51a.74.74,0,0,1,.56,1,1,1,0,0,1-.87.75,5,5,0,0,1-2.13-.5,9.18,9.18,0,0,0-5.56-.25,20.36,20.36,0,0,1-11.37.18,2.91,2.91,0,0,0-2.79.48,3.59,3.59,0,0,1-3.94.25A10.83,10.83,0,0,0,51.19,97.27Zm-5.36,63.48a4.25,4.25,0,0,0,1-3.1c.43-5,0-10,.09-15,0-3.08,1.32-5.93,1.18-9,1.66-1.77,1.8-4.16,2.4-6.32.82-2.91,1.73-5.84,1.45-8.94a9.68,9.68,0,0,0-2.52-6c-.6.55-.47,1.37-.67,2s-.43,1.52-1.43,1.24-.75-1.09-.49-1.81a4.51,4.51,0,0,1,.22-.44,35.78,35.78,0,0,0,2.52-6.94c1.48-5.05.15-9.59-2.61-13.82a4.1,4.1,0,0,0-2.76-2,11.13,11.13,0,0,1-.52,1.66c-.62,1.26-2,1.64-2.75.54-1.07-1.47-1.73-.73-2.49.07a11.41,11.41,0,0,0-2.76,5.7,28.6,28.6,0,0,0-.08,11.51c.11.55.08,1.25.7,1.49,1.2.46,1.23,1.3,1,2.38-.93,5.17.62,9.95,2.61,14.57a21.91,21.91,0,0,1,1.71,7.08,120,120,0,0,0,1.54,14.91A64.86,64.86,0,0,0,45.83,160.75ZM42,91.1c.43-4.31,1.76-8.27,2.81-12.31A7.89,7.89,0,0,0,45,75.62c-.08-.6-.3-1.16-1-1.27s-1,.43-1.08,1.05a5.71,5.71,0,0,1-.13.72c-.22.71-.65,1.2-1.44,1s-.7-.91-.45-1.59a15.32,15.32,0,0,1,1.81-3.2c1.23-1.83,2.55-3.67,2.38-6-.14-1.87-.93-2.43-2.75-2-.63.13-1.33.57-1.85,0-.65-.74.18-1.34.41-2,.1-.31.3-.59.42-.89a19,19,0,0,0,1.74-7.87,2.66,2.66,0,0,0-2-2.73c-1.36-.18-1.84.84-2.34,1.79a17,17,0,0,0-1.59,6.41,56.64,56.64,0,0,0,.58,13c.81,5.85,1.48,11.71,3.07,17.42C40.94,89.9,40.77,90.7,42,91.1Z"/><path d="M101.72,116.22a4.22,4.22,0,0,0-.61,2.29,4,4,0,0,1-.17,1.2,1.08,1.08,0,0,1-1.39.71c-.57-.19-.61-.74-.59-1.22a3,3,0,0,1,.33-.92,28,28,0,0,0,2-13.49,15,15,0,0,0-.5-2.16c-.08-.39-.21-.89.31-1a.9.9,0,0,1,1.12.72c.22.87.39,1.76.54,2.65a15.18,15.18,0,0,1-.19,4.66,6.12,6.12,0,0,0,.29,2.87,29.74,29.74,0,0,1,1.4,10.68,12.61,12.61,0,0,1-1,3.27,5.33,5.33,0,0,0-.06,3.31,25.9,25.9,0,0,1,.86,7.52c-.16,4.3-1.48,8.4-2,12.64a64.78,64.78,0,0,0-.74,8.57,27.36,27.36,0,0,1-2,9.57,2.35,2.35,0,0,1-2.63,1.76,2.91,2.91,0,0,1-2.8-2,13.57,13.57,0,0,1-.59-2.38c-.8-8.26-2-16.47-3.11-24.69A41.92,41.92,0,0,0,89,135.44c-1.23-4.79-.58-9.64-.54-14.47a2.55,2.55,0,0,1,.14-.72c.23-.64.58-1.19,1.36-1.25a1.17,1.17,0,0,1,1.17.72c.33.63.51,1.26-.2,1.74a1.83,1.83,0,0,0-.78,1.72c.26,3.76-.49,7.58.5,11.28a77.81,77.81,0,0,1,1.81,9.68c.62,4.72,1.2,9.44,1.85,14.16.3,2.19.7,4.37.79,6.59a2,2,0,0,0,.08.49c.29,1,.42,2.31,1.79,2.32s1.41-1.27,1.68-2.13a25.89,25.89,0,0,0,1.13-7,91.06,91.06,0,0,1,2.14-15.6,19.93,19.93,0,0,0,.15-8.56,6.13,6.13,0,0,0-.48-1.08c-.87.15-.73.85-.93,1.35a6.85,6.85,0,0,1-.69,1.56.88.88,0,0,1-1.29.29.8.8,0,0,1-.22-1.09,70.78,70.78,0,0,0,2.69-7.15c.89-2.45,2.13-4.84,1.73-7.6A10.3,10.3,0,0,0,101.72,116.22Z"/><path d="M173.59,69.81c4.26-2.91,6-7.34,7.33-12.07a72.64,72.64,0,0,0,2.76-16.23c0-.17,0-.33,0-.5a1.12,1.12,0,0,1,1.53-1.1c.8.18.64.81.46,1.39a68.25,68.25,0,0,0-1.28,7.52c-.85,4.82-.54,9.67-.13,14.5a12.18,12.18,0,0,0,3.82,7.8,5.12,5.12,0,0,0,3.24,1.59c.72.06,1.26.45,1.13,1.3s-.68,1.06-1.43,1a1.6,1.6,0,0,1-.49,0,4.57,4.57,0,0,0-4.83.87c-1.75,1.47-3.06,3.17-3,5.64,0,2-.75,3.86-1.2,5.78a2.2,2.2,0,0,1-1,1.36,1.25,1.25,0,0,1-1.59,0c-.51-.42-.16-.87,0-1.32a24.17,24.17,0,0,0,1.86-11.79c-.3-2.65-.82-3.37-3.38-4.19-1.17-.37-2.34-.72-3.51-1.11C173.79,70.21,173.73,70,173.59,69.81Zm13.6,3c-1.55-1.91-3.58-3.4-4-5.85s-.64-4.66-1-7c-1,1.55-1.44,3.29-2.37,4.8s-1.91,2.93-2.88,4.43c1.64.81,3.33,1.1,4.54,2.26s.56,3.14,1.65,4.56A24.84,24.84,0,0,0,187.19,72.77Z"/><path d="M57.3,48.68c5.28-3.7,8.51-8.51,9.13-15,.23-2.36.66-4.71,1-7.06A25.1,25.1,0,0,0,68,19.32a1.71,1.71,0,0,1,.23-1.41,1.23,1.23,0,0,1,1.29-.51c.48.13.58.55.58,1A6.57,6.57,0,0,1,70,19.84C69,24.67,68.77,29.6,68,34.46a16.6,16.6,0,0,0,1.32,8.91c.68,1.7,2.17,2.39,3.75,2.93.62.21,1.27.3,1.91.45S76,47.23,76,47.91a1.27,1.27,0,0,1-1.25,1.28,9.94,9.94,0,0,1-1.7-.19,3.68,3.68,0,0,0-4.2,2.24,8.39,8.39,0,0,0-.64,1.59c-1.36,5.4-3,10.76-2.86,16.41a1.72,1.72,0,0,1-1,1.82A1.46,1.46,0,0,1,63,71a1,1,0,0,1-.34-1.32c1-2.38,1-5,1.59-7.44.82-3.38,0-6.7-1.2-9.86a4.19,4.19,0,0,0-3.75-2.8C58.51,49.51,57.66,49.53,57.3,48.68Zm9-8.41a44.76,44.76,0,0,1-5,6.95c-.6.63,0,1,.49,1.29a6.06,6.06,0,0,1,3.45,5c0,.42,0,1,.91,1,1-2.54,1.57-5.46,4.47-7.16C67.58,45.92,67.18,43.22,66.27,40.27Z"/><path d="M116.54,89.36c-1.46-.07-1.88-.72-1.38-1.72a9.89,9.89,0,0,0,.92-5.26c-.21-3.09-1.37-4.26-4.42-4.45-.24,0-.49,0-.73,0-.62-.08-1.5.19-1.62-.69s.63-1.24,1.38-1.45a2.55,2.55,0,0,1,.73-.06c3.68,0,5.43-2.2,6.33-5.42a46.58,46.58,0,0,0,1.3-6.51c.1-.73.21-1.46.31-2.19s.34-1.4,1.16-1.27.8.84.67,1.55c-.34,1.85-.62,3.71-.92,5.57a15.16,15.16,0,0,0,0,4.41,3.32,3.32,0,0,0,2.24,3c1.22.45,2.32,1.21,3.68,1.3.72.05,1.31.42,1.24,1.24s-.77,1.17-1.6,1.12a15.41,15.41,0,0,0-3.18.15,4.9,4.9,0,0,0-4.42,4.29c-.32,1.69-.52,3.4-.75,5.1C117.37,88.85,117,89.38,116.54,89.36Zm6.11-12.59c-1.78-.88-3.19-1.59-4.13-3.22a11.7,11.7,0,0,1-2.62,3.22L118,79.86C118.87,77.88,120.78,77.78,122.65,76.77Z"/><path d="M11.64,86.22a4.13,4.13,0,0,1,2.15-2.1c5.67-1.65,7.3-6.12,8-11.27.12-.89.11-1.8.16-2.7a3.36,3.36,0,0,1,.14-1.2c.3-.58.73-1.17,1.54-.9s.47.82.46,1.42c-.05,2.8-1.21,5.42-1.32,8.21,0,.65-.08,1.31-.06,2A5.16,5.16,0,0,0,27.5,84.9c.33,0,.66,0,1,.09a1.15,1.15,0,0,1,1,1c.14.7-.35,1.08-.89,1.3a3.1,3.1,0,0,1-1.93,0,3.9,3.9,0,0,0-4.94,3.39,18.17,18.17,0,0,0-.14,2.95,1.57,1.57,0,0,1-1.13,1.69,1.25,1.25,0,0,1-1.38-.2c-.34-.35-.21-.75-.07-1.15a8.5,8.5,0,0,0,.35-5.54c-.62-2-.93-2.22-2.94-2.28-.74,0-1.48,0-2.22,0S12.77,86.57,11.64,86.22Zm5.3-1.91c1.34.38,2.59.33,3.32,1.62,1,1.73,1.09,1.68,2.66.52.38-.28.85-.53.8-1.29-2-.27-2.26-2.15-3.23-3.85C19.57,82.68,18.05,83.06,16.94,84.31Z"/><path d="M1,96.68a6.21,6.21,0,0,1,5.81-1.45,6.26,6.26,0,0,0,4.1-.1A1.72,1.72,0,0,1,12.1,95c2,.91,4.25.08,6.29.84A3.43,3.43,0,0,0,21,95.6c3.84-1.75,7.57-.47,11.3.44.41.1.78.39.6.88a1,1,0,0,1-1.16.67c-1.28-.31-2.53-.71-3.82-1-2.33-.49-4.67-1-6.81.67a2.24,2.24,0,0,1-2.12.17A20.13,20.13,0,0,0,9.89,97a4.78,4.78,0,0,1-2.44-.13A7,7,0,0,0,2.19,97C1.88,97.11,1.54,97.1,1,96.68Z"/><path d="M93.15,95.43c-1.74,0-2.79-.39-3.57-1.35a.81.81,0,0,1-.12-.68.48.48,0,0,1,.81-.11c1.64,1.47,3.19,1.49,4.7-.21a.53.53,0,0,1,.85.07.77.77,0,0,1-.06,1.11A3.9,3.9,0,0,1,93.15,95.43Z"/><path d="M89.52,110.44A22.92,22.92,0,0,0,94.83,108a.54.54,0,0,1,.84.15.69.69,0,0,1-.13.64C93.71,110,91.83,111,89.52,110.44Z"/><path d="M91.92,111.85a13.1,13.1,0,0,0,4-1.87.63.63,0,0,1,1,.23c.2.38-.1.62-.37.8C95.16,111.93,93.68,112.57,91.92,111.85Z"/><path d="M158.14,93.51c.19,2.39-.41,3.4-2.19,3.76a15.86,15.86,0,0,1-5.3,0c1.8-.92,3.33-.36,4.71-.84S157.25,94.56,158.14,93.51Z"/><path d="M154.94,138.12c.46-.58,1.16-.35,1.76-.41a4.32,4.32,0,0,0,2.51-.88c.36-.31.8-.78,1.2-.18s-.1,1.06-.66,1.3a6.71,6.71,0,0,1-4.76.46S155,138.26,154.94,138.12Z"/><path d="M161.13,132.43c-.67,2.46-2.45,3.26-6.11,2.8.95-1,2.22-.53,3.11-1.07S160,133.05,161.13,132.43Z"/><path d="M39.37,97.93c1.13-.33,1.88.17,2.69.18,1.09,0,2.17,0,2.48-1.4.15-.69.6-1,1.25-.57a1,1,0,0,1,.14,1.51,4.13,4.13,0,0,1-.9.82A4.9,4.9,0,0,1,39.37,97.93Z"/><path d="M44.06,125.2c-.1.56-.43.86-.87.76a5.14,5.14,0,0,1-3.71-2.14.74.74,0,0,1-.06-.66c.1-.15.54-.29.61-.21a7.71,7.71,0,0,0,3.69,1.72C43.89,124.72,44,125.05,44.06,125.2Z"/><path d="M43.9,121.77a.83.83,0,0,1-.73.55,5.79,5.79,0,0,1-4-2,.47.47,0,0,1,0-.64c.17-.14.52-.28.64-.2a9.93,9.93,0,0,0,3.87,1.89C43.8,121.38,43.85,121.63,43.9,121.77Z"/></g></svg>